<mxfile host="app.diagrams.net" agent="Mozilla/5.0 (Windows NT 10.0; Win64; x64) AppleWebKit/537.36 (KHTML, like Gecko) Chrome/130.0.0.0 Safari/537.36" version="24.8.6">
  <diagram name="Página-1" id="RzPXGoUBXxvL-yaraotR">
    <mxGraphModel grid="1" page="1" gridSize="10" guides="1" tooltips="1" connect="1" arrows="1" fold="1" pageScale="1" pageWidth="827" pageHeight="1169" math="0" shadow="0">
      <root>
        <mxCell id="0" />
        <mxCell id="1" parent="0" />
        <mxCell id="ygF_lhyRRJSf7L5d6sI7-5" value="" style="rounded=0;whiteSpace=wrap;html=1;" vertex="1" parent="1">
          <mxGeometry x="37.5" y="440" width="60" height="50" as="geometry" />
        </mxCell>
        <mxCell id="KNU0Fs-RdxI1QLgksmc8-16" value="" style="rounded=0;whiteSpace=wrap;html=1;" vertex="1" parent="1">
          <mxGeometry x="319" y="733" width="70" height="50" as="geometry" />
        </mxCell>
        <mxCell id="KNU0Fs-RdxI1QLgksmc8-1" value="&lt;font style=&quot;font-size: 11px;&quot;&gt;&lt;br&gt;&lt;br id=&quot;docs-internal-guid-13d931d8-7fff-1c66-3f6d-4145896ef3bb&quot;&gt;&lt;/font&gt;&lt;p style=&quot;line-height: 1.38; margin-top: 0pt; margin-bottom: 0pt; font-size: 11px;&quot; dir=&quot;ltr&quot;&gt;&lt;font style=&quot;font-size: 11px;&quot;&gt;&lt;span style=&quot;font-family: Arial, sans-serif; color: rgb(0, 0, 0); background-color: transparent; font-weight: 700; font-style: normal; font-variant: normal; text-decoration: underline; text-decoration-skip-ink: none; vertical-align: baseline; white-space: pre-wrap;&quot;&gt;Requisitos funcionais:&lt;/span&gt;&lt;/font&gt;&lt;/p&gt;&lt;ul style=&quot;margin-top: 0px; margin-bottom: 0px; padding-inline-start: 48px; font-size: 11px;&quot;&gt;&lt;li aria-level=&quot;1&quot; style=&quot;list-style-type: disc; font-family: Arial, sans-serif; color: rgb(0, 0, 0); background-color: transparent; font-weight: 400; font-style: normal; font-variant: normal; text-decoration: none; vertical-align: baseline; white-space: pre;&quot; dir=&quot;ltr&quot;&gt;&lt;p role=&quot;presentation&quot; style=&quot;line-height:1.38;margin-top:0pt;margin-bottom:0pt;&quot; dir=&quot;ltr&quot;&gt;&lt;font style=&quot;font-size: 11px;&quot;&gt;&lt;span style=&quot;font-family: Arial, sans-serif; color: rgb(0, 0, 0); background-color: transparent; font-weight: 400; font-style: normal; font-variant: normal; text-decoration: none; vertical-align: baseline; white-space: pre-wrap;&quot;&gt;Lista de fornecedores&lt;/span&gt;&lt;/font&gt;&lt;/p&gt;&lt;/li&gt;&lt;li aria-level=&quot;1&quot; style=&quot;list-style-type: disc; font-family: Arial, sans-serif; color: rgb(0, 0, 0); background-color: transparent; font-weight: 400; font-style: normal; font-variant: normal; text-decoration: none; vertical-align: baseline; white-space: pre;&quot; dir=&quot;ltr&quot;&gt;&lt;p role=&quot;presentation&quot; style=&quot;line-height:1.38;margin-top:0pt;margin-bottom:0pt;&quot; dir=&quot;ltr&quot;&gt;&lt;font style=&quot;font-size: 11px;&quot;&gt;&lt;span style=&quot;font-family: Arial, sans-serif; color: rgb(0, 0, 0); background-color: transparent; font-weight: 400; font-style: normal; font-variant: normal; text-decoration: none; vertical-align: baseline; white-space: pre-wrap;&quot;&gt;Gerenciamento de estoque (Peças e Bicicletas)&lt;/span&gt;&lt;/font&gt;&lt;/p&gt;&lt;/li&gt;&lt;li aria-level=&quot;1&quot; style=&quot;list-style-type: disc; font-family: Arial, sans-serif; color: rgb(0, 0, 0); background-color: transparent; font-weight: 400; font-style: normal; font-variant: normal; text-decoration: none; vertical-align: baseline; white-space: pre;&quot; dir=&quot;ltr&quot;&gt;&lt;p role=&quot;presentation&quot; style=&quot;line-height:1.38;margin-top:0pt;margin-bottom:0pt;&quot; dir=&quot;ltr&quot;&gt;&lt;font style=&quot;font-size: 11px;&quot;&gt;&lt;span style=&quot;font-family: Arial, sans-serif; color: rgb(0, 0, 0); background-color: transparent; font-weight: 400; font-style: normal; font-variant: normal; text-decoration: none; vertical-align: baseline; white-space: pre-wrap;&quot;&gt;Agendamento para Conserto de Bicicleta&lt;/span&gt;&lt;/font&gt;&lt;/p&gt;&lt;/li&gt;&lt;li aria-level=&quot;1&quot; style=&quot;list-style-type: disc; font-family: Arial, sans-serif; color: rgb(0, 0, 0); background-color: transparent; font-weight: 400; font-style: normal; font-variant: normal; text-decoration: none; vertical-align: baseline; white-space: pre;&quot; dir=&quot;ltr&quot;&gt;&lt;p role=&quot;presentation&quot; style=&quot;line-height:1.38;margin-top:0pt;margin-bottom:0pt;&quot; dir=&quot;ltr&quot;&gt;&lt;font style=&quot;font-size: 11px;&quot;&gt;&lt;span style=&quot;font-family: Arial, sans-serif; color: rgb(0, 0, 0); background-color: transparent; font-weight: 400; font-style: normal; font-variant: normal; text-decoration: none; vertical-align: baseline; white-space: pre-wrap;&quot;&gt;Geração de relatórios&lt;/span&gt;&lt;/font&gt;&lt;/p&gt;&lt;/li&gt;&lt;li aria-level=&quot;1&quot; style=&quot;list-style-type: disc; font-family: Arial, sans-serif; color: rgb(0, 0, 0); background-color: transparent; font-weight: 400; font-style: normal; font-variant: normal; text-decoration: none; vertical-align: baseline; white-space: pre;&quot; dir=&quot;ltr&quot;&gt;&lt;p role=&quot;presentation&quot; style=&quot;line-height:1.38;margin-top:0pt;margin-bottom:0pt;&quot; dir=&quot;ltr&quot;&gt;&lt;font style=&quot;font-size: 11px;&quot;&gt;&lt;span style=&quot;font-family: Arial, sans-serif; color: rgb(0, 0, 0); background-color: transparent; font-weight: 400; font-style: normal; font-variant: normal; text-decoration: none; vertical-align: baseline; white-space: pre-wrap;&quot;&gt;Registro de vendas&lt;/span&gt;&lt;/font&gt;&lt;/p&gt;&lt;/li&gt;&lt;li aria-level=&quot;1&quot; style=&quot;list-style-type: disc; font-family: Arial, sans-serif; color: rgb(0, 0, 0); background-color: transparent; font-weight: 400; font-style: normal; font-variant: normal; text-decoration: none; vertical-align: baseline; white-space: pre;&quot; dir=&quot;ltr&quot;&gt;&lt;p role=&quot;presentation&quot; style=&quot;line-height:1.38;margin-top:0pt;margin-bottom:0pt;&quot; dir=&quot;ltr&quot;&gt;&lt;font style=&quot;font-size: 11px;&quot;&gt;&lt;span style=&quot;font-family: Arial, sans-serif; color: rgb(0, 0, 0); background-color: transparent; font-weight: 400; font-style: normal; font-variant: normal; text-decoration: none; vertical-align: baseline; white-space: pre-wrap;&quot;&gt;Cálculo da montagem das bicicletas, relacionado ao estoque&lt;/span&gt;&lt;/font&gt;&lt;/p&gt;&lt;/li&gt;&lt;li aria-level=&quot;1&quot; style=&quot;list-style-type: disc; font-family: Arial, sans-serif; color: rgb(0, 0, 0); background-color: transparent; font-weight: 400; font-style: normal; font-variant: normal; text-decoration: none; vertical-align: baseline; white-space: pre;&quot; dir=&quot;ltr&quot;&gt;&lt;p role=&quot;presentation&quot; style=&quot;line-height:1.38;margin-top:0pt;margin-bottom:0pt;&quot; dir=&quot;ltr&quot;&gt;&lt;font style=&quot;font-size: 11px;&quot;&gt;&lt;span style=&quot;font-family: Arial, sans-serif; color: rgb(0, 0, 0); background-color: transparent; font-weight: 400; font-style: normal; font-variant: normal; text-decoration: none; vertical-align: baseline; white-space: pre-wrap;&quot;&gt;Estoque para armazenamento das bicicletas e peças&lt;/span&gt;&lt;/font&gt;&lt;/p&gt;&lt;/li&gt;&lt;li aria-level=&quot;1&quot; style=&quot;list-style-type: disc; font-family: Arial, sans-serif; color: rgb(0, 0, 0); background-color: transparent; font-weight: 400; font-style: normal; font-variant: normal; text-decoration: none; vertical-align: baseline; white-space: pre;&quot; dir=&quot;ltr&quot;&gt;&lt;p role=&quot;presentation&quot; style=&quot;line-height:1.38;margin-top:0pt;margin-bottom:0pt;&quot; dir=&quot;ltr&quot;&gt;&lt;font style=&quot;font-size: 11px;&quot;&gt;&lt;span style=&quot;font-family: Arial, sans-serif; color: rgb(0, 0, 0); background-color: transparent; font-weight: 400; font-style: normal; font-variant: normal; text-decoration: none; vertical-align: baseline; white-space: pre-wrap;&quot;&gt;Painel de pedidos e agendamentos pendentes&lt;/span&gt;&lt;/font&gt;&lt;/p&gt;&lt;/li&gt;&lt;li aria-level=&quot;1&quot; style=&quot;list-style-type: disc; font-family: Arial, sans-serif; color: rgb(0, 0, 0); background-color: transparent; font-weight: 400; font-style: normal; font-variant: normal; text-decoration: none; vertical-align: baseline; white-space: pre;&quot; dir=&quot;ltr&quot;&gt;&lt;p role=&quot;presentation&quot; style=&quot;line-height:1.38;margin-top:0pt;margin-bottom:0pt;&quot; dir=&quot;ltr&quot;&gt;&lt;font style=&quot;font-size: 11px;&quot;&gt;&lt;span style=&quot;font-family: Arial, sans-serif; color: rgb(0, 0, 0); background-color: transparent; font-weight: 400; font-style: normal; font-variant: normal; text-decoration: none; vertical-align: baseline; white-space: pre-wrap;&quot;&gt;Informação de lucro e decréscimo&lt;/span&gt;&lt;/font&gt;&lt;/p&gt;&lt;/li&gt;&lt;li aria-level=&quot;1&quot; style=&quot;list-style-type: disc; font-family: Arial, sans-serif; color: rgb(0, 0, 0); background-color: transparent; font-weight: 400; font-style: normal; font-variant: normal; text-decoration: none; vertical-align: baseline; white-space: pre;&quot; dir=&quot;ltr&quot;&gt;&lt;p role=&quot;presentation&quot; style=&quot;line-height:1.38;margin-top:0pt;margin-bottom:0pt;&quot; dir=&quot;ltr&quot;&gt;&lt;font style=&quot;font-size: 11px;&quot;&gt;&lt;span style=&quot;font-family: Arial, sans-serif; color: rgb(0, 0, 0); background-color: transparent; font-weight: 400; font-style: normal; font-variant: normal; text-decoration: none; vertical-align: baseline; white-space: pre-wrap;&quot;&gt;Ferramenta de avaliação&lt;/span&gt;&lt;/font&gt;&lt;/p&gt;&lt;/li&gt;&lt;li aria-level=&quot;1&quot; style=&quot;list-style-type: disc; font-family: Arial, sans-serif; color: rgb(0, 0, 0); background-color: transparent; font-weight: 400; font-style: normal; font-variant: normal; text-decoration: none; vertical-align: baseline; white-space: pre;&quot; dir=&quot;ltr&quot;&gt;&lt;p role=&quot;presentation&quot; style=&quot;line-height:1.38;margin-top:0pt;margin-bottom:0pt;&quot; dir=&quot;ltr&quot;&gt;&lt;font style=&quot;font-size: 11px;&quot;&gt;&lt;span style=&quot;font-family: Arial, sans-serif; color: rgb(0, 0, 0); background-color: transparent; font-weight: 400; font-style: normal; font-variant: normal; text-decoration: none; vertical-align: baseline; white-space: pre-wrap;&quot;&gt;Cadastro dos clientes com informações pertinentes&lt;/span&gt;&lt;/font&gt;&lt;/p&gt;&lt;/li&gt;&lt;/ul&gt;&lt;font style=&quot;font-size: 11px;&quot;&gt;&lt;br&gt;&lt;/font&gt;&lt;p style=&quot;line-height: 1.38; margin-top: 0pt; margin-bottom: 0pt; font-size: 11px;&quot; dir=&quot;ltr&quot;&gt;&lt;font style=&quot;font-size: 11px;&quot;&gt;&lt;span style=&quot;font-family: Arial, sans-serif; color: rgb(0, 0, 0); background-color: transparent; font-weight: 700; font-style: normal; font-variant: normal; text-decoration: underline; text-decoration-skip-ink: none; vertical-align: baseline; white-space: pre-wrap;&quot;&gt;Requisitos não funcionais:&lt;/span&gt;&lt;/font&gt;&lt;/p&gt;&lt;ul style=&quot;margin-top: 0px; margin-bottom: 0px; padding-inline-start: 48px; font-size: 11px;&quot;&gt;&lt;li aria-level=&quot;1&quot; style=&quot;list-style-type: disc; font-family: Arial, sans-serif; color: rgb(0, 0, 0); background-color: transparent; font-weight: 400; font-style: normal; font-variant: normal; text-decoration: none; vertical-align: baseline; white-space: pre;&quot; dir=&quot;ltr&quot;&gt;&lt;p role=&quot;presentation&quot; style=&quot;line-height:1.38;margin-top:0pt;margin-bottom:0pt;&quot; dir=&quot;ltr&quot;&gt;&lt;font style=&quot;font-size: 11px;&quot;&gt;&lt;span style=&quot;font-family: Arial, sans-serif; color: rgb(0, 0, 0); background-color: transparent; font-weight: 400; font-style: normal; font-variant: normal; text-decoration: none; vertical-align: baseline; white-space: pre-wrap;&quot;&gt;Menu de opções interativo&lt;/span&gt;&lt;/font&gt;&lt;/p&gt;&lt;/li&gt;&lt;li aria-level=&quot;1&quot; style=&quot;list-style-type: disc; font-family: Arial, sans-serif; color: rgb(0, 0, 0); background-color: transparent; font-weight: 400; font-style: normal; font-variant: normal; text-decoration: none; vertical-align: baseline; white-space: pre;&quot; dir=&quot;ltr&quot;&gt;&lt;p role=&quot;presentation&quot; style=&quot;line-height:1.38;margin-top:0pt;margin-bottom:0pt;&quot; dir=&quot;ltr&quot;&gt;&lt;font style=&quot;font-size: 11px;&quot;&gt;&lt;span style=&quot;font-family: Arial, sans-serif; color: rgb(0, 0, 0); background-color: transparent; font-weight: 400; font-style: normal; font-variant: normal; text-decoration: none; vertical-align: baseline; white-space: pre-wrap;&quot;&gt;Manter (adicionar/editar/remover) a lista de fornecedores&lt;/span&gt;&lt;/font&gt;&lt;/p&gt;&lt;/li&gt;&lt;li aria-level=&quot;1&quot; style=&quot;list-style-type: disc; font-family: Arial, sans-serif; color: rgb(0, 0, 0); background-color: transparent; font-weight: 400; font-style: normal; font-variant: normal; text-decoration: none; vertical-align: baseline; white-space: pre;&quot; dir=&quot;ltr&quot;&gt;&lt;p role=&quot;presentation&quot; style=&quot;line-height:1.38;margin-top:0pt;margin-bottom:0pt;&quot; dir=&quot;ltr&quot;&gt;&lt;font style=&quot;font-size: 11px;&quot;&gt;&lt;span style=&quot;font-family: Arial, sans-serif; color: rgb(0, 0, 0); background-color: transparent; font-weight: 400; font-style: normal; font-variant: normal; text-decoration: none; vertical-align: baseline; white-space: pre-wrap;&quot;&gt;Descrição dos itens de estoque&lt;/span&gt;&lt;/font&gt;&lt;/p&gt;&lt;/li&gt;&lt;li aria-level=&quot;1&quot; style=&quot;list-style-type: disc; font-family: Arial, sans-serif; color: rgb(0, 0, 0); background-color: transparent; font-weight: 400; font-style: normal; font-variant: normal; text-decoration: none; vertical-align: baseline; white-space: pre;&quot; dir=&quot;ltr&quot;&gt;&lt;p role=&quot;presentation&quot; style=&quot;line-height:1.38;margin-top:0pt;margin-bottom:0pt;&quot; dir=&quot;ltr&quot;&gt;&lt;font style=&quot;font-size: 11px;&quot;&gt;&lt;span style=&quot;font-family: Arial, sans-serif; color: rgb(0, 0, 0); background-color: transparent; font-weight: 400; font-style: normal; font-variant: normal; text-decoration: none; vertical-align: baseline; white-space: pre-wrap;&quot;&gt;Ferramenta para definir o status dos agendamentos&lt;/span&gt;&lt;/font&gt;&lt;/p&gt;&lt;/li&gt;&lt;li aria-level=&quot;1&quot; style=&quot;list-style-type: disc; font-family: Arial, sans-serif; color: rgb(0, 0, 0); background-color: transparent; font-weight: 400; font-style: normal; font-variant: normal; text-decoration: none; vertical-align: baseline; white-space: pre;&quot; dir=&quot;ltr&quot;&gt;&lt;p role=&quot;presentation&quot; style=&quot;line-height:1.38;margin-top:0pt;margin-bottom:0pt;&quot; dir=&quot;ltr&quot;&gt;&lt;font style=&quot;font-size: 11px;&quot;&gt;&lt;span style=&quot;font-family: Arial, sans-serif; color: rgb(0, 0, 0); background-color: transparent; font-weight: 400; font-style: normal; font-variant: normal; text-decoration: none; vertical-align: baseline; white-space: pre-wrap;&quot;&gt;Geração de registro para o cliente, pedidos e vendas&lt;/span&gt;&lt;/font&gt;&lt;/p&gt;&lt;/li&gt;&lt;li aria-level=&quot;1&quot; style=&quot;list-style-type: disc; font-family: Arial, sans-serif; color: rgb(0, 0, 0); background-color: transparent; font-weight: 400; font-style: normal; font-variant: normal; text-decoration: none; vertical-align: baseline; white-space: pre;&quot; dir=&quot;ltr&quot;&gt;&lt;p role=&quot;presentation&quot; style=&quot;line-height:1.38;margin-top:0pt;margin-bottom:0pt;&quot; dir=&quot;ltr&quot;&gt;&lt;font style=&quot;font-size: 11px;&quot;&gt;&lt;span style=&quot;font-family: Arial, sans-serif; color: rgb(0, 0, 0); background-color: transparent; font-weight: 400; font-style: normal; font-variant: normal; text-decoration: none; vertical-align: baseline; white-space: pre-wrap;&quot;&gt;Cadastro da loja no início do programa&lt;/span&gt;&lt;/font&gt;&lt;/p&gt;&lt;/li&gt;&lt;li aria-level=&quot;1&quot; style=&quot;list-style-type: disc; font-family: Arial, sans-serif; color: rgb(0, 0, 0); background-color: transparent; font-weight: 400; font-style: normal; font-variant: normal; text-decoration: none; vertical-align: baseline; white-space: pre;&quot; dir=&quot;ltr&quot;&gt;&lt;p role=&quot;presentation&quot; style=&quot;line-height:1.38;margin-top:0pt;margin-bottom:0pt;&quot; dir=&quot;ltr&quot;&gt;&lt;font style=&quot;font-size: 11px;&quot;&gt;&lt;span style=&quot;font-family: Arial, sans-serif; color: rgb(0, 0, 0); background-color: transparent; font-weight: 400; font-style: normal; font-variant: normal; text-decoration: none; vertical-align: baseline; white-space: pre-wrap;&quot;&gt;Modo para alternância de usuário/loja&lt;/span&gt;&lt;/font&gt;&lt;/p&gt;&lt;/li&gt;&lt;li aria-level=&quot;1&quot; style=&quot;list-style-type: disc; font-family: Arial, sans-serif; color: rgb(0, 0, 0); background-color: transparent; font-weight: 400; font-style: normal; font-variant: normal; text-decoration: none; vertical-align: baseline; white-space: pre;&quot; dir=&quot;ltr&quot;&gt;&lt;p role=&quot;presentation&quot; style=&quot;line-height:1.38;margin-top:0pt;margin-bottom:0pt;&quot; dir=&quot;ltr&quot;&gt;&lt;font style=&quot;font-size: 11px;&quot;&gt;&lt;span style=&quot;font-family: Arial, sans-serif; color: rgb(0, 0, 0); background-color: transparent; font-weight: 400; font-style: normal; font-variant: normal; text-decoration: none; vertical-align: baseline; white-space: pre-wrap;&quot;&gt;Ícone de bicicleta no canto superior&lt;/span&gt;&lt;span style=&quot;font-family: Arial, sans-serif; color: rgb(0, 0, 0); background-color: transparent; font-weight: 400; font-style: normal; font-variant: normal; text-decoration: none; vertical-align: baseline; white-space: pre-wrap;&quot;&gt;🚲&lt;/span&gt;&lt;/font&gt;&lt;/p&gt;&lt;/li&gt;&lt;li aria-level=&quot;1&quot; style=&quot;list-style-type: disc; font-family: Arial, sans-serif; color: rgb(0, 0, 0); background-color: transparent; font-weight: 400; font-style: normal; font-variant: normal; text-decoration: none; vertical-align: baseline; white-space: pre;&quot; dir=&quot;ltr&quot;&gt;&lt;p role=&quot;presentation&quot; style=&quot;line-height:1.38;margin-top:0pt;margin-bottom:0pt;&quot; dir=&quot;ltr&quot;&gt;&lt;font style=&quot;font-size: 11px;&quot;&gt;&lt;span style=&quot;font-family: Arial, sans-serif; color: rgb(0, 0, 0); background-color: transparent; font-weight: 400; font-style: normal; font-variant: normal; text-decoration: none; vertical-align: baseline; white-space: pre-wrap;&quot;&gt;Interface de agendamentos&lt;/span&gt;&lt;/font&gt;&lt;/p&gt;&lt;/li&gt;&lt;/ul&gt;&lt;font style=&quot;font-size: 11px;&quot;&gt;&lt;br&gt;&lt;br&gt;&lt;/font&gt;" style="rounded=0;whiteSpace=wrap;html=1;" vertex="1" parent="1">
          <mxGeometry x="40" y="40" width="400" height="360" as="geometry" />
        </mxCell>
        <mxCell id="KNU0Fs-RdxI1QLgksmc8-2" value="&lt;div&gt;Um Sistema de Gerenciamento de Negócios para Bicicleta que visa ajudar na manutenção de uma loja independente de bicicletas, auxiliando no gerenciamento de estoque, agendamento de consertos e geração de relatórios básicos. Além de possuir uma lista de fornecedores disponíveis para reabastecimento do estoque, apenas para armazenar contatos e informações.&lt;/div&gt;&lt;div&gt;O sistema gera um relatório com data personalizada, que pode ser selecionada pelo usuário, registro de vendas com o cliente, agendamentos disponíveis e pendentes, além da visualização de estoque e itens.&lt;/div&gt;&lt;div&gt;Além de registro de clientes pelo lojista no registro de vendas, especificando o tipo de serviço que foi realizado: agendamento de conserto, agendamento da montagem de bicicleta ou venda de peças/bicicletas.&lt;/div&gt;&lt;div&gt;&lt;br&gt;&lt;/div&gt;&lt;div&gt;Para a loja, será necessário armazenar apenas o nome.&lt;/div&gt;&lt;div&gt;Para o cliente: nome, telefone e email.&lt;/div&gt;&lt;div&gt;Para os fornecedores: nome do fornecedor, telefone, email de contato e endereço.&lt;/div&gt;&lt;div&gt;Para os agendamentos: data, horário, tipo (conserto/montagem), valor e cliente que será atendido.&lt;/div&gt;&lt;div&gt;Para a bicicleta: nome, valor, peso, marca, altura, classificação (para adultos ou infantil ?), aro e cor.&lt;/div&gt;&lt;div&gt;Para as peças: nome, descrição, quantidade, valor e marca.&lt;br&gt;&lt;/div&gt;" style="rounded=0;whiteSpace=wrap;html=1;" vertex="1" parent="1">
          <mxGeometry x="462.25" y="40" width="357" height="360" as="geometry" />
        </mxCell>
        <mxCell id="KNU0Fs-RdxI1QLgksmc8-3" value="" style="html=1;dashed=0;whiteSpace=wrap;" vertex="1" parent="1">
          <mxGeometry x="290" y="430" width="100" height="50" as="geometry" />
        </mxCell>
        <mxCell id="KNU0Fs-RdxI1QLgksmc8-6" value="" style="edgeStyle=orthogonalEdgeStyle;rounded=0;orthogonalLoop=1;jettySize=auto;html=1;endArrow=oval;endFill=1;" edge="1" parent="1">
          <mxGeometry relative="1" as="geometry">
            <mxPoint x="530" y="444.40999999999997" as="sourcePoint" />
            <mxPoint x="610" y="444.40999999999997" as="targetPoint" />
          </mxGeometry>
        </mxCell>
        <mxCell id="KNU0Fs-RdxI1QLgksmc8-4" value="" style="shape=rhombus;html=1;dashed=0;whiteSpace=wrap;perimeter=rhombusPerimeter;" vertex="1" parent="1">
          <mxGeometry x="440" y="430" width="60" height="50" as="geometry" />
        </mxCell>
        <mxCell id="KNU0Fs-RdxI1QLgksmc8-7" value="" style="edgeStyle=orthogonalEdgeStyle;rounded=0;orthogonalLoop=1;jettySize=auto;html=1;endArrow=oval;endFill=0;" edge="1" parent="1">
          <mxGeometry relative="1" as="geometry">
            <mxPoint x="530" y="464.40999999999997" as="sourcePoint" />
            <mxPoint x="610" y="464.40999999999997" as="targetPoint" />
          </mxGeometry>
        </mxCell>
        <mxCell id="KNU0Fs-RdxI1QLgksmc8-8" value="" style="shape=process;whiteSpace=wrap;html=1;backgroundOutline=1;" vertex="1" parent="1">
          <mxGeometry x="3" y="1120" width="820" height="10" as="geometry" />
        </mxCell>
        <mxCell id="kIdhYQG7fLx8eibKCi9p-90" style="edgeStyle=orthogonalEdgeStyle;rounded=0;orthogonalLoop=1;jettySize=auto;html=1;endArrow=oval;endFill=0;" edge="1" parent="1" source="KNU0Fs-RdxI1QLgksmc8-9">
          <mxGeometry relative="1" as="geometry">
            <mxPoint x="132.5" y="1246" as="targetPoint" />
          </mxGeometry>
        </mxCell>
        <mxCell id="kIdhYQG7fLx8eibKCi9p-165" value="" style="edgeStyle=orthogonalEdgeStyle;rounded=0;orthogonalLoop=1;jettySize=auto;html=1;endArrow=none;endFill=0;" edge="1" parent="1" source="KNU0Fs-RdxI1QLgksmc8-9" target="kIdhYQG7fLx8eibKCi9p-164">
          <mxGeometry relative="1" as="geometry" />
        </mxCell>
        <mxCell id="kIdhYQG7fLx8eibKCi9p-175" value="" style="edgeStyle=orthogonalEdgeStyle;rounded=0;orthogonalLoop=1;jettySize=auto;html=1;endArrow=none;endFill=0;" edge="1" parent="1" source="KNU0Fs-RdxI1QLgksmc8-9" target="kIdhYQG7fLx8eibKCi9p-174">
          <mxGeometry relative="1" as="geometry" />
        </mxCell>
        <mxCell id="KNU0Fs-RdxI1QLgksmc8-9" value="&lt;div&gt;Loja&lt;/div&gt;" style="html=1;dashed=0;whiteSpace=wrap;" vertex="1" parent="1">
          <mxGeometry x="82.5" y="1267" width="100" height="50" as="geometry" />
        </mxCell>
        <mxCell id="KNU0Fs-RdxI1QLgksmc8-10" value="&lt;div&gt;Cliente&lt;/div&gt;" style="html=1;dashed=0;whiteSpace=wrap;" vertex="1" parent="1">
          <mxGeometry x="321" y="971" width="100" height="50" as="geometry" />
        </mxCell>
        <mxCell id="KNU0Fs-RdxI1QLgksmc8-120" value="" style="edgeStyle=orthogonalEdgeStyle;rounded=0;orthogonalLoop=1;jettySize=auto;html=1;endArrow=none;endFill=0;" edge="1" parent="1" source="KNU0Fs-RdxI1QLgksmc8-11" target="KNU0Fs-RdxI1QLgksmc8-87">
          <mxGeometry relative="1" as="geometry" />
        </mxCell>
        <mxCell id="KNU0Fs-RdxI1QLgksmc8-175" value="" style="edgeStyle=orthogonalEdgeStyle;rounded=0;orthogonalLoop=1;jettySize=auto;html=1;endArrow=none;endFill=0;" edge="1" parent="1" source="KNU0Fs-RdxI1QLgksmc8-11" target="KNU0Fs-RdxI1QLgksmc8-115">
          <mxGeometry relative="1" as="geometry" />
        </mxCell>
        <mxCell id="KNU0Fs-RdxI1QLgksmc8-11" value="&lt;div&gt;Fornecedor&lt;/div&gt;" style="html=1;dashed=0;whiteSpace=wrap;" vertex="1" parent="1">
          <mxGeometry x="-744.5" y="1295" width="100" height="50" as="geometry" />
        </mxCell>
        <mxCell id="KNU0Fs-RdxI1QLgksmc8-14" value="Peça" style="html=1;dashed=0;whiteSpace=wrap;" vertex="1" parent="1">
          <mxGeometry x="521.5" y="740" width="100" height="50" as="geometry" />
        </mxCell>
        <mxCell id="KNU0Fs-RdxI1QLgksmc8-15" value="agendar" style="shape=rhombus;html=1;dashed=0;whiteSpace=wrap;perimeter=rhombusPerimeter;" vertex="1" parent="1">
          <mxGeometry x="319" y="733" width="70" height="50" as="geometry" />
        </mxCell>
        <mxCell id="KNU0Fs-RdxI1QLgksmc8-17" value="" style="edgeStyle=orthogonalEdgeStyle;rounded=0;orthogonalLoop=1;jettySize=auto;html=1;endArrow=oval;endFill=1;exitX=0.25;exitY=0;exitDx=0;exitDy=0;" edge="1" parent="1" source="KNU0Fs-RdxI1QLgksmc8-9">
          <mxGeometry relative="1" as="geometry">
            <mxPoint x="92.5" y="1227" as="sourcePoint" />
            <mxPoint x="107.5" y="1227" as="targetPoint" />
          </mxGeometry>
        </mxCell>
        <mxCell id="KNU0Fs-RdxI1QLgksmc8-18" value="id_loja" style="text;html=1;align=center;verticalAlign=middle;resizable=0;points=[];autosize=1;strokeColor=none;fillColor=none;fontSize=10;" vertex="1" parent="1">
          <mxGeometry x="104.5" y="1211" width="50" height="30" as="geometry" />
        </mxCell>
        <mxCell id="KNU0Fs-RdxI1QLgksmc8-19" value="" style="edgeStyle=orthogonalEdgeStyle;rounded=0;orthogonalLoop=1;jettySize=auto;html=1;endArrow=oval;endFill=1;exitX=0.068;exitY=0.003;exitDx=0;exitDy=0;exitPerimeter=0;" edge="1" parent="1" source="KNU0Fs-RdxI1QLgksmc8-10">
          <mxGeometry relative="1" as="geometry">
            <mxPoint x="321" y="945.76" as="sourcePoint" />
            <mxPoint x="328" y="901" as="targetPoint" />
          </mxGeometry>
        </mxCell>
        <mxCell id="KNU0Fs-RdxI1QLgksmc8-20" value="id_cliente" style="text;html=1;align=center;verticalAlign=middle;resizable=0;points=[];autosize=1;strokeColor=none;fillColor=none;fontSize=10;" vertex="1" parent="1">
          <mxGeometry x="320" y="885" width="70" height="30" as="geometry" />
        </mxCell>
        <mxCell id="KNU0Fs-RdxI1QLgksmc8-21" value="" style="edgeStyle=orthogonalEdgeStyle;rounded=0;orthogonalLoop=1;jettySize=auto;html=1;endArrow=oval;endFill=0;exitX=0.25;exitY=0;exitDx=0;exitDy=0;" edge="1" parent="1" source="KNU0Fs-RdxI1QLgksmc8-10">
          <mxGeometry relative="1" as="geometry">
            <mxPoint x="361" y="951" as="sourcePoint" />
            <mxPoint x="346" y="921" as="targetPoint" />
          </mxGeometry>
        </mxCell>
        <mxCell id="KNU0Fs-RdxI1QLgksmc8-22" value="&lt;font style=&quot;font-size: 10px;&quot;&gt;Nome&lt;/font&gt;" style="text;html=1;align=center;verticalAlign=middle;resizable=0;points=[];autosize=1;strokeColor=none;fillColor=none;" vertex="1" parent="1">
          <mxGeometry x="340" y="904" width="50" height="30" as="geometry" />
        </mxCell>
        <mxCell id="KNU0Fs-RdxI1QLgksmc8-23" value="" style="edgeStyle=orthogonalEdgeStyle;rounded=0;orthogonalLoop=1;jettySize=auto;html=1;endArrow=oval;endFill=0;exitX=0.401;exitY=0.01;exitDx=0;exitDy=0;exitPerimeter=0;" edge="1" parent="1" source="KNU0Fs-RdxI1QLgksmc8-10">
          <mxGeometry relative="1" as="geometry">
            <mxPoint x="451" y="941" as="sourcePoint" />
            <mxPoint x="361" y="941" as="targetPoint" />
          </mxGeometry>
        </mxCell>
        <mxCell id="KNU0Fs-RdxI1QLgksmc8-24" value="&lt;font style=&quot;font-size: 10px;&quot;&gt;Telefone&lt;/font&gt;" style="text;html=1;align=center;verticalAlign=middle;resizable=0;points=[];autosize=1;strokeColor=none;fillColor=none;" vertex="1" parent="1">
          <mxGeometry x="352" y="924" width="70" height="30" as="geometry" />
        </mxCell>
        <mxCell id="KNU0Fs-RdxI1QLgksmc8-25" value="" style="edgeStyle=orthogonalEdgeStyle;rounded=0;orthogonalLoop=1;jettySize=auto;html=1;endArrow=oval;endFill=0;exitX=0.529;exitY=-0.009;exitDx=0;exitDy=0;exitPerimeter=0;" edge="1" parent="1" source="KNU0Fs-RdxI1QLgksmc8-10">
          <mxGeometry relative="1" as="geometry">
            <mxPoint x="371" y="961" as="sourcePoint" />
            <mxPoint x="374" y="961" as="targetPoint" />
          </mxGeometry>
        </mxCell>
        <mxCell id="KNU0Fs-RdxI1QLgksmc8-26" value="&lt;font style=&quot;font-size: 10px;&quot;&gt;Email&lt;/font&gt;" style="text;html=1;align=center;verticalAlign=middle;resizable=0;points=[];autosize=1;strokeColor=none;fillColor=none;" vertex="1" parent="1">
          <mxGeometry x="368" y="944" width="50" height="30" as="geometry" />
        </mxCell>
        <mxCell id="KNU0Fs-RdxI1QLgksmc8-27" value="" style="edgeStyle=orthogonalEdgeStyle;rounded=0;orthogonalLoop=1;jettySize=auto;html=1;endArrow=oval;endFill=1;fontSize=10;" edge="1" parent="1">
          <mxGeometry relative="1" as="geometry">
            <mxPoint x="-734.5" y="1295" as="sourcePoint" />
            <mxPoint x="-734.5" y="1215" as="targetPoint" />
          </mxGeometry>
        </mxCell>
        <mxCell id="KNU0Fs-RdxI1QLgksmc8-28" value="" style="edgeStyle=orthogonalEdgeStyle;rounded=0;orthogonalLoop=1;jettySize=auto;html=1;endArrow=oval;endFill=0;exitX=0.5;exitY=0;exitDx=0;exitDy=0;fontSize=10;" edge="1" parent="1" source="KNU0Fs-RdxI1QLgksmc8-11">
          <mxGeometry relative="1" as="geometry">
            <mxPoint x="-704.5" y="1245" as="sourcePoint" />
            <mxPoint x="-694.5" y="1255" as="targetPoint" />
          </mxGeometry>
        </mxCell>
        <mxCell id="KNU0Fs-RdxI1QLgksmc8-29" value="" style="edgeStyle=orthogonalEdgeStyle;rounded=0;orthogonalLoop=1;jettySize=auto;html=1;endArrow=oval;endFill=0;exitX=0.302;exitY=0.012;exitDx=0;exitDy=0;exitPerimeter=0;fontSize=10;" edge="1" parent="1" source="KNU0Fs-RdxI1QLgksmc8-11">
          <mxGeometry relative="1" as="geometry">
            <mxPoint x="-714.5" y="1295" as="sourcePoint" />
            <mxPoint x="-714.5" y="1235" as="targetPoint" />
          </mxGeometry>
        </mxCell>
        <mxCell id="KNU0Fs-RdxI1QLgksmc8-30" value="" style="edgeStyle=orthogonalEdgeStyle;rounded=0;orthogonalLoop=1;jettySize=auto;html=1;endArrow=oval;endFill=0;exitX=0.702;exitY=0.012;exitDx=0;exitDy=0;exitPerimeter=0;fontSize=10;" edge="1" parent="1" source="KNU0Fs-RdxI1QLgksmc8-11">
          <mxGeometry relative="1" as="geometry">
            <mxPoint x="-674.5" y="1295" as="sourcePoint" />
            <mxPoint x="-674.5" y="1275" as="targetPoint" />
          </mxGeometry>
        </mxCell>
        <mxCell id="KNU0Fs-RdxI1QLgksmc8-31" value="" style="edgeStyle=orthogonalEdgeStyle;rounded=0;orthogonalLoop=1;jettySize=auto;html=1;endArrow=oval;endFill=0;exitX=0.899;exitY=0.012;exitDx=0;exitDy=0;exitPerimeter=0;fontSize=10;" edge="1" parent="1" source="KNU0Fs-RdxI1QLgksmc8-11">
          <mxGeometry relative="1" as="geometry">
            <mxPoint x="-654.5" y="1295" as="sourcePoint" />
            <mxPoint x="-654.5" y="1285" as="targetPoint" />
          </mxGeometry>
        </mxCell>
        <mxCell id="KNU0Fs-RdxI1QLgksmc8-32" value="&lt;font style=&quot;font-size: 10px;&quot;&gt;id_fornecedor&lt;/font&gt;" style="text;html=1;align=center;verticalAlign=middle;resizable=0;points=[];autosize=1;strokeColor=none;fillColor=none;fontSize=10;" vertex="1" parent="1">
          <mxGeometry x="-741.5" y="1197" width="90" height="30" as="geometry" />
        </mxCell>
        <mxCell id="KNU0Fs-RdxI1QLgksmc8-33" value="&lt;font style=&quot;font-size: 10px;&quot;&gt;Nome&lt;/font&gt;" style="text;html=1;align=center;verticalAlign=middle;resizable=0;points=[];autosize=1;strokeColor=none;fillColor=none;fontSize=10;" vertex="1" parent="1">
          <mxGeometry x="-720.5" y="1218" width="50" height="30" as="geometry" />
        </mxCell>
        <mxCell id="KNU0Fs-RdxI1QLgksmc8-34" value="&lt;font style=&quot;font-size: 10px;&quot;&gt;Telefone&lt;/font&gt;" style="text;html=1;align=center;verticalAlign=middle;resizable=0;points=[];autosize=1;strokeColor=none;fillColor=none;fontSize=10;" vertex="1" parent="1">
          <mxGeometry x="-704.5" y="1238" width="70" height="30" as="geometry" />
        </mxCell>
        <mxCell id="KNU0Fs-RdxI1QLgksmc8-37" value="&lt;font style=&quot;font-size: 10px;&quot;&gt;Email&lt;/font&gt;" style="text;html=1;align=center;verticalAlign=middle;resizable=0;points=[];autosize=1;strokeColor=none;fillColor=none;fontSize=10;" vertex="1" parent="1">
          <mxGeometry x="-680.5" y="1258" width="50" height="30" as="geometry" />
        </mxCell>
        <mxCell id="KNU0Fs-RdxI1QLgksmc8-38" value="&lt;font style=&quot;font-size: 10px;&quot;&gt;Endereço&lt;/font&gt;" style="text;html=1;align=center;verticalAlign=middle;resizable=0;points=[];autosize=1;strokeColor=none;fillColor=none;fontSize=10;" vertex="1" parent="1">
          <mxGeometry x="-663.5" y="1269" width="70" height="30" as="geometry" />
        </mxCell>
        <mxCell id="KNU0Fs-RdxI1QLgksmc8-39" value="" style="edgeStyle=orthogonalEdgeStyle;rounded=0;orthogonalLoop=1;jettySize=auto;html=1;endArrow=oval;endFill=1;exitX=0;exitY=0;exitDx=0;exitDy=0;" edge="1" parent="1" source="KNU0Fs-RdxI1QLgksmc8-16">
          <mxGeometry relative="1" as="geometry">
            <mxPoint x="329" y="691" as="sourcePoint" />
            <mxPoint x="319" y="631" as="targetPoint" />
          </mxGeometry>
        </mxCell>
        <mxCell id="KNU0Fs-RdxI1QLgksmc8-40" value="&lt;font style=&quot;font-size: 10px;&quot;&gt;id_agendamento&lt;/font&gt;" style="text;html=1;align=center;verticalAlign=middle;resizable=0;points=[];autosize=1;strokeColor=none;fillColor=none;" vertex="1" parent="1">
          <mxGeometry x="314" y="614" width="100" height="30" as="geometry" />
        </mxCell>
        <mxCell id="KNU0Fs-RdxI1QLgksmc8-41" value="" style="edgeStyle=orthogonalEdgeStyle;rounded=0;orthogonalLoop=1;jettySize=auto;html=1;endArrow=oval;endFill=0;exitX=0.14;exitY=0.002;exitDx=0;exitDy=0;exitPerimeter=0;" edge="1" parent="1" source="KNU0Fs-RdxI1QLgksmc8-16">
          <mxGeometry relative="1" as="geometry">
            <mxPoint x="329" y="691" as="sourcePoint" />
            <mxPoint x="329" y="651" as="targetPoint" />
          </mxGeometry>
        </mxCell>
        <mxCell id="KNU0Fs-RdxI1QLgksmc8-42" value="" style="edgeStyle=orthogonalEdgeStyle;rounded=0;orthogonalLoop=1;jettySize=auto;html=1;endArrow=oval;endFill=0;exitX=0.284;exitY=0.002;exitDx=0;exitDy=0;exitPerimeter=0;" edge="1" parent="1" source="KNU0Fs-RdxI1QLgksmc8-16">
          <mxGeometry relative="1" as="geometry">
            <mxPoint x="339" y="726" as="sourcePoint" />
            <mxPoint x="339" y="671" as="targetPoint" />
          </mxGeometry>
        </mxCell>
        <mxCell id="KNU0Fs-RdxI1QLgksmc8-43" value="" style="edgeStyle=orthogonalEdgeStyle;rounded=0;orthogonalLoop=1;jettySize=auto;html=1;endArrow=oval;endFill=0;exitX=0.426;exitY=0.006;exitDx=0;exitDy=0;exitPerimeter=0;" edge="1" parent="1" source="KNU0Fs-RdxI1QLgksmc8-16">
          <mxGeometry relative="1" as="geometry">
            <mxPoint x="349" y="711" as="sourcePoint" />
            <mxPoint x="349" y="691" as="targetPoint" />
          </mxGeometry>
        </mxCell>
        <mxCell id="KNU0Fs-RdxI1QLgksmc8-44" value="" style="edgeStyle=orthogonalEdgeStyle;rounded=0;orthogonalLoop=1;jettySize=auto;html=1;endArrow=oval;endFill=0;" edge="1" parent="1">
          <mxGeometry relative="1" as="geometry">
            <mxPoint x="359" y="733" as="sourcePoint" />
            <mxPoint x="359" y="711" as="targetPoint" />
          </mxGeometry>
        </mxCell>
        <mxCell id="KNU0Fs-RdxI1QLgksmc8-45" value="&lt;font style=&quot;font-size: 10px;&quot;&gt;Data&lt;/font&gt;" style="text;html=1;align=center;verticalAlign=middle;resizable=0;points=[];autosize=1;strokeColor=none;fillColor=none;fontSize=10;" vertex="1" parent="1">
          <mxGeometry x="320" y="635" width="50" height="30" as="geometry" />
        </mxCell>
        <mxCell id="KNU0Fs-RdxI1QLgksmc8-46" value="&lt;font style=&quot;font-size: 10px;&quot;&gt;Horário&lt;/font&gt;" style="text;html=1;align=center;verticalAlign=middle;resizable=0;points=[];autosize=1;strokeColor=none;fillColor=none;fontSize=10;" vertex="1" parent="1">
          <mxGeometry x="330" y="655" width="60" height="30" as="geometry" />
        </mxCell>
        <mxCell id="KNU0Fs-RdxI1QLgksmc8-47" value="&lt;font style=&quot;font-size: 10px;&quot;&gt;Tipo de agendamento&lt;/font&gt;" style="text;html=1;align=center;verticalAlign=middle;resizable=0;points=[];autosize=1;strokeColor=none;fillColor=none;fontSize=10;" vertex="1" parent="1">
          <mxGeometry x="340" y="674" width="130" height="30" as="geometry" />
        </mxCell>
        <mxCell id="KNU0Fs-RdxI1QLgksmc8-48" value="" style="edgeStyle=orthogonalEdgeStyle;rounded=0;orthogonalLoop=1;jettySize=auto;html=1;endArrow=oval;endFill=0;exitX=0.731;exitY=0.012;exitDx=0;exitDy=0;exitPerimeter=0;entryX=0.32;entryY=1.037;entryDx=0;entryDy=0;entryPerimeter=0;" edge="1" parent="1" source="KNU0Fs-RdxI1QLgksmc8-16" target="KNU0Fs-RdxI1QLgksmc8-49">
          <mxGeometry relative="1" as="geometry">
            <mxPoint x="370" y="731" as="sourcePoint" />
            <mxPoint x="370" y="721" as="targetPoint" />
          </mxGeometry>
        </mxCell>
        <mxCell id="KNU0Fs-RdxI1QLgksmc8-49" value="&lt;font style=&quot;font-size: 10px;&quot;&gt;Cliente&lt;/font&gt;" style="text;html=1;align=center;verticalAlign=middle;resizable=0;points=[];autosize=1;strokeColor=none;fillColor=none;fontSize=10;" vertex="1" parent="1">
          <mxGeometry x="351" y="695" width="60" height="30" as="geometry" />
        </mxCell>
        <mxCell id="KNU0Fs-RdxI1QLgksmc8-51" value="&lt;font style=&quot;font-size: 10px;&quot;&gt;Valor&lt;/font&gt;" style="text;html=1;align=center;verticalAlign=middle;resizable=0;points=[];autosize=1;strokeColor=none;fillColor=none;" vertex="1" parent="1">
          <mxGeometry x="361" y="709" width="50" height="30" as="geometry" />
        </mxCell>
        <mxCell id="KNU0Fs-RdxI1QLgksmc8-73" value="" style="edgeStyle=orthogonalEdgeStyle;rounded=0;orthogonalLoop=1;jettySize=auto;html=1;endArrow=oval;endFill=1;exitX=0.153;exitY=-0.025;exitDx=0;exitDy=0;exitPerimeter=0;" edge="1" parent="1" source="KNU0Fs-RdxI1QLgksmc8-14">
          <mxGeometry relative="1" as="geometry">
            <mxPoint x="561.5" y="680" as="sourcePoint" />
            <mxPoint x="536.5" y="630" as="targetPoint" />
          </mxGeometry>
        </mxCell>
        <mxCell id="KNU0Fs-RdxI1QLgksmc8-74" value="&lt;div style=&quot;font-size: 10px;&quot;&gt;id_pecas&lt;/div&gt;" style="text;html=1;align=center;verticalAlign=middle;resizable=0;points=[];autosize=1;strokeColor=none;fillColor=none;fontSize=10;" vertex="1" parent="1">
          <mxGeometry x="527.5" y="614" width="70" height="30" as="geometry" />
        </mxCell>
        <mxCell id="KNU0Fs-RdxI1QLgksmc8-75" value="Nome" style="text;html=1;align=center;verticalAlign=middle;resizable=0;points=[];autosize=1;strokeColor=none;fillColor=none;fontSize=10;" vertex="1" parent="1">
          <mxGeometry x="548.5" y="635" width="50" height="30" as="geometry" />
        </mxCell>
        <mxCell id="KNU0Fs-RdxI1QLgksmc8-76" value="Quantidade" style="text;html=1;align=center;verticalAlign=middle;resizable=0;points=[];autosize=1;strokeColor=none;fillColor=none;fontSize=10;" vertex="1" parent="1">
          <mxGeometry x="575.5" y="675" width="80" height="30" as="geometry" />
        </mxCell>
        <mxCell id="KNU0Fs-RdxI1QLgksmc8-77" value="Valor" style="text;html=1;align=center;verticalAlign=middle;resizable=0;points=[];autosize=1;strokeColor=none;fillColor=none;fontSize=10;" vertex="1" parent="1">
          <mxGeometry x="585.5" y="696" width="50" height="30" as="geometry" />
        </mxCell>
        <mxCell id="KNU0Fs-RdxI1QLgksmc8-78" value="Marca" style="text;html=1;align=center;verticalAlign=middle;resizable=0;points=[];autosize=1;strokeColor=none;fillColor=none;fontSize=10;" vertex="1" parent="1">
          <mxGeometry x="561.5" y="655" width="50" height="30" as="geometry" />
        </mxCell>
        <mxCell id="KNU0Fs-RdxI1QLgksmc8-79" value="&lt;div style=&quot;font-size: 10px;&quot;&gt;Descrição&lt;/div&gt;" style="text;html=1;align=center;verticalAlign=middle;resizable=0;points=[];autosize=1;strokeColor=none;fillColor=none;fontSize=10;" vertex="1" parent="1">
          <mxGeometry x="598.5" y="715" width="70" height="30" as="geometry" />
        </mxCell>
        <mxCell id="KNU0Fs-RdxI1QLgksmc8-80" value="" style="edgeStyle=orthogonalEdgeStyle;rounded=0;orthogonalLoop=1;jettySize=auto;html=1;endArrow=oval;endFill=0;exitX=0.315;exitY=0.019;exitDx=0;exitDy=0;exitPerimeter=0;" edge="1" parent="1" source="KNU0Fs-RdxI1QLgksmc8-14">
          <mxGeometry relative="1" as="geometry">
            <mxPoint x="561.5" y="700" as="sourcePoint" />
            <mxPoint x="553.5" y="650" as="targetPoint" />
          </mxGeometry>
        </mxCell>
        <mxCell id="KNU0Fs-RdxI1QLgksmc8-81" value="" style="edgeStyle=orthogonalEdgeStyle;rounded=0;orthogonalLoop=1;jettySize=auto;html=1;endArrow=oval;endFill=0;exitX=0.45;exitY=0.019;exitDx=0;exitDy=0;exitPerimeter=0;" edge="1" parent="1" source="KNU0Fs-RdxI1QLgksmc8-14">
          <mxGeometry relative="1" as="geometry">
            <mxPoint x="581.5" y="690" as="sourcePoint" />
            <mxPoint x="566.5" y="670" as="targetPoint" />
          </mxGeometry>
        </mxCell>
        <mxCell id="KNU0Fs-RdxI1QLgksmc8-82" value="" style="edgeStyle=orthogonalEdgeStyle;rounded=0;orthogonalLoop=1;jettySize=auto;html=1;endArrow=oval;endFill=0;" edge="1" parent="1">
          <mxGeometry relative="1" as="geometry">
            <mxPoint x="581.5" y="740" as="sourcePoint" />
            <mxPoint x="581.5" y="690" as="targetPoint" />
          </mxGeometry>
        </mxCell>
        <mxCell id="KNU0Fs-RdxI1QLgksmc8-83" value="" style="edgeStyle=orthogonalEdgeStyle;rounded=0;orthogonalLoop=1;jettySize=auto;html=1;endArrow=oval;endFill=0;exitX=0.724;exitY=-0.009;exitDx=0;exitDy=0;exitPerimeter=0;" edge="1" parent="1" source="KNU0Fs-RdxI1QLgksmc8-14">
          <mxGeometry relative="1" as="geometry">
            <mxPoint x="591.5" y="710" as="sourcePoint" />
            <mxPoint x="593.5" y="710" as="targetPoint" />
          </mxGeometry>
        </mxCell>
        <mxCell id="KNU0Fs-RdxI1QLgksmc8-84" value="" style="edgeStyle=orthogonalEdgeStyle;rounded=0;orthogonalLoop=1;jettySize=auto;html=1;endArrow=oval;endFill=0;exitX=0.845;exitY=0.01;exitDx=0;exitDy=0;exitPerimeter=0;" edge="1" parent="1" source="KNU0Fs-RdxI1QLgksmc8-14">
          <mxGeometry relative="1" as="geometry">
            <mxPoint x="611.5" y="720" as="sourcePoint" />
            <mxPoint x="605.5" y="730" as="targetPoint" />
          </mxGeometry>
        </mxCell>
        <mxCell id="KNU0Fs-RdxI1QLgksmc8-121" value="" style="edgeStyle=orthogonalEdgeStyle;rounded=0;orthogonalLoop=1;jettySize=auto;html=1;endArrow=none;endFill=0;" edge="1" parent="1" source="KNU0Fs-RdxI1QLgksmc8-87" target="KNU0Fs-RdxI1QLgksmc8-88">
          <mxGeometry relative="1" as="geometry" />
        </mxCell>
        <mxCell id="KNU0Fs-RdxI1QLgksmc8-87" value="contacta" style="shape=rhombus;html=1;dashed=0;whiteSpace=wrap;perimeter=rhombusPerimeter;" vertex="1" parent="1">
          <mxGeometry x="-724.5" y="1450" width="60" height="50" as="geometry" />
        </mxCell>
        <mxCell id="P3hBLRIRSL_TV0yG0XCQ-7" value="" style="edgeStyle=orthogonalEdgeStyle;rounded=0;orthogonalLoop=1;jettySize=auto;html=1;endArrow=oval;endFill=0;exitX=1;exitY=0.75;exitDx=0;exitDy=0;" edge="1" parent="1" source="KNU0Fs-RdxI1QLgksmc8-88">
          <mxGeometry relative="1" as="geometry">
            <mxPoint x="-339" y="1488" as="targetPoint" />
            <Array as="points">
              <mxPoint x="-339" y="1488" />
            </Array>
          </mxGeometry>
        </mxCell>
        <mxCell id="KNU0Fs-RdxI1QLgksmc8-88" value="&lt;div&gt;Loja&lt;/div&gt;" style="html=1;dashed=0;whiteSpace=wrap;" vertex="1" parent="1">
          <mxGeometry x="-472.5" y="1450" width="100" height="50" as="geometry" />
        </mxCell>
        <mxCell id="KNU0Fs-RdxI1QLgksmc8-89" value="" style="edgeStyle=orthogonalEdgeStyle;rounded=0;orthogonalLoop=1;jettySize=auto;html=1;endArrow=oval;endFill=1;exitX=1;exitY=0.2;exitDx=0;exitDy=0;exitPerimeter=0;" edge="1" parent="1" source="KNU0Fs-RdxI1QLgksmc8-88">
          <mxGeometry relative="1" as="geometry">
            <mxPoint x="-748" y="1537.5" as="sourcePoint" />
            <mxPoint x="-344" y="1460" as="targetPoint" />
            <Array as="points">
              <mxPoint x="-354" y="1460" />
              <mxPoint x="-354" y="1460" />
            </Array>
          </mxGeometry>
        </mxCell>
        <mxCell id="KNU0Fs-RdxI1QLgksmc8-90" value="Nome" style="text;html=1;align=center;verticalAlign=middle;resizable=0;points=[];autosize=1;strokeColor=none;fillColor=none;fontSize=10;" vertex="1" parent="1">
          <mxGeometry x="-344.5" y="1473" width="50" height="30" as="geometry" />
        </mxCell>
        <mxCell id="KNU0Fs-RdxI1QLgksmc8-91" value="&lt;div&gt;Fornecedor&lt;/div&gt;" style="html=1;dashed=0;whiteSpace=wrap;" vertex="1" parent="1">
          <mxGeometry x="521.5" y="983" width="100" height="50" as="geometry" />
        </mxCell>
        <mxCell id="KNU0Fs-RdxI1QLgksmc8-92" value="" style="edgeStyle=orthogonalEdgeStyle;rounded=0;orthogonalLoop=1;jettySize=auto;html=1;endArrow=oval;endFill=1;fontSize=10;" edge="1" parent="1">
          <mxGeometry relative="1" as="geometry">
            <mxPoint x="531.5" y="983" as="sourcePoint" />
            <mxPoint x="531.5" y="903" as="targetPoint" />
          </mxGeometry>
        </mxCell>
        <mxCell id="KNU0Fs-RdxI1QLgksmc8-93" value="" style="edgeStyle=orthogonalEdgeStyle;rounded=0;orthogonalLoop=1;jettySize=auto;html=1;endArrow=oval;endFill=0;exitX=0.5;exitY=0;exitDx=0;exitDy=0;fontSize=10;" edge="1" parent="1" source="KNU0Fs-RdxI1QLgksmc8-91">
          <mxGeometry relative="1" as="geometry">
            <mxPoint x="561.5" y="933" as="sourcePoint" />
            <mxPoint x="571.5" y="943" as="targetPoint" />
          </mxGeometry>
        </mxCell>
        <mxCell id="KNU0Fs-RdxI1QLgksmc8-94" value="" style="edgeStyle=orthogonalEdgeStyle;rounded=0;orthogonalLoop=1;jettySize=auto;html=1;endArrow=oval;endFill=0;exitX=0.302;exitY=0.012;exitDx=0;exitDy=0;exitPerimeter=0;fontSize=10;" edge="1" parent="1" source="KNU0Fs-RdxI1QLgksmc8-91">
          <mxGeometry relative="1" as="geometry">
            <mxPoint x="551.5" y="983" as="sourcePoint" />
            <mxPoint x="551.5" y="923" as="targetPoint" />
          </mxGeometry>
        </mxCell>
        <mxCell id="KNU0Fs-RdxI1QLgksmc8-95" value="" style="edgeStyle=orthogonalEdgeStyle;rounded=0;orthogonalLoop=1;jettySize=auto;html=1;endArrow=oval;endFill=0;exitX=0.702;exitY=0.012;exitDx=0;exitDy=0;exitPerimeter=0;fontSize=10;" edge="1" parent="1" source="KNU0Fs-RdxI1QLgksmc8-91">
          <mxGeometry relative="1" as="geometry">
            <mxPoint x="591.5" y="983" as="sourcePoint" />
            <mxPoint x="591.5" y="963" as="targetPoint" />
          </mxGeometry>
        </mxCell>
        <mxCell id="KNU0Fs-RdxI1QLgksmc8-96" value="" style="edgeStyle=orthogonalEdgeStyle;rounded=0;orthogonalLoop=1;jettySize=auto;html=1;endArrow=oval;endFill=0;exitX=0.899;exitY=0.012;exitDx=0;exitDy=0;exitPerimeter=0;fontSize=10;" edge="1" parent="1" source="KNU0Fs-RdxI1QLgksmc8-91">
          <mxGeometry relative="1" as="geometry">
            <mxPoint x="611.5" y="983" as="sourcePoint" />
            <mxPoint x="611.5" y="973" as="targetPoint" />
          </mxGeometry>
        </mxCell>
        <mxCell id="KNU0Fs-RdxI1QLgksmc8-97" value="&lt;font style=&quot;font-size: 10px;&quot;&gt;id_fornecedor&lt;/font&gt;" style="text;html=1;align=center;verticalAlign=middle;resizable=0;points=[];autosize=1;strokeColor=none;fillColor=none;fontSize=10;" vertex="1" parent="1">
          <mxGeometry x="524.5" y="885" width="90" height="30" as="geometry" />
        </mxCell>
        <mxCell id="KNU0Fs-RdxI1QLgksmc8-98" value="&lt;font style=&quot;font-size: 10px;&quot;&gt;Nome&lt;/font&gt;" style="text;html=1;align=center;verticalAlign=middle;resizable=0;points=[];autosize=1;strokeColor=none;fillColor=none;fontSize=10;" vertex="1" parent="1">
          <mxGeometry x="545.5" y="906" width="50" height="30" as="geometry" />
        </mxCell>
        <mxCell id="KNU0Fs-RdxI1QLgksmc8-99" value="&lt;font style=&quot;font-size: 10px;&quot;&gt;Telefone&lt;/font&gt;" style="text;html=1;align=center;verticalAlign=middle;resizable=0;points=[];autosize=1;strokeColor=none;fillColor=none;fontSize=10;" vertex="1" parent="1">
          <mxGeometry x="561.5" y="926" width="70" height="30" as="geometry" />
        </mxCell>
        <mxCell id="KNU0Fs-RdxI1QLgksmc8-100" value="&lt;font style=&quot;font-size: 10px;&quot;&gt;Email&lt;/font&gt;" style="text;html=1;align=center;verticalAlign=middle;resizable=0;points=[];autosize=1;strokeColor=none;fillColor=none;fontSize=10;" vertex="1" parent="1">
          <mxGeometry x="585.5" y="946" width="50" height="30" as="geometry" />
        </mxCell>
        <mxCell id="KNU0Fs-RdxI1QLgksmc8-101" value="&lt;font style=&quot;font-size: 10px;&quot;&gt;Endereço&lt;/font&gt;" style="text;html=1;align=center;verticalAlign=middle;resizable=0;points=[];autosize=1;strokeColor=none;fillColor=none;fontSize=10;" vertex="1" parent="1">
          <mxGeometry x="602.5" y="957" width="70" height="30" as="geometry" />
        </mxCell>
        <mxCell id="KNU0Fs-RdxI1QLgksmc8-102" value="" style="edgeStyle=orthogonalEdgeStyle;rounded=0;orthogonalLoop=1;jettySize=auto;html=1;endArrow=oval;endFill=1;exitX=0.153;exitY=-0.025;exitDx=0;exitDy=0;exitPerimeter=0;" edge="1" parent="1" source="KNU0Fs-RdxI1QLgksmc8-108">
          <mxGeometry relative="1" as="geometry">
            <mxPoint x="-384" y="1235" as="sourcePoint" />
            <mxPoint x="-409" y="1185" as="targetPoint" />
          </mxGeometry>
        </mxCell>
        <mxCell id="KNU0Fs-RdxI1QLgksmc8-103" value="" style="edgeStyle=orthogonalEdgeStyle;rounded=0;orthogonalLoop=1;jettySize=auto;html=1;endArrow=oval;endFill=0;exitX=0.315;exitY=0.019;exitDx=0;exitDy=0;exitPerimeter=0;" edge="1" parent="1" source="KNU0Fs-RdxI1QLgksmc8-108">
          <mxGeometry relative="1" as="geometry">
            <mxPoint x="-384" y="1255" as="sourcePoint" />
            <mxPoint x="-392" y="1205" as="targetPoint" />
          </mxGeometry>
        </mxCell>
        <mxCell id="KNU0Fs-RdxI1QLgksmc8-104" value="" style="edgeStyle=orthogonalEdgeStyle;rounded=0;orthogonalLoop=1;jettySize=auto;html=1;endArrow=oval;endFill=0;exitX=0.45;exitY=0.019;exitDx=0;exitDy=0;exitPerimeter=0;" edge="1" parent="1" source="KNU0Fs-RdxI1QLgksmc8-108">
          <mxGeometry relative="1" as="geometry">
            <mxPoint x="-364" y="1245" as="sourcePoint" />
            <mxPoint x="-379" y="1225" as="targetPoint" />
          </mxGeometry>
        </mxCell>
        <mxCell id="KNU0Fs-RdxI1QLgksmc8-105" value="" style="edgeStyle=orthogonalEdgeStyle;rounded=0;orthogonalLoop=1;jettySize=auto;html=1;endArrow=oval;endFill=0;" edge="1" parent="1">
          <mxGeometry relative="1" as="geometry">
            <mxPoint x="-364" y="1295" as="sourcePoint" />
            <mxPoint x="-364" y="1245" as="targetPoint" />
          </mxGeometry>
        </mxCell>
        <mxCell id="KNU0Fs-RdxI1QLgksmc8-106" value="" style="edgeStyle=orthogonalEdgeStyle;rounded=0;orthogonalLoop=1;jettySize=auto;html=1;endArrow=oval;endFill=0;exitX=0.724;exitY=-0.009;exitDx=0;exitDy=0;exitPerimeter=0;" edge="1" parent="1" source="KNU0Fs-RdxI1QLgksmc8-108">
          <mxGeometry relative="1" as="geometry">
            <mxPoint x="-354" y="1265" as="sourcePoint" />
            <mxPoint x="-352" y="1265" as="targetPoint" />
          </mxGeometry>
        </mxCell>
        <mxCell id="KNU0Fs-RdxI1QLgksmc8-107" value="" style="edgeStyle=orthogonalEdgeStyle;rounded=0;orthogonalLoop=1;jettySize=auto;html=1;endArrow=oval;endFill=0;exitX=0.845;exitY=0.01;exitDx=0;exitDy=0;exitPerimeter=0;" edge="1" parent="1" source="KNU0Fs-RdxI1QLgksmc8-108">
          <mxGeometry relative="1" as="geometry">
            <mxPoint x="-334" y="1275" as="sourcePoint" />
            <mxPoint x="-340" y="1285" as="targetPoint" />
          </mxGeometry>
        </mxCell>
        <mxCell id="KNU0Fs-RdxI1QLgksmc8-108" value="Peça" style="html=1;dashed=0;whiteSpace=wrap;" vertex="1" parent="1">
          <mxGeometry x="-424" y="1295" width="100" height="50" as="geometry" />
        </mxCell>
        <mxCell id="KNU0Fs-RdxI1QLgksmc8-109" value="&lt;div style=&quot;font-size: 10px;&quot;&gt;id_pecas&lt;/div&gt;" style="text;html=1;align=center;verticalAlign=middle;resizable=0;points=[];autosize=1;strokeColor=none;fillColor=none;fontSize=10;" vertex="1" parent="1">
          <mxGeometry x="-418" y="1169" width="70" height="30" as="geometry" />
        </mxCell>
        <mxCell id="KNU0Fs-RdxI1QLgksmc8-110" value="Nome" style="text;html=1;align=center;verticalAlign=middle;resizable=0;points=[];autosize=1;strokeColor=none;fillColor=none;fontSize=10;" vertex="1" parent="1">
          <mxGeometry x="-397" y="1190" width="50" height="30" as="geometry" />
        </mxCell>
        <mxCell id="KNU0Fs-RdxI1QLgksmc8-111" value="Quantidade" style="text;html=1;align=center;verticalAlign=middle;resizable=0;points=[];autosize=1;strokeColor=none;fillColor=none;fontSize=10;" vertex="1" parent="1">
          <mxGeometry x="-370" y="1230" width="80" height="30" as="geometry" />
        </mxCell>
        <mxCell id="KNU0Fs-RdxI1QLgksmc8-112" value="Valor" style="text;html=1;align=center;verticalAlign=middle;resizable=0;points=[];autosize=1;strokeColor=none;fillColor=none;fontSize=10;" vertex="1" parent="1">
          <mxGeometry x="-360" y="1251" width="50" height="30" as="geometry" />
        </mxCell>
        <mxCell id="KNU0Fs-RdxI1QLgksmc8-113" value="Marca" style="text;html=1;align=center;verticalAlign=middle;resizable=0;points=[];autosize=1;strokeColor=none;fillColor=none;fontSize=10;" vertex="1" parent="1">
          <mxGeometry x="-384" y="1210" width="50" height="30" as="geometry" />
        </mxCell>
        <mxCell id="KNU0Fs-RdxI1QLgksmc8-114" value="&lt;div style=&quot;font-size: 10px;&quot;&gt;Descrição&lt;/div&gt;" style="text;html=1;align=center;verticalAlign=middle;resizable=0;points=[];autosize=1;strokeColor=none;fillColor=none;fontSize=10;" vertex="1" parent="1">
          <mxGeometry x="-347" y="1270" width="70" height="30" as="geometry" />
        </mxCell>
        <mxCell id="uFB_Qc8VWumfu3uRMcNE-5" value="" style="edgeStyle=orthogonalEdgeStyle;rounded=0;orthogonalLoop=1;jettySize=auto;html=1;endArrow=none;endFill=0;" edge="1" parent="1" source="KNU0Fs-RdxI1QLgksmc8-115" target="KNU0Fs-RdxI1QLgksmc8-108">
          <mxGeometry relative="1" as="geometry" />
        </mxCell>
        <mxCell id="KNU0Fs-RdxI1QLgksmc8-115" value="fornece" style="shape=rhombus;html=1;dashed=0;whiteSpace=wrap;perimeter=rhombusPerimeter;" vertex="1" parent="1">
          <mxGeometry x="-561" y="1295" width="60" height="50" as="geometry" />
        </mxCell>
        <mxCell id="KNU0Fs-RdxI1QLgksmc8-124" value="" style="edgeStyle=orthogonalEdgeStyle;rounded=0;orthogonalLoop=1;jettySize=auto;html=1;endArrow=oval;endFill=1;exitX=0;exitY=0;exitDx=0;exitDy=0;" edge="1" parent="1" source="KNU0Fs-RdxI1QLgksmc8-130">
          <mxGeometry relative="1" as="geometry">
            <mxPoint x="-299" y="1746" as="sourcePoint" />
            <mxPoint x="-309" y="1686" as="targetPoint" />
          </mxGeometry>
        </mxCell>
        <mxCell id="KNU0Fs-RdxI1QLgksmc8-125" value="" style="edgeStyle=orthogonalEdgeStyle;rounded=0;orthogonalLoop=1;jettySize=auto;html=1;endArrow=oval;endFill=0;exitX=0.14;exitY=0.002;exitDx=0;exitDy=0;exitPerimeter=0;" edge="1" parent="1" source="KNU0Fs-RdxI1QLgksmc8-130">
          <mxGeometry relative="1" as="geometry">
            <mxPoint x="-299" y="1746" as="sourcePoint" />
            <mxPoint x="-299" y="1706" as="targetPoint" />
          </mxGeometry>
        </mxCell>
        <mxCell id="KNU0Fs-RdxI1QLgksmc8-126" value="" style="edgeStyle=orthogonalEdgeStyle;rounded=0;orthogonalLoop=1;jettySize=auto;html=1;endArrow=oval;endFill=0;exitX=0.284;exitY=0.002;exitDx=0;exitDy=0;exitPerimeter=0;" edge="1" parent="1" source="KNU0Fs-RdxI1QLgksmc8-130">
          <mxGeometry relative="1" as="geometry">
            <mxPoint x="-289" y="1781" as="sourcePoint" />
            <mxPoint x="-289" y="1726" as="targetPoint" />
          </mxGeometry>
        </mxCell>
        <mxCell id="KNU0Fs-RdxI1QLgksmc8-127" value="" style="edgeStyle=orthogonalEdgeStyle;rounded=0;orthogonalLoop=1;jettySize=auto;html=1;endArrow=oval;endFill=0;exitX=0.426;exitY=0.006;exitDx=0;exitDy=0;exitPerimeter=0;" edge="1" parent="1" source="KNU0Fs-RdxI1QLgksmc8-130">
          <mxGeometry relative="1" as="geometry">
            <mxPoint x="-279" y="1766" as="sourcePoint" />
            <mxPoint x="-279" y="1746" as="targetPoint" />
          </mxGeometry>
        </mxCell>
        <mxCell id="KNU0Fs-RdxI1QLgksmc8-128" value="" style="edgeStyle=orthogonalEdgeStyle;rounded=0;orthogonalLoop=1;jettySize=auto;html=1;endArrow=oval;endFill=0;" edge="1" parent="1">
          <mxGeometry relative="1" as="geometry">
            <mxPoint x="-269" y="1788" as="sourcePoint" />
            <mxPoint x="-269" y="1766" as="targetPoint" />
          </mxGeometry>
        </mxCell>
        <mxCell id="KNU0Fs-RdxI1QLgksmc8-129" value="" style="edgeStyle=orthogonalEdgeStyle;rounded=0;orthogonalLoop=1;jettySize=auto;html=1;endArrow=oval;endFill=0;exitX=0.731;exitY=0.012;exitDx=0;exitDy=0;exitPerimeter=0;entryX=0.32;entryY=1.037;entryDx=0;entryDy=0;entryPerimeter=0;" edge="1" parent="1" source="KNU0Fs-RdxI1QLgksmc8-130" target="KNU0Fs-RdxI1QLgksmc8-136">
          <mxGeometry relative="1" as="geometry">
            <mxPoint x="-258" y="1786" as="sourcePoint" />
            <mxPoint x="-258" y="1776" as="targetPoint" />
          </mxGeometry>
        </mxCell>
        <mxCell id="KNU0Fs-RdxI1QLgksmc8-130" value="" style="rounded=0;whiteSpace=wrap;html=1;" vertex="1" parent="1">
          <mxGeometry x="-309" y="1788" width="70" height="50" as="geometry" />
        </mxCell>
        <mxCell id="P3hBLRIRSL_TV0yG0XCQ-20" style="edgeStyle=orthogonalEdgeStyle;rounded=0;orthogonalLoop=1;jettySize=auto;html=1;entryX=0;entryY=0.5;entryDx=0;entryDy=0;endArrow=none;endFill=0;" edge="1" parent="1" source="KNU0Fs-RdxI1QLgksmc8-131" target="P3hBLRIRSL_TV0yG0XCQ-13">
          <mxGeometry relative="1" as="geometry">
            <Array as="points">
              <mxPoint x="-168.5" y="1813" />
              <mxPoint x="-168.5" y="1763" />
            </Array>
          </mxGeometry>
        </mxCell>
        <mxCell id="P3hBLRIRSL_TV0yG0XCQ-21" style="edgeStyle=orthogonalEdgeStyle;rounded=0;orthogonalLoop=1;jettySize=auto;html=1;entryX=0;entryY=0.5;entryDx=0;entryDy=0;endArrow=none;endFill=0;" edge="1" parent="1" source="KNU0Fs-RdxI1QLgksmc8-131" target="P3hBLRIRSL_TV0yG0XCQ-12">
          <mxGeometry relative="1" as="geometry">
            <Array as="points">
              <mxPoint x="-168.5" y="1813" />
              <mxPoint x="-168.5" y="1845" />
            </Array>
          </mxGeometry>
        </mxCell>
        <mxCell id="KNU0Fs-RdxI1QLgksmc8-131" value="agenda" style="shape=rhombus;html=1;dashed=0;whiteSpace=wrap;perimeter=rhombusPerimeter;" vertex="1" parent="1">
          <mxGeometry x="-309" y="1788" width="70" height="50" as="geometry" />
        </mxCell>
        <mxCell id="KNU0Fs-RdxI1QLgksmc8-132" value="&lt;font style=&quot;font-size: 10px;&quot;&gt;id_agendamento&lt;/font&gt;" style="text;html=1;align=center;verticalAlign=middle;resizable=0;points=[];autosize=1;strokeColor=none;fillColor=none;" vertex="1" parent="1">
          <mxGeometry x="-314" y="1669" width="100" height="30" as="geometry" />
        </mxCell>
        <mxCell id="KNU0Fs-RdxI1QLgksmc8-133" value="&lt;font style=&quot;font-size: 10px;&quot;&gt;Data&lt;/font&gt;" style="text;html=1;align=center;verticalAlign=middle;resizable=0;points=[];autosize=1;strokeColor=none;fillColor=none;fontSize=10;" vertex="1" parent="1">
          <mxGeometry x="-308" y="1690" width="50" height="30" as="geometry" />
        </mxCell>
        <mxCell id="KNU0Fs-RdxI1QLgksmc8-134" value="&lt;font style=&quot;font-size: 10px;&quot;&gt;Horário&lt;/font&gt;" style="text;html=1;align=center;verticalAlign=middle;resizable=0;points=[];autosize=1;strokeColor=none;fillColor=none;fontSize=10;" vertex="1" parent="1">
          <mxGeometry x="-298" y="1710" width="60" height="30" as="geometry" />
        </mxCell>
        <mxCell id="KNU0Fs-RdxI1QLgksmc8-135" value="&lt;font style=&quot;font-size: 10px;&quot;&gt;Tipo de agendamento&lt;/font&gt;" style="text;html=1;align=center;verticalAlign=middle;resizable=0;points=[];autosize=1;strokeColor=none;fillColor=none;fontSize=10;" vertex="1" parent="1">
          <mxGeometry x="-288" y="1729" width="130" height="30" as="geometry" />
        </mxCell>
        <mxCell id="KNU0Fs-RdxI1QLgksmc8-136" value="&lt;font style=&quot;font-size: 10px;&quot;&gt;Cliente&lt;/font&gt;" style="text;html=1;align=center;verticalAlign=middle;resizable=0;points=[];autosize=1;strokeColor=none;fillColor=none;fontSize=10;" vertex="1" parent="1">
          <mxGeometry x="-277" y="1750" width="60" height="30" as="geometry" />
        </mxCell>
        <mxCell id="KNU0Fs-RdxI1QLgksmc8-137" value="&lt;font style=&quot;font-size: 10px;&quot;&gt;Valor&lt;/font&gt;" style="text;html=1;align=center;verticalAlign=middle;resizable=0;points=[];autosize=1;strokeColor=none;fillColor=none;" vertex="1" parent="1">
          <mxGeometry x="-267" y="1764" width="50" height="30" as="geometry" />
        </mxCell>
        <mxCell id="P3hBLRIRSL_TV0yG0XCQ-10" value="" style="edgeStyle=orthogonalEdgeStyle;rounded=0;orthogonalLoop=1;jettySize=auto;html=1;endArrow=none;endFill=0;" edge="1" parent="1" source="KNU0Fs-RdxI1QLgksmc8-139" target="P3hBLRIRSL_TV0yG0XCQ-9">
          <mxGeometry relative="1" as="geometry" />
        </mxCell>
        <mxCell id="KNU0Fs-RdxI1QLgksmc8-139" value="&lt;div&gt;Cliente&lt;/div&gt;" style="html=1;dashed=0;whiteSpace=wrap;" vertex="1" parent="1">
          <mxGeometry x="-749" y="1665.5" width="100" height="50" as="geometry" />
        </mxCell>
        <mxCell id="KNU0Fs-RdxI1QLgksmc8-140" value="" style="edgeStyle=orthogonalEdgeStyle;rounded=0;orthogonalLoop=1;jettySize=auto;html=1;endArrow=oval;endFill=1;exitX=0.068;exitY=0.003;exitDx=0;exitDy=0;exitPerimeter=0;" edge="1" parent="1" source="KNU0Fs-RdxI1QLgksmc8-139">
          <mxGeometry relative="1" as="geometry">
            <mxPoint x="-749" y="1640.26" as="sourcePoint" />
            <mxPoint x="-742" y="1595.5" as="targetPoint" />
          </mxGeometry>
        </mxCell>
        <mxCell id="KNU0Fs-RdxI1QLgksmc8-141" value="id_cliente" style="text;html=1;align=center;verticalAlign=middle;resizable=0;points=[];autosize=1;strokeColor=none;fillColor=none;fontSize=10;" vertex="1" parent="1">
          <mxGeometry x="-750" y="1579.5" width="70" height="30" as="geometry" />
        </mxCell>
        <mxCell id="KNU0Fs-RdxI1QLgksmc8-142" value="" style="edgeStyle=orthogonalEdgeStyle;rounded=0;orthogonalLoop=1;jettySize=auto;html=1;endArrow=oval;endFill=0;exitX=0.25;exitY=0;exitDx=0;exitDy=0;" edge="1" parent="1" source="KNU0Fs-RdxI1QLgksmc8-139">
          <mxGeometry relative="1" as="geometry">
            <mxPoint x="-709" y="1645.5" as="sourcePoint" />
            <mxPoint x="-724" y="1615.5" as="targetPoint" />
          </mxGeometry>
        </mxCell>
        <mxCell id="KNU0Fs-RdxI1QLgksmc8-143" value="&lt;font style=&quot;font-size: 10px;&quot;&gt;Nome&lt;/font&gt;" style="text;html=1;align=center;verticalAlign=middle;resizable=0;points=[];autosize=1;strokeColor=none;fillColor=none;" vertex="1" parent="1">
          <mxGeometry x="-730" y="1598.5" width="50" height="30" as="geometry" />
        </mxCell>
        <mxCell id="KNU0Fs-RdxI1QLgksmc8-144" value="" style="edgeStyle=orthogonalEdgeStyle;rounded=0;orthogonalLoop=1;jettySize=auto;html=1;endArrow=oval;endFill=0;exitX=0.401;exitY=0.01;exitDx=0;exitDy=0;exitPerimeter=0;" edge="1" parent="1" source="KNU0Fs-RdxI1QLgksmc8-139">
          <mxGeometry relative="1" as="geometry">
            <mxPoint x="-619" y="1635.5" as="sourcePoint" />
            <mxPoint x="-709" y="1635.5" as="targetPoint" />
          </mxGeometry>
        </mxCell>
        <mxCell id="KNU0Fs-RdxI1QLgksmc8-145" value="&lt;font style=&quot;font-size: 10px;&quot;&gt;Telefone&lt;/font&gt;" style="text;html=1;align=center;verticalAlign=middle;resizable=0;points=[];autosize=1;strokeColor=none;fillColor=none;" vertex="1" parent="1">
          <mxGeometry x="-718" y="1618.5" width="70" height="30" as="geometry" />
        </mxCell>
        <mxCell id="KNU0Fs-RdxI1QLgksmc8-146" value="" style="edgeStyle=orthogonalEdgeStyle;rounded=0;orthogonalLoop=1;jettySize=auto;html=1;endArrow=oval;endFill=0;exitX=0.529;exitY=-0.009;exitDx=0;exitDy=0;exitPerimeter=0;" edge="1" parent="1" source="KNU0Fs-RdxI1QLgksmc8-139">
          <mxGeometry relative="1" as="geometry">
            <mxPoint x="-699" y="1655.5" as="sourcePoint" />
            <mxPoint x="-696" y="1655.5" as="targetPoint" />
          </mxGeometry>
        </mxCell>
        <mxCell id="KNU0Fs-RdxI1QLgksmc8-147" value="&lt;font style=&quot;font-size: 10px;&quot;&gt;Email&lt;/font&gt;" style="text;html=1;align=center;verticalAlign=middle;resizable=0;points=[];autosize=1;strokeColor=none;fillColor=none;" vertex="1" parent="1">
          <mxGeometry x="-702" y="1638.5" width="50" height="30" as="geometry" />
        </mxCell>
        <mxCell id="KNU0Fs-RdxI1QLgksmc8-154" value="&lt;div&gt;Bicicleta&lt;/div&gt;" style="html=1;dashed=0;whiteSpace=wrap;" vertex="1" parent="1">
          <mxGeometry x="82.5" y="773" width="100" height="50" as="geometry" />
        </mxCell>
        <mxCell id="KNU0Fs-RdxI1QLgksmc8-155" value="" style="edgeStyle=orthogonalEdgeStyle;rounded=0;orthogonalLoop=1;jettySize=auto;html=1;endArrow=oval;endFill=1;exitX=0.052;exitY=0.008;exitDx=0;exitDy=0;exitPerimeter=0;entryX=0.073;entryY=0.5;entryDx=0;entryDy=0;entryPerimeter=0;" edge="1" parent="1" source="KNU0Fs-RdxI1QLgksmc8-154" target="KNU0Fs-RdxI1QLgksmc8-163">
          <mxGeometry relative="1" as="geometry">
            <mxPoint x="87.35000000000002" y="773.4499999999998" as="sourcePoint" />
            <mxPoint x="87.5" y="609" as="targetPoint" />
            <Array as="points">
              <mxPoint x="87.5" y="689" />
              <mxPoint x="86.5" y="689" />
            </Array>
          </mxGeometry>
        </mxCell>
        <mxCell id="KNU0Fs-RdxI1QLgksmc8-156" value="" style="edgeStyle=orthogonalEdgeStyle;rounded=0;orthogonalLoop=1;jettySize=auto;html=1;endArrow=oval;endFill=0;exitX=0.144;exitY=0;exitDx=0;exitDy=0;exitPerimeter=0;entryX=0.085;entryY=0.56;entryDx=0;entryDy=0;entryPerimeter=0;" edge="1" parent="1" source="KNU0Fs-RdxI1QLgksmc8-154" target="KNU0Fs-RdxI1QLgksmc8-164">
          <mxGeometry relative="1" as="geometry">
            <mxPoint x="97.45000000000005" y="773.75" as="sourcePoint" />
            <mxPoint x="97.5" y="629" as="targetPoint" />
            <Array as="points">
              <mxPoint x="96.5" y="774" />
              <mxPoint x="96.5" y="774" />
              <mxPoint x="96.5" y="699" />
              <mxPoint x="96.5" y="699" />
            </Array>
          </mxGeometry>
        </mxCell>
        <mxCell id="KNU0Fs-RdxI1QLgksmc8-157" value="" style="edgeStyle=orthogonalEdgeStyle;rounded=0;orthogonalLoop=1;jettySize=auto;html=1;endArrow=oval;endFill=0;exitX=0.299;exitY=0.002;exitDx=0;exitDy=0;exitPerimeter=0;entryX=0.2;entryY=0.4;entryDx=0;entryDy=0;entryPerimeter=0;" edge="1" parent="1" target="KNU0Fs-RdxI1QLgksmc8-165">
          <mxGeometry relative="1" as="geometry">
            <mxPoint x="107.25" y="773.0999999999999" as="sourcePoint" />
            <mxPoint x="107.5" y="639" as="targetPoint" />
          </mxGeometry>
        </mxCell>
        <mxCell id="KNU0Fs-RdxI1QLgksmc8-158" value="" style="edgeStyle=orthogonalEdgeStyle;rounded=0;orthogonalLoop=1;jettySize=auto;html=1;endArrow=oval;endFill=0;exitX=0.398;exitY=0.006;exitDx=0;exitDy=0;exitPerimeter=0;" edge="1" parent="1">
          <mxGeometry relative="1" as="geometry">
            <mxPoint x="117.14999999999998" y="773.3000000000002" as="sourcePoint" />
            <mxPoint x="117.5" y="649" as="targetPoint" />
          </mxGeometry>
        </mxCell>
        <mxCell id="KNU0Fs-RdxI1QLgksmc8-159" value="" style="edgeStyle=orthogonalEdgeStyle;rounded=0;orthogonalLoop=1;jettySize=auto;html=1;endArrow=oval;endFill=0;exitX=0.5;exitY=0;exitDx=0;exitDy=0;" edge="1" parent="1">
          <mxGeometry relative="1" as="geometry">
            <mxPoint x="127.35000000000002" y="773" as="sourcePoint" />
            <mxPoint x="127.5" y="669" as="targetPoint" />
          </mxGeometry>
        </mxCell>
        <mxCell id="KNU0Fs-RdxI1QLgksmc8-160" value="" style="edgeStyle=orthogonalEdgeStyle;rounded=0;orthogonalLoop=1;jettySize=auto;html=1;endArrow=oval;endFill=0;exitX=0.6;exitY=0.004;exitDx=0;exitDy=0;exitPerimeter=0;" edge="1" parent="1">
          <mxGeometry relative="1" as="geometry">
            <mxPoint x="137.35000000000002" y="773.1999999999998" as="sourcePoint" />
            <mxPoint x="137.5" y="689" as="targetPoint" />
            <Array as="points" />
          </mxGeometry>
        </mxCell>
        <mxCell id="KNU0Fs-RdxI1QLgksmc8-161" value="" style="edgeStyle=orthogonalEdgeStyle;rounded=0;orthogonalLoop=1;jettySize=auto;html=1;endArrow=oval;endFill=0;exitX=0.704;exitY=0.01;exitDx=0;exitDy=0;exitPerimeter=0;" edge="1" parent="1">
          <mxGeometry relative="1" as="geometry">
            <mxPoint x="147.75" y="773.5" as="sourcePoint" />
            <mxPoint x="147.5" y="709" as="targetPoint" />
          </mxGeometry>
        </mxCell>
        <mxCell id="KNU0Fs-RdxI1QLgksmc8-162" value="" style="edgeStyle=orthogonalEdgeStyle;rounded=0;orthogonalLoop=1;jettySize=auto;html=1;endArrow=oval;endFill=0;exitX=0.804;exitY=0.004;exitDx=0;exitDy=0;exitPerimeter=0;fontSize=8;" edge="1" parent="1">
          <mxGeometry relative="1" as="geometry">
            <mxPoint x="157.75" y="773.1999999999998" as="sourcePoint" />
            <mxPoint x="157.5" y="729" as="targetPoint" />
            <Array as="points">
              <mxPoint x="157.35000000000002" y="759" />
            </Array>
          </mxGeometry>
        </mxCell>
        <mxCell id="KNU0Fs-RdxI1QLgksmc8-163" value="&lt;font style=&quot;font-size: 8px;&quot;&gt;id_bicicleta&lt;/font&gt;" style="text;html=1;align=center;verticalAlign=middle;resizable=0;points=[];autosize=1;strokeColor=none;fillColor=none;fontSize=8;" vertex="1" parent="1">
          <mxGeometry x="82.5" y="585" width="60" height="20" as="geometry" />
        </mxCell>
        <mxCell id="KNU0Fs-RdxI1QLgksmc8-164" value="&lt;font style=&quot;font-size: 8px;&quot;&gt;Nome&lt;/font&gt;" style="text;html=1;align=center;verticalAlign=middle;resizable=0;points=[];autosize=1;strokeColor=none;fillColor=none;fontSize=8;" vertex="1" parent="1">
          <mxGeometry x="93.5" y="605" width="40" height="20" as="geometry" />
        </mxCell>
        <mxCell id="KNU0Fs-RdxI1QLgksmc8-165" value="&lt;div style=&quot;font-size: 8px;&quot;&gt;&lt;font style=&quot;font-size: 8px;&quot;&gt;Marca&lt;/font&gt;&lt;/div&gt;" style="text;html=1;align=center;verticalAlign=middle;resizable=0;points=[];autosize=1;strokeColor=none;fillColor=none;fontSize=8;" vertex="1" parent="1">
          <mxGeometry x="97.5" y="621" width="50" height="20" as="geometry" />
        </mxCell>
        <mxCell id="KNU0Fs-RdxI1QLgksmc8-166" value="&lt;font style=&quot;font-size: 8px;&quot;&gt;Aro&lt;/font&gt;" style="text;html=1;align=center;verticalAlign=middle;resizable=0;points=[];autosize=1;strokeColor=none;fillColor=none;fontSize=8;" vertex="1" parent="1">
          <mxGeometry x="119.5" y="659" width="40" height="20" as="geometry" />
        </mxCell>
        <mxCell id="KNU0Fs-RdxI1QLgksmc8-167" value="&lt;font style=&quot;font-size: 8px;&quot;&gt;Cor&lt;/font&gt;" style="text;html=1;align=center;verticalAlign=middle;resizable=0;points=[];autosize=1;strokeColor=none;fillColor=none;fontSize=8;" vertex="1" parent="1">
          <mxGeometry x="109.5" y="639" width="40" height="20" as="geometry" />
        </mxCell>
        <mxCell id="KNU0Fs-RdxI1QLgksmc8-168" value="&lt;font style=&quot;font-size: 8px;&quot;&gt;Peso&lt;/font&gt;" style="text;html=1;align=center;verticalAlign=middle;resizable=0;points=[];autosize=1;strokeColor=none;fillColor=none;fontSize=8;" vertex="1" parent="1">
          <mxGeometry x="141.5" y="699" width="40" height="20" as="geometry" />
        </mxCell>
        <mxCell id="KNU0Fs-RdxI1QLgksmc8-169" value="&lt;font style=&quot;font-size: 8px;&quot;&gt;Altura&lt;/font&gt;" style="text;html=1;align=center;verticalAlign=middle;resizable=0;points=[];autosize=1;strokeColor=none;fillColor=none;fontSize=8;" vertex="1" parent="1">
          <mxGeometry x="152.5" y="719" width="40" height="20" as="geometry" />
        </mxCell>
        <mxCell id="KNU0Fs-RdxI1QLgksmc8-170" value="&lt;font style=&quot;font-size: 8px;&quot;&gt;Valor&lt;/font&gt;" style="text;html=1;align=center;verticalAlign=middle;resizable=0;points=[];autosize=1;strokeColor=none;fillColor=none;fontSize=8;" vertex="1" parent="1">
          <mxGeometry x="159.5" y="739" width="40" height="20" as="geometry" />
        </mxCell>
        <mxCell id="KNU0Fs-RdxI1QLgksmc8-171" value="&lt;font style=&quot;font-size: 8px;&quot;&gt;Categoria (adulto ou infantil)&lt;/font&gt;" style="text;html=1;align=center;verticalAlign=middle;resizable=0;points=[];autosize=1;strokeColor=none;fillColor=none;fontSize=8;" vertex="1" parent="1">
          <mxGeometry x="131.5" y="679" width="120" height="20" as="geometry" />
        </mxCell>
        <mxCell id="KNU0Fs-RdxI1QLgksmc8-172" value="" style="edgeStyle=orthogonalEdgeStyle;rounded=0;orthogonalLoop=1;jettySize=auto;html=1;endArrow=oval;endFill=0;exitX=0.902;exitY=0.004;exitDx=0;exitDy=0;exitPerimeter=0;fontSize=8;" edge="1" parent="1">
          <mxGeometry relative="1" as="geometry">
            <mxPoint x="167.55000000000007" y="773.1999999999998" as="sourcePoint" />
            <mxPoint x="167.5" y="749" as="targetPoint" />
          </mxGeometry>
        </mxCell>
        <mxCell id="uFB_Qc8VWumfu3uRMcNE-2" value="( 1 , N )" style="text;html=1;align=center;verticalAlign=middle;resizable=0;points=[];autosize=1;strokeColor=none;fillColor=none;" vertex="1" parent="1">
          <mxGeometry x="-696" y="1345" width="60" height="30" as="geometry" />
        </mxCell>
        <mxCell id="uFB_Qc8VWumfu3uRMcNE-3" value="( N , N )" style="text;html=1;align=center;verticalAlign=middle;resizable=0;points=[];autosize=1;strokeColor=none;fillColor=none;" vertex="1" parent="1">
          <mxGeometry x="-480" y="1295" width="60" height="30" as="geometry" />
        </mxCell>
        <mxCell id="uFB_Qc8VWumfu3uRMcNE-6" value="( 1 , N )" style="text;html=1;align=center;verticalAlign=middle;resizable=0;points=[];autosize=1;strokeColor=none;fillColor=none;" vertex="1" parent="1">
          <mxGeometry x="-646" y="1295" width="60" height="30" as="geometry" />
        </mxCell>
        <mxCell id="P3hBLRIRSL_TV0yG0XCQ-1" value="" style="edgeStyle=orthogonalEdgeStyle;rounded=0;orthogonalLoop=1;jettySize=auto;html=1;exitX=0.25;exitY=0;exitDx=0;exitDy=0;endArrow=oval;endFill=0;" edge="1" parent="1" source="ygF_lhyRRJSf7L5d6sI7-1">
          <mxGeometry relative="1" as="geometry">
            <mxPoint x="-473.5" y="1641.5" as="targetPoint" />
          </mxGeometry>
        </mxCell>
        <mxCell id="P3hBLRIRSL_TV0yG0XCQ-17" style="edgeStyle=orthogonalEdgeStyle;rounded=0;orthogonalLoop=1;jettySize=auto;html=1;entryX=0;entryY=0.5;entryDx=0;entryDy=0;endArrow=none;endFill=0;" edge="1" parent="1" source="ygF_lhyRRJSf7L5d6sI7-1" target="P3hBLRIRSL_TV0yG0XCQ-15">
          <mxGeometry relative="1" as="geometry" />
        </mxCell>
        <mxCell id="P3hBLRIRSL_TV0yG0XCQ-19" style="edgeStyle=orthogonalEdgeStyle;rounded=0;orthogonalLoop=1;jettySize=auto;html=1;entryX=0;entryY=0.5;entryDx=0;entryDy=0;endArrow=none;endFill=0;" edge="1" parent="1" source="ygF_lhyRRJSf7L5d6sI7-1" target="KNU0Fs-RdxI1QLgksmc8-131">
          <mxGeometry relative="1" as="geometry" />
        </mxCell>
        <mxCell id="ygF_lhyRRJSf7L5d6sI7-1" value="Serviço" style="html=1;dashed=0;whiteSpace=wrap;" vertex="1" parent="1">
          <mxGeometry x="-478.5" y="1666.5" width="91" height="49" as="geometry" />
        </mxCell>
        <mxCell id="ygF_lhyRRJSf7L5d6sI7-3" value="- tipo de serviço" style="rounded=0;whiteSpace=wrap;html=1;" vertex="1" parent="1">
          <mxGeometry x="698.5" y="450" width="120" height="300" as="geometry" />
        </mxCell>
        <mxCell id="ygF_lhyRRJSf7L5d6sI7-4" value="venda" style="rhombus;whiteSpace=wrap;html=1;" vertex="1" parent="1">
          <mxGeometry x="40.5" y="440" width="57" height="45" as="geometry" />
        </mxCell>
        <mxCell id="ygF_lhyRRJSf7L5d6sI7-6" value="" style="shape=process;whiteSpace=wrap;html=1;backgroundOutline=1;" vertex="1" parent="1">
          <mxGeometry x="3" y="1900" width="817" height="10" as="geometry" />
        </mxCell>
        <mxCell id="P3hBLRIRSL_TV0yG0XCQ-2" value="tipo_serviço" style="text;html=1;align=center;verticalAlign=middle;resizable=0;points=[];autosize=1;strokeColor=none;fillColor=none;" vertex="1" parent="1">
          <mxGeometry x="-479.5" y="1625.5" width="90" height="30" as="geometry" />
        </mxCell>
        <mxCell id="P3hBLRIRSL_TV0yG0XCQ-3" value="Conserto" style="html=1;dashed=0;whiteSpace=wrap;" vertex="1" parent="1">
          <mxGeometry x="271" y="510" width="80" height="50" as="geometry" />
        </mxCell>
        <mxCell id="P3hBLRIRSL_TV0yG0XCQ-4" value="Montagem de Bicicleta" style="html=1;dashed=0;whiteSpace=wrap;" vertex="1" parent="1">
          <mxGeometry x="159.5" y="510" width="80" height="50" as="geometry" />
        </mxCell>
        <mxCell id="P3hBLRIRSL_TV0yG0XCQ-5" value="&lt;div&gt;Peça de bicicleta&lt;/div&gt;" style="html=1;dashed=0;whiteSpace=wrap;" vertex="1" parent="1">
          <mxGeometry x="159.5" y="435" width="80" height="50" as="geometry" />
        </mxCell>
        <mxCell id="P3hBLRIRSL_TV0yG0XCQ-8" value="&lt;div&gt;id_loja&lt;/div&gt;" style="text;html=1;align=center;verticalAlign=middle;resizable=0;points=[];autosize=1;strokeColor=none;fillColor=none;" vertex="1" parent="1">
          <mxGeometry x="-350" y="1444" width="60" height="30" as="geometry" />
        </mxCell>
        <mxCell id="P3hBLRIRSL_TV0yG0XCQ-11" value="" style="edgeStyle=orthogonalEdgeStyle;rounded=0;orthogonalLoop=1;jettySize=auto;html=1;entryX=0;entryY=0.5;entryDx=0;entryDy=0;endArrow=none;endFill=0;" edge="1" parent="1" source="P3hBLRIRSL_TV0yG0XCQ-9" target="ygF_lhyRRJSf7L5d6sI7-1">
          <mxGeometry relative="1" as="geometry">
            <mxPoint x="-407.5" y="1690.5" as="targetPoint" />
          </mxGeometry>
        </mxCell>
        <mxCell id="P3hBLRIRSL_TV0yG0XCQ-9" value="escolhe" style="rhombus;whiteSpace=wrap;html=1;dashed=0;" vertex="1" parent="1">
          <mxGeometry x="-599" y="1660" width="71.5" height="61" as="geometry" />
        </mxCell>
        <mxCell id="P3hBLRIRSL_TV0yG0XCQ-12" value="Conserto" style="html=1;dashed=0;whiteSpace=wrap;" vertex="1" parent="1">
          <mxGeometry x="-103" y="1820" width="100" height="50" as="geometry" />
        </mxCell>
        <mxCell id="P3hBLRIRSL_TV0yG0XCQ-13" value="Montagem de Bicicleta" style="html=1;dashed=0;whiteSpace=wrap;" vertex="1" parent="1">
          <mxGeometry x="-103" y="1738" width="104.5" height="50" as="geometry" />
        </mxCell>
        <mxCell id="P3hBLRIRSL_TV0yG0XCQ-14" value="&lt;div&gt;Peça de bicicleta&lt;/div&gt;" style="html=1;dashed=0;whiteSpace=wrap;" vertex="1" parent="1">
          <mxGeometry x="-167" y="1574" width="98.5" height="54" as="geometry" />
        </mxCell>
        <mxCell id="P3hBLRIRSL_TV0yG0XCQ-15" value="" style="rounded=0;whiteSpace=wrap;html=1;" vertex="1" parent="1">
          <mxGeometry x="-310" y="1578.5" width="60" height="50" as="geometry" />
        </mxCell>
        <mxCell id="P3hBLRIRSL_TV0yG0XCQ-18" value="" style="edgeStyle=orthogonalEdgeStyle;rounded=0;orthogonalLoop=1;jettySize=auto;html=1;endArrow=none;endFill=0;" edge="1" parent="1" source="P3hBLRIRSL_TV0yG0XCQ-16" target="P3hBLRIRSL_TV0yG0XCQ-14">
          <mxGeometry relative="1" as="geometry" />
        </mxCell>
        <mxCell id="P3hBLRIRSL_TV0yG0XCQ-16" value="venda" style="rhombus;whiteSpace=wrap;html=1;" vertex="1" parent="1">
          <mxGeometry x="-307" y="1578.5" width="57" height="45" as="geometry" />
        </mxCell>
        <mxCell id="P3hBLRIRSL_TV0yG0XCQ-22" value="Cliente" style="shape=table;startSize=30;container=1;collapsible=1;childLayout=tableLayout;fixedRows=1;rowLines=0;fontStyle=1;align=center;resizeLast=1;html=1;" vertex="1" parent="1">
          <mxGeometry x="37.5" y="1960" width="180" height="150" as="geometry" />
        </mxCell>
        <mxCell id="P3hBLRIRSL_TV0yG0XCQ-23" value="" style="shape=tableRow;horizontal=0;startSize=0;swimlaneHead=0;swimlaneBody=0;fillColor=none;collapsible=0;dropTarget=0;points=[[0,0.5],[1,0.5]];portConstraint=eastwest;top=0;left=0;right=0;bottom=1;" vertex="1" parent="P3hBLRIRSL_TV0yG0XCQ-22">
          <mxGeometry y="30" width="180" height="30" as="geometry" />
        </mxCell>
        <mxCell id="P3hBLRIRSL_TV0yG0XCQ-24" value="PK" style="shape=partialRectangle;connectable=0;fillColor=none;top=0;left=0;bottom=0;right=0;fontStyle=1;overflow=hidden;whiteSpace=wrap;html=1;" vertex="1" parent="P3hBLRIRSL_TV0yG0XCQ-23">
          <mxGeometry width="30" height="30" as="geometry">
            <mxRectangle width="30" height="30" as="alternateBounds" />
          </mxGeometry>
        </mxCell>
        <mxCell id="P3hBLRIRSL_TV0yG0XCQ-25" value="&lt;div&gt;id_cliente&lt;/div&gt;" style="shape=partialRectangle;connectable=0;fillColor=none;top=0;left=0;bottom=0;right=0;align=left;spacingLeft=6;fontStyle=5;overflow=hidden;whiteSpace=wrap;html=1;" vertex="1" parent="P3hBLRIRSL_TV0yG0XCQ-23">
          <mxGeometry x="30" width="150" height="30" as="geometry">
            <mxRectangle width="150" height="30" as="alternateBounds" />
          </mxGeometry>
        </mxCell>
        <mxCell id="P3hBLRIRSL_TV0yG0XCQ-26" value="" style="shape=tableRow;horizontal=0;startSize=0;swimlaneHead=0;swimlaneBody=0;fillColor=none;collapsible=0;dropTarget=0;points=[[0,0.5],[1,0.5]];portConstraint=eastwest;top=0;left=0;right=0;bottom=0;" vertex="1" parent="P3hBLRIRSL_TV0yG0XCQ-22">
          <mxGeometry y="60" width="180" height="30" as="geometry" />
        </mxCell>
        <mxCell id="P3hBLRIRSL_TV0yG0XCQ-27" value="*" style="shape=partialRectangle;connectable=0;fillColor=none;top=0;left=0;bottom=0;right=0;editable=1;overflow=hidden;whiteSpace=wrap;html=1;" vertex="1" parent="P3hBLRIRSL_TV0yG0XCQ-26">
          <mxGeometry width="30" height="30" as="geometry">
            <mxRectangle width="30" height="30" as="alternateBounds" />
          </mxGeometry>
        </mxCell>
        <mxCell id="P3hBLRIRSL_TV0yG0XCQ-28" value="Nome" style="shape=partialRectangle;connectable=0;fillColor=none;top=0;left=0;bottom=0;right=0;align=left;spacingLeft=6;overflow=hidden;whiteSpace=wrap;html=1;" vertex="1" parent="P3hBLRIRSL_TV0yG0XCQ-26">
          <mxGeometry x="30" width="150" height="30" as="geometry">
            <mxRectangle width="150" height="30" as="alternateBounds" />
          </mxGeometry>
        </mxCell>
        <mxCell id="P3hBLRIRSL_TV0yG0XCQ-29" value="" style="shape=tableRow;horizontal=0;startSize=0;swimlaneHead=0;swimlaneBody=0;fillColor=none;collapsible=0;dropTarget=0;points=[[0,0.5],[1,0.5]];portConstraint=eastwest;top=0;left=0;right=0;bottom=0;" vertex="1" parent="P3hBLRIRSL_TV0yG0XCQ-22">
          <mxGeometry y="90" width="180" height="30" as="geometry" />
        </mxCell>
        <mxCell id="P3hBLRIRSL_TV0yG0XCQ-30" value="*" style="shape=partialRectangle;connectable=0;fillColor=none;top=0;left=0;bottom=0;right=0;editable=1;overflow=hidden;whiteSpace=wrap;html=1;" vertex="1" parent="P3hBLRIRSL_TV0yG0XCQ-29">
          <mxGeometry width="30" height="30" as="geometry">
            <mxRectangle width="30" height="30" as="alternateBounds" />
          </mxGeometry>
        </mxCell>
        <mxCell id="P3hBLRIRSL_TV0yG0XCQ-31" value="Telefone" style="shape=partialRectangle;connectable=0;fillColor=none;top=0;left=0;bottom=0;right=0;align=left;spacingLeft=6;overflow=hidden;whiteSpace=wrap;html=1;" vertex="1" parent="P3hBLRIRSL_TV0yG0XCQ-29">
          <mxGeometry x="30" width="150" height="30" as="geometry">
            <mxRectangle width="150" height="30" as="alternateBounds" />
          </mxGeometry>
        </mxCell>
        <mxCell id="P3hBLRIRSL_TV0yG0XCQ-32" value="" style="shape=tableRow;horizontal=0;startSize=0;swimlaneHead=0;swimlaneBody=0;fillColor=none;collapsible=0;dropTarget=0;points=[[0,0.5],[1,0.5]];portConstraint=eastwest;top=0;left=0;right=0;bottom=0;" vertex="1" parent="P3hBLRIRSL_TV0yG0XCQ-22">
          <mxGeometry y="120" width="180" height="30" as="geometry" />
        </mxCell>
        <mxCell id="P3hBLRIRSL_TV0yG0XCQ-33" value="*" style="shape=partialRectangle;connectable=0;fillColor=none;top=0;left=0;bottom=0;right=0;editable=1;overflow=hidden;whiteSpace=wrap;html=1;" vertex="1" parent="P3hBLRIRSL_TV0yG0XCQ-32">
          <mxGeometry width="30" height="30" as="geometry">
            <mxRectangle width="30" height="30" as="alternateBounds" />
          </mxGeometry>
        </mxCell>
        <mxCell id="P3hBLRIRSL_TV0yG0XCQ-34" value="&lt;div&gt;E-mail&lt;/div&gt;" style="shape=partialRectangle;connectable=0;fillColor=none;top=0;left=0;bottom=0;right=0;align=left;spacingLeft=6;overflow=hidden;whiteSpace=wrap;html=1;" vertex="1" parent="P3hBLRIRSL_TV0yG0XCQ-32">
          <mxGeometry x="30" width="150" height="30" as="geometry">
            <mxRectangle width="150" height="30" as="alternateBounds" />
          </mxGeometry>
        </mxCell>
        <mxCell id="P3hBLRIRSL_TV0yG0XCQ-35" value="Fornecedor" style="shape=table;startSize=30;container=1;collapsible=1;childLayout=tableLayout;fixedRows=1;rowLines=0;fontStyle=1;align=center;resizeLast=1;html=1;" vertex="1" parent="1">
          <mxGeometry x="264" y="1970" width="186" height="290" as="geometry" />
        </mxCell>
        <mxCell id="P3hBLRIRSL_TV0yG0XCQ-36" value="" style="shape=tableRow;horizontal=0;startSize=0;swimlaneHead=0;swimlaneBody=0;fillColor=none;collapsible=0;dropTarget=0;points=[[0,0.5],[1,0.5]];portConstraint=eastwest;top=0;left=0;right=0;bottom=1;" vertex="1" parent="P3hBLRIRSL_TV0yG0XCQ-35">
          <mxGeometry y="30" width="186" height="30" as="geometry" />
        </mxCell>
        <mxCell id="P3hBLRIRSL_TV0yG0XCQ-37" value="PK" style="shape=partialRectangle;connectable=0;fillColor=none;top=0;left=0;bottom=0;right=0;fontStyle=1;overflow=hidden;whiteSpace=wrap;html=1;" vertex="1" parent="P3hBLRIRSL_TV0yG0XCQ-36">
          <mxGeometry width="30" height="30" as="geometry">
            <mxRectangle width="30" height="30" as="alternateBounds" />
          </mxGeometry>
        </mxCell>
        <mxCell id="P3hBLRIRSL_TV0yG0XCQ-38" value="id_fornecedor" style="shape=partialRectangle;connectable=0;fillColor=none;top=0;left=0;bottom=0;right=0;align=left;spacingLeft=6;fontStyle=5;overflow=hidden;whiteSpace=wrap;html=1;" vertex="1" parent="P3hBLRIRSL_TV0yG0XCQ-36">
          <mxGeometry x="30" width="156" height="30" as="geometry">
            <mxRectangle width="156" height="30" as="alternateBounds" />
          </mxGeometry>
        </mxCell>
        <mxCell id="P3hBLRIRSL_TV0yG0XCQ-39" value="" style="shape=tableRow;horizontal=0;startSize=0;swimlaneHead=0;swimlaneBody=0;fillColor=none;collapsible=0;dropTarget=0;points=[[0,0.5],[1,0.5]];portConstraint=eastwest;top=0;left=0;right=0;bottom=0;" vertex="1" parent="P3hBLRIRSL_TV0yG0XCQ-35">
          <mxGeometry y="60" width="186" height="20" as="geometry" />
        </mxCell>
        <mxCell id="P3hBLRIRSL_TV0yG0XCQ-40" value="" style="shape=partialRectangle;connectable=0;fillColor=none;top=0;left=0;bottom=0;right=0;editable=1;overflow=hidden;whiteSpace=wrap;html=1;" vertex="1" parent="P3hBLRIRSL_TV0yG0XCQ-39">
          <mxGeometry width="30" height="20" as="geometry">
            <mxRectangle width="30" height="20" as="alternateBounds" />
          </mxGeometry>
        </mxCell>
        <mxCell id="P3hBLRIRSL_TV0yG0XCQ-41" value="Nome" style="shape=partialRectangle;connectable=0;fillColor=none;top=0;left=0;bottom=0;right=0;align=left;spacingLeft=6;overflow=hidden;whiteSpace=wrap;html=1;" vertex="1" parent="P3hBLRIRSL_TV0yG0XCQ-39">
          <mxGeometry x="30" width="156" height="20" as="geometry">
            <mxRectangle width="156" height="20" as="alternateBounds" />
          </mxGeometry>
        </mxCell>
        <mxCell id="P3hBLRIRSL_TV0yG0XCQ-42" value="" style="shape=tableRow;horizontal=0;startSize=0;swimlaneHead=0;swimlaneBody=0;fillColor=none;collapsible=0;dropTarget=0;points=[[0,0.5],[1,0.5]];portConstraint=eastwest;top=0;left=0;right=0;bottom=0;" vertex="1" parent="P3hBLRIRSL_TV0yG0XCQ-35">
          <mxGeometry y="80" width="186" height="30" as="geometry" />
        </mxCell>
        <mxCell id="P3hBLRIRSL_TV0yG0XCQ-43" value="" style="shape=partialRectangle;connectable=0;fillColor=none;top=0;left=0;bottom=0;right=0;editable=1;overflow=hidden;whiteSpace=wrap;html=1;" vertex="1" parent="P3hBLRIRSL_TV0yG0XCQ-42">
          <mxGeometry width="30" height="30" as="geometry">
            <mxRectangle width="30" height="30" as="alternateBounds" />
          </mxGeometry>
        </mxCell>
        <mxCell id="P3hBLRIRSL_TV0yG0XCQ-44" value="Telefone" style="shape=partialRectangle;connectable=0;fillColor=none;top=0;left=0;bottom=0;right=0;align=left;spacingLeft=6;overflow=hidden;whiteSpace=wrap;html=1;" vertex="1" parent="P3hBLRIRSL_TV0yG0XCQ-42">
          <mxGeometry x="30" width="156" height="30" as="geometry">
            <mxRectangle width="156" height="30" as="alternateBounds" />
          </mxGeometry>
        </mxCell>
        <mxCell id="P3hBLRIRSL_TV0yG0XCQ-45" value="" style="shape=tableRow;horizontal=0;startSize=0;swimlaneHead=0;swimlaneBody=0;fillColor=none;collapsible=0;dropTarget=0;points=[[0,0.5],[1,0.5]];portConstraint=eastwest;top=0;left=0;right=0;bottom=0;" vertex="1" parent="P3hBLRIRSL_TV0yG0XCQ-35">
          <mxGeometry y="110" width="186" height="30" as="geometry" />
        </mxCell>
        <mxCell id="P3hBLRIRSL_TV0yG0XCQ-46" value="" style="shape=partialRectangle;connectable=0;fillColor=none;top=0;left=0;bottom=0;right=0;editable=1;overflow=hidden;whiteSpace=wrap;html=1;" vertex="1" parent="P3hBLRIRSL_TV0yG0XCQ-45">
          <mxGeometry width="30" height="30" as="geometry">
            <mxRectangle width="30" height="30" as="alternateBounds" />
          </mxGeometry>
        </mxCell>
        <mxCell id="P3hBLRIRSL_TV0yG0XCQ-47" value="E-mail" style="shape=partialRectangle;connectable=0;fillColor=none;top=0;left=0;bottom=0;right=0;align=left;spacingLeft=6;overflow=hidden;whiteSpace=wrap;html=1;" vertex="1" parent="P3hBLRIRSL_TV0yG0XCQ-45">
          <mxGeometry x="30" width="156" height="30" as="geometry">
            <mxRectangle width="156" height="30" as="alternateBounds" />
          </mxGeometry>
        </mxCell>
        <mxCell id="kIdhYQG7fLx8eibKCi9p-32" style="shape=tableRow;horizontal=0;startSize=0;swimlaneHead=0;swimlaneBody=0;fillColor=none;collapsible=0;dropTarget=0;points=[[0,0.5],[1,0.5]];portConstraint=eastwest;top=0;left=0;right=0;bottom=0;" vertex="1" parent="P3hBLRIRSL_TV0yG0XCQ-35">
          <mxGeometry y="140" width="186" height="30" as="geometry" />
        </mxCell>
        <mxCell id="kIdhYQG7fLx8eibKCi9p-33" style="shape=partialRectangle;connectable=0;fillColor=none;top=0;left=0;bottom=0;right=0;editable=1;overflow=hidden;whiteSpace=wrap;html=1;" vertex="1" parent="kIdhYQG7fLx8eibKCi9p-32">
          <mxGeometry width="30" height="30" as="geometry">
            <mxRectangle width="30" height="30" as="alternateBounds" />
          </mxGeometry>
        </mxCell>
        <mxCell id="kIdhYQG7fLx8eibKCi9p-34" value="CNPJ" style="shape=partialRectangle;connectable=0;fillColor=none;top=0;left=0;bottom=0;right=0;align=left;spacingLeft=6;overflow=hidden;whiteSpace=wrap;html=1;" vertex="1" parent="kIdhYQG7fLx8eibKCi9p-32">
          <mxGeometry x="30" width="156" height="30" as="geometry">
            <mxRectangle width="156" height="30" as="alternateBounds" />
          </mxGeometry>
        </mxCell>
        <mxCell id="kIdhYQG7fLx8eibKCi9p-20" style="shape=tableRow;horizontal=0;startSize=0;swimlaneHead=0;swimlaneBody=0;fillColor=none;collapsible=0;dropTarget=0;points=[[0,0.5],[1,0.5]];portConstraint=eastwest;top=0;left=0;right=0;bottom=0;" vertex="1" parent="P3hBLRIRSL_TV0yG0XCQ-35">
          <mxGeometry y="170" width="186" height="30" as="geometry" />
        </mxCell>
        <mxCell id="kIdhYQG7fLx8eibKCi9p-21" style="shape=partialRectangle;connectable=0;fillColor=none;top=0;left=0;bottom=0;right=0;editable=1;overflow=hidden;whiteSpace=wrap;html=1;" vertex="1" parent="kIdhYQG7fLx8eibKCi9p-20">
          <mxGeometry width="30" height="30" as="geometry">
            <mxRectangle width="30" height="30" as="alternateBounds" />
          </mxGeometry>
        </mxCell>
        <mxCell id="kIdhYQG7fLx8eibKCi9p-22" value="Endereço" style="shape=partialRectangle;connectable=0;fillColor=none;top=0;left=0;bottom=0;right=0;align=left;spacingLeft=6;overflow=hidden;whiteSpace=wrap;html=1;" vertex="1" parent="kIdhYQG7fLx8eibKCi9p-20">
          <mxGeometry x="30" width="156" height="30" as="geometry">
            <mxRectangle width="156" height="30" as="alternateBounds" />
          </mxGeometry>
        </mxCell>
        <mxCell id="kIdhYQG7fLx8eibKCi9p-23" style="shape=tableRow;horizontal=0;startSize=0;swimlaneHead=0;swimlaneBody=0;fillColor=none;collapsible=0;dropTarget=0;points=[[0,0.5],[1,0.5]];portConstraint=eastwest;top=0;left=0;right=0;bottom=0;" vertex="1" parent="P3hBLRIRSL_TV0yG0XCQ-35">
          <mxGeometry y="200" width="186" height="30" as="geometry" />
        </mxCell>
        <mxCell id="kIdhYQG7fLx8eibKCi9p-24" style="shape=partialRectangle;connectable=0;fillColor=none;top=0;left=0;bottom=0;right=0;editable=1;overflow=hidden;whiteSpace=wrap;html=1;" vertex="1" parent="kIdhYQG7fLx8eibKCi9p-23">
          <mxGeometry width="30" height="30" as="geometry">
            <mxRectangle width="30" height="30" as="alternateBounds" />
          </mxGeometry>
        </mxCell>
        <mxCell id="kIdhYQG7fLx8eibKCi9p-25" value="Bairro" style="shape=partialRectangle;connectable=0;fillColor=none;top=0;left=0;bottom=0;right=0;align=left;spacingLeft=6;overflow=hidden;whiteSpace=wrap;html=1;" vertex="1" parent="kIdhYQG7fLx8eibKCi9p-23">
          <mxGeometry x="30" width="156" height="30" as="geometry">
            <mxRectangle width="156" height="30" as="alternateBounds" />
          </mxGeometry>
        </mxCell>
        <mxCell id="kIdhYQG7fLx8eibKCi9p-26" style="shape=tableRow;horizontal=0;startSize=0;swimlaneHead=0;swimlaneBody=0;fillColor=none;collapsible=0;dropTarget=0;points=[[0,0.5],[1,0.5]];portConstraint=eastwest;top=0;left=0;right=0;bottom=0;" vertex="1" parent="P3hBLRIRSL_TV0yG0XCQ-35">
          <mxGeometry y="230" width="186" height="30" as="geometry" />
        </mxCell>
        <mxCell id="kIdhYQG7fLx8eibKCi9p-27" style="shape=partialRectangle;connectable=0;fillColor=none;top=0;left=0;bottom=0;right=0;editable=1;overflow=hidden;whiteSpace=wrap;html=1;" vertex="1" parent="kIdhYQG7fLx8eibKCi9p-26">
          <mxGeometry width="30" height="30" as="geometry">
            <mxRectangle width="30" height="30" as="alternateBounds" />
          </mxGeometry>
        </mxCell>
        <mxCell id="kIdhYQG7fLx8eibKCi9p-28" value="Número" style="shape=partialRectangle;connectable=0;fillColor=none;top=0;left=0;bottom=0;right=0;align=left;spacingLeft=6;overflow=hidden;whiteSpace=wrap;html=1;" vertex="1" parent="kIdhYQG7fLx8eibKCi9p-26">
          <mxGeometry x="30" width="156" height="30" as="geometry">
            <mxRectangle width="156" height="30" as="alternateBounds" />
          </mxGeometry>
        </mxCell>
        <mxCell id="kIdhYQG7fLx8eibKCi9p-29" style="shape=tableRow;horizontal=0;startSize=0;swimlaneHead=0;swimlaneBody=0;fillColor=none;collapsible=0;dropTarget=0;points=[[0,0.5],[1,0.5]];portConstraint=eastwest;top=0;left=0;right=0;bottom=0;" vertex="1" parent="P3hBLRIRSL_TV0yG0XCQ-35">
          <mxGeometry y="260" width="186" height="30" as="geometry" />
        </mxCell>
        <mxCell id="kIdhYQG7fLx8eibKCi9p-30" style="shape=partialRectangle;connectable=0;fillColor=none;top=0;left=0;bottom=0;right=0;editable=1;overflow=hidden;whiteSpace=wrap;html=1;" vertex="1" parent="kIdhYQG7fLx8eibKCi9p-29">
          <mxGeometry width="30" height="30" as="geometry">
            <mxRectangle width="30" height="30" as="alternateBounds" />
          </mxGeometry>
        </mxCell>
        <mxCell id="kIdhYQG7fLx8eibKCi9p-31" value="CEP" style="shape=partialRectangle;connectable=0;fillColor=none;top=0;left=0;bottom=0;right=0;align=left;spacingLeft=6;overflow=hidden;whiteSpace=wrap;html=1;" vertex="1" parent="kIdhYQG7fLx8eibKCi9p-29">
          <mxGeometry x="30" width="156" height="30" as="geometry">
            <mxRectangle width="156" height="30" as="alternateBounds" />
          </mxGeometry>
        </mxCell>
        <mxCell id="P3hBLRIRSL_TV0yG0XCQ-48" value="" style="shape=tableRow;horizontal=0;startSize=0;swimlaneHead=0;swimlaneBody=0;fillColor=none;collapsible=0;dropTarget=0;points=[[0,0.5],[1,0.5]];portConstraint=eastwest;top=0;left=0;right=0;bottom=0;" vertex="1" parent="1">
          <mxGeometry x="260" y="2100" width="180" height="30" as="geometry" />
        </mxCell>
        <mxCell id="P3hBLRIRSL_TV0yG0XCQ-49" value="" style="shape=partialRectangle;connectable=0;fillColor=none;top=0;left=0;bottom=0;right=0;editable=1;overflow=hidden;whiteSpace=wrap;html=1;" vertex="1" parent="P3hBLRIRSL_TV0yG0XCQ-48">
          <mxGeometry width="30" height="30" as="geometry">
            <mxRectangle width="30" height="30" as="alternateBounds" />
          </mxGeometry>
        </mxCell>
        <mxCell id="kIdhYQG7fLx8eibKCi9p-1" value="Peça" style="shape=table;startSize=30;container=1;collapsible=1;childLayout=tableLayout;fixedRows=1;rowLines=0;fontStyle=1;align=center;resizeLast=1;html=1;" vertex="1" parent="1">
          <mxGeometry x="500" y="1960" width="186" height="200" as="geometry" />
        </mxCell>
        <mxCell id="kIdhYQG7fLx8eibKCi9p-2" value="" style="shape=tableRow;horizontal=0;startSize=0;swimlaneHead=0;swimlaneBody=0;fillColor=none;collapsible=0;dropTarget=0;points=[[0,0.5],[1,0.5]];portConstraint=eastwest;top=0;left=0;right=0;bottom=1;" vertex="1" parent="kIdhYQG7fLx8eibKCi9p-1">
          <mxGeometry y="30" width="186" height="30" as="geometry" />
        </mxCell>
        <mxCell id="kIdhYQG7fLx8eibKCi9p-3" value="PK" style="shape=partialRectangle;connectable=0;fillColor=none;top=0;left=0;bottom=0;right=0;fontStyle=1;overflow=hidden;whiteSpace=wrap;html=1;" vertex="1" parent="kIdhYQG7fLx8eibKCi9p-2">
          <mxGeometry width="30" height="30" as="geometry">
            <mxRectangle width="30" height="30" as="alternateBounds" />
          </mxGeometry>
        </mxCell>
        <mxCell id="kIdhYQG7fLx8eibKCi9p-4" value="id_peca" style="shape=partialRectangle;connectable=0;fillColor=none;top=0;left=0;bottom=0;right=0;align=left;spacingLeft=6;fontStyle=5;overflow=hidden;whiteSpace=wrap;html=1;" vertex="1" parent="kIdhYQG7fLx8eibKCi9p-2">
          <mxGeometry x="30" width="156" height="30" as="geometry">
            <mxRectangle width="156" height="30" as="alternateBounds" />
          </mxGeometry>
        </mxCell>
        <mxCell id="kIdhYQG7fLx8eibKCi9p-5" value="" style="shape=tableRow;horizontal=0;startSize=0;swimlaneHead=0;swimlaneBody=0;fillColor=none;collapsible=0;dropTarget=0;points=[[0,0.5],[1,0.5]];portConstraint=eastwest;top=0;left=0;right=0;bottom=0;" vertex="1" parent="kIdhYQG7fLx8eibKCi9p-1">
          <mxGeometry y="60" width="186" height="20" as="geometry" />
        </mxCell>
        <mxCell id="kIdhYQG7fLx8eibKCi9p-6" value="" style="shape=partialRectangle;connectable=0;fillColor=none;top=0;left=0;bottom=0;right=0;editable=1;overflow=hidden;whiteSpace=wrap;html=1;" vertex="1" parent="kIdhYQG7fLx8eibKCi9p-5">
          <mxGeometry width="30" height="20" as="geometry">
            <mxRectangle width="30" height="20" as="alternateBounds" />
          </mxGeometry>
        </mxCell>
        <mxCell id="kIdhYQG7fLx8eibKCi9p-7" value="Nome" style="shape=partialRectangle;connectable=0;fillColor=none;top=0;left=0;bottom=0;right=0;align=left;spacingLeft=6;overflow=hidden;whiteSpace=wrap;html=1;" vertex="1" parent="kIdhYQG7fLx8eibKCi9p-5">
          <mxGeometry x="30" width="156" height="20" as="geometry">
            <mxRectangle width="156" height="20" as="alternateBounds" />
          </mxGeometry>
        </mxCell>
        <mxCell id="kIdhYQG7fLx8eibKCi9p-8" value="" style="shape=tableRow;horizontal=0;startSize=0;swimlaneHead=0;swimlaneBody=0;fillColor=none;collapsible=0;dropTarget=0;points=[[0,0.5],[1,0.5]];portConstraint=eastwest;top=0;left=0;right=0;bottom=0;" vertex="1" parent="kIdhYQG7fLx8eibKCi9p-1">
          <mxGeometry y="80" width="186" height="30" as="geometry" />
        </mxCell>
        <mxCell id="kIdhYQG7fLx8eibKCi9p-9" value="" style="shape=partialRectangle;connectable=0;fillColor=none;top=0;left=0;bottom=0;right=0;editable=1;overflow=hidden;whiteSpace=wrap;html=1;" vertex="1" parent="kIdhYQG7fLx8eibKCi9p-8">
          <mxGeometry width="30" height="30" as="geometry">
            <mxRectangle width="30" height="30" as="alternateBounds" />
          </mxGeometry>
        </mxCell>
        <mxCell id="kIdhYQG7fLx8eibKCi9p-10" value="Marca" style="shape=partialRectangle;connectable=0;fillColor=none;top=0;left=0;bottom=0;right=0;align=left;spacingLeft=6;overflow=hidden;whiteSpace=wrap;html=1;" vertex="1" parent="kIdhYQG7fLx8eibKCi9p-8">
          <mxGeometry x="30" width="156" height="30" as="geometry">
            <mxRectangle width="156" height="30" as="alternateBounds" />
          </mxGeometry>
        </mxCell>
        <mxCell id="kIdhYQG7fLx8eibKCi9p-11" value="" style="shape=tableRow;horizontal=0;startSize=0;swimlaneHead=0;swimlaneBody=0;fillColor=none;collapsible=0;dropTarget=0;points=[[0,0.5],[1,0.5]];portConstraint=eastwest;top=0;left=0;right=0;bottom=0;" vertex="1" parent="kIdhYQG7fLx8eibKCi9p-1">
          <mxGeometry y="110" width="186" height="30" as="geometry" />
        </mxCell>
        <mxCell id="kIdhYQG7fLx8eibKCi9p-12" value="" style="shape=partialRectangle;connectable=0;fillColor=none;top=0;left=0;bottom=0;right=0;editable=1;overflow=hidden;whiteSpace=wrap;html=1;" vertex="1" parent="kIdhYQG7fLx8eibKCi9p-11">
          <mxGeometry width="30" height="30" as="geometry">
            <mxRectangle width="30" height="30" as="alternateBounds" />
          </mxGeometry>
        </mxCell>
        <mxCell id="kIdhYQG7fLx8eibKCi9p-13" value="Quantidade" style="shape=partialRectangle;connectable=0;fillColor=none;top=0;left=0;bottom=0;right=0;align=left;spacingLeft=6;overflow=hidden;whiteSpace=wrap;html=1;" vertex="1" parent="kIdhYQG7fLx8eibKCi9p-11">
          <mxGeometry x="30" width="156" height="30" as="geometry">
            <mxRectangle width="156" height="30" as="alternateBounds" />
          </mxGeometry>
        </mxCell>
        <mxCell id="kIdhYQG7fLx8eibKCi9p-14" style="shape=tableRow;horizontal=0;startSize=0;swimlaneHead=0;swimlaneBody=0;fillColor=none;collapsible=0;dropTarget=0;points=[[0,0.5],[1,0.5]];portConstraint=eastwest;top=0;left=0;right=0;bottom=0;" vertex="1" parent="kIdhYQG7fLx8eibKCi9p-1">
          <mxGeometry y="140" width="186" height="30" as="geometry" />
        </mxCell>
        <mxCell id="kIdhYQG7fLx8eibKCi9p-15" style="shape=partialRectangle;connectable=0;fillColor=none;top=0;left=0;bottom=0;right=0;editable=1;overflow=hidden;whiteSpace=wrap;html=1;" vertex="1" parent="kIdhYQG7fLx8eibKCi9p-14">
          <mxGeometry width="30" height="30" as="geometry">
            <mxRectangle width="30" height="30" as="alternateBounds" />
          </mxGeometry>
        </mxCell>
        <mxCell id="kIdhYQG7fLx8eibKCi9p-16" value="Valor" style="shape=partialRectangle;connectable=0;fillColor=none;top=0;left=0;bottom=0;right=0;align=left;spacingLeft=6;overflow=hidden;whiteSpace=wrap;html=1;" vertex="1" parent="kIdhYQG7fLx8eibKCi9p-14">
          <mxGeometry x="30" width="156" height="30" as="geometry">
            <mxRectangle width="156" height="30" as="alternateBounds" />
          </mxGeometry>
        </mxCell>
        <mxCell id="kIdhYQG7fLx8eibKCi9p-17" style="shape=tableRow;horizontal=0;startSize=0;swimlaneHead=0;swimlaneBody=0;fillColor=none;collapsible=0;dropTarget=0;points=[[0,0.5],[1,0.5]];portConstraint=eastwest;top=0;left=0;right=0;bottom=0;" vertex="1" parent="kIdhYQG7fLx8eibKCi9p-1">
          <mxGeometry y="170" width="186" height="30" as="geometry" />
        </mxCell>
        <mxCell id="kIdhYQG7fLx8eibKCi9p-18" style="shape=partialRectangle;connectable=0;fillColor=none;top=0;left=0;bottom=0;right=0;editable=1;overflow=hidden;whiteSpace=wrap;html=1;" vertex="1" parent="kIdhYQG7fLx8eibKCi9p-17">
          <mxGeometry width="30" height="30" as="geometry">
            <mxRectangle width="30" height="30" as="alternateBounds" />
          </mxGeometry>
        </mxCell>
        <mxCell id="kIdhYQG7fLx8eibKCi9p-19" value="Descrição" style="shape=partialRectangle;connectable=0;fillColor=none;top=0;left=0;bottom=0;right=0;align=left;spacingLeft=6;overflow=hidden;whiteSpace=wrap;html=1;" vertex="1" parent="kIdhYQG7fLx8eibKCi9p-17">
          <mxGeometry x="30" width="156" height="30" as="geometry">
            <mxRectangle width="156" height="30" as="alternateBounds" />
          </mxGeometry>
        </mxCell>
        <mxCell id="kIdhYQG7fLx8eibKCi9p-35" value="Serviço" style="shape=table;startSize=30;container=1;collapsible=1;childLayout=tableLayout;fixedRows=1;rowLines=0;fontStyle=1;align=center;resizeLast=1;html=1;" vertex="1" parent="1">
          <mxGeometry x="1010" y="2130" width="186" height="180" as="geometry" />
        </mxCell>
        <mxCell id="kIdhYQG7fLx8eibKCi9p-36" value="" style="shape=tableRow;horizontal=0;startSize=0;swimlaneHead=0;swimlaneBody=0;fillColor=none;collapsible=0;dropTarget=0;points=[[0,0.5],[1,0.5]];portConstraint=eastwest;top=0;left=0;right=0;bottom=1;" vertex="1" parent="kIdhYQG7fLx8eibKCi9p-35">
          <mxGeometry y="30" width="186" height="30" as="geometry" />
        </mxCell>
        <mxCell id="kIdhYQG7fLx8eibKCi9p-37" value="PK" style="shape=partialRectangle;connectable=0;fillColor=none;top=0;left=0;bottom=0;right=0;fontStyle=1;overflow=hidden;whiteSpace=wrap;html=1;" vertex="1" parent="kIdhYQG7fLx8eibKCi9p-36">
          <mxGeometry width="30" height="30" as="geometry">
            <mxRectangle width="30" height="30" as="alternateBounds" />
          </mxGeometry>
        </mxCell>
        <mxCell id="kIdhYQG7fLx8eibKCi9p-38" value="id_servico" style="shape=partialRectangle;connectable=0;fillColor=none;top=0;left=0;bottom=0;right=0;align=left;spacingLeft=6;fontStyle=5;overflow=hidden;whiteSpace=wrap;html=1;" vertex="1" parent="kIdhYQG7fLx8eibKCi9p-36">
          <mxGeometry x="30" width="156" height="30" as="geometry">
            <mxRectangle width="156" height="30" as="alternateBounds" />
          </mxGeometry>
        </mxCell>
        <mxCell id="kIdhYQG7fLx8eibKCi9p-58" value="" style="shape=tableRow;horizontal=0;startSize=0;swimlaneHead=0;swimlaneBody=0;fillColor=none;collapsible=0;dropTarget=0;points=[[0,0.5],[1,0.5]];portConstraint=eastwest;top=0;left=0;right=0;bottom=0;" vertex="1" parent="kIdhYQG7fLx8eibKCi9p-35">
          <mxGeometry y="60" width="186" height="30" as="geometry" />
        </mxCell>
        <mxCell id="kIdhYQG7fLx8eibKCi9p-59" value="FK" style="shape=partialRectangle;connectable=0;fillColor=none;top=0;left=0;bottom=0;right=0;fontStyle=0;overflow=hidden;whiteSpace=wrap;html=1;" vertex="1" parent="kIdhYQG7fLx8eibKCi9p-58">
          <mxGeometry width="30" height="30" as="geometry">
            <mxRectangle width="30" height="30" as="alternateBounds" />
          </mxGeometry>
        </mxCell>
        <mxCell id="kIdhYQG7fLx8eibKCi9p-60" value="tipo_servico" style="shape=partialRectangle;connectable=0;fillColor=none;top=0;left=0;bottom=0;right=0;align=left;spacingLeft=6;fontStyle=0;overflow=hidden;whiteSpace=wrap;html=1;" vertex="1" parent="kIdhYQG7fLx8eibKCi9p-58">
          <mxGeometry x="30" width="156" height="30" as="geometry">
            <mxRectangle width="156" height="30" as="alternateBounds" />
          </mxGeometry>
        </mxCell>
        <mxCell id="kIdhYQG7fLx8eibKCi9p-65" value="" style="shape=tableRow;horizontal=0;startSize=0;swimlaneHead=0;swimlaneBody=0;fillColor=none;collapsible=0;dropTarget=0;points=[[0,0.5],[1,0.5]];portConstraint=eastwest;top=0;left=0;right=0;bottom=0;" vertex="1" parent="kIdhYQG7fLx8eibKCi9p-35">
          <mxGeometry y="90" width="186" height="30" as="geometry" />
        </mxCell>
        <mxCell id="kIdhYQG7fLx8eibKCi9p-66" value="FK" style="shape=partialRectangle;connectable=0;fillColor=none;top=0;left=0;bottom=0;right=0;fontStyle=0;overflow=hidden;whiteSpace=wrap;html=1;" vertex="1" parent="kIdhYQG7fLx8eibKCi9p-65">
          <mxGeometry width="30" height="30" as="geometry">
            <mxRectangle width="30" height="30" as="alternateBounds" />
          </mxGeometry>
        </mxCell>
        <mxCell id="kIdhYQG7fLx8eibKCi9p-67" value="id_cliente" style="shape=partialRectangle;connectable=0;fillColor=none;top=0;left=0;bottom=0;right=0;align=left;spacingLeft=6;fontStyle=0;overflow=hidden;whiteSpace=wrap;html=1;" vertex="1" parent="kIdhYQG7fLx8eibKCi9p-65">
          <mxGeometry x="30" width="156" height="30" as="geometry">
            <mxRectangle width="156" height="30" as="alternateBounds" />
          </mxGeometry>
        </mxCell>
        <mxCell id="kIdhYQG7fLx8eibKCi9p-61" style="shape=tableRow;horizontal=0;startSize=0;swimlaneHead=0;swimlaneBody=0;fillColor=none;collapsible=0;dropTarget=0;points=[[0,0.5],[1,0.5]];portConstraint=eastwest;top=0;left=0;right=0;bottom=0;" vertex="1" parent="kIdhYQG7fLx8eibKCi9p-35">
          <mxGeometry y="120" width="186" height="30" as="geometry" />
        </mxCell>
        <mxCell id="kIdhYQG7fLx8eibKCi9p-62" style="shape=partialRectangle;connectable=0;fillColor=none;top=0;left=0;bottom=0;right=0;fontStyle=0;overflow=hidden;whiteSpace=wrap;html=1;" vertex="1" parent="kIdhYQG7fLx8eibKCi9p-61">
          <mxGeometry width="30" height="30" as="geometry">
            <mxRectangle width="30" height="30" as="alternateBounds" />
          </mxGeometry>
        </mxCell>
        <mxCell id="kIdhYQG7fLx8eibKCi9p-63" value="Data" style="shape=partialRectangle;connectable=0;fillColor=none;top=0;left=0;bottom=0;right=0;align=left;spacingLeft=6;fontStyle=0;overflow=hidden;whiteSpace=wrap;html=1;" vertex="1" parent="kIdhYQG7fLx8eibKCi9p-61">
          <mxGeometry x="30" width="156" height="30" as="geometry">
            <mxRectangle width="156" height="30" as="alternateBounds" />
          </mxGeometry>
        </mxCell>
        <mxCell id="kIdhYQG7fLx8eibKCi9p-68" style="shape=tableRow;horizontal=0;startSize=0;swimlaneHead=0;swimlaneBody=0;fillColor=none;collapsible=0;dropTarget=0;points=[[0,0.5],[1,0.5]];portConstraint=eastwest;top=0;left=0;right=0;bottom=0;" vertex="1" parent="kIdhYQG7fLx8eibKCi9p-35">
          <mxGeometry y="150" width="186" height="30" as="geometry" />
        </mxCell>
        <mxCell id="kIdhYQG7fLx8eibKCi9p-69" style="shape=partialRectangle;connectable=0;fillColor=none;top=0;left=0;bottom=0;right=0;fontStyle=0;overflow=hidden;whiteSpace=wrap;html=1;" vertex="1" parent="kIdhYQG7fLx8eibKCi9p-68">
          <mxGeometry width="30" height="30" as="geometry">
            <mxRectangle width="30" height="30" as="alternateBounds" />
          </mxGeometry>
        </mxCell>
        <mxCell id="kIdhYQG7fLx8eibKCi9p-70" value="Horário" style="shape=partialRectangle;connectable=0;fillColor=none;top=0;left=0;bottom=0;right=0;align=left;spacingLeft=6;fontStyle=0;overflow=hidden;whiteSpace=wrap;html=1;" vertex="1" parent="kIdhYQG7fLx8eibKCi9p-68">
          <mxGeometry x="30" width="156" height="30" as="geometry">
            <mxRectangle width="156" height="30" as="alternateBounds" />
          </mxGeometry>
        </mxCell>
        <mxCell id="kIdhYQG7fLx8eibKCi9p-71" value="Agendamento" style="shape=table;startSize=30;container=1;collapsible=1;childLayout=tableLayout;fixedRows=1;rowLines=0;fontStyle=1;align=center;resizeLast=1;html=1;" vertex="1" parent="1">
          <mxGeometry x="1010" y="2338" width="186" height="230" as="geometry" />
        </mxCell>
        <mxCell id="kIdhYQG7fLx8eibKCi9p-72" value="" style="shape=tableRow;horizontal=0;startSize=0;swimlaneHead=0;swimlaneBody=0;fillColor=none;collapsible=0;dropTarget=0;points=[[0,0.5],[1,0.5]];portConstraint=eastwest;top=0;left=0;right=0;bottom=1;" vertex="1" parent="kIdhYQG7fLx8eibKCi9p-71">
          <mxGeometry y="30" width="186" height="30" as="geometry" />
        </mxCell>
        <mxCell id="kIdhYQG7fLx8eibKCi9p-73" value="PK" style="shape=partialRectangle;connectable=0;fillColor=none;top=0;left=0;bottom=0;right=0;fontStyle=1;overflow=hidden;whiteSpace=wrap;html=1;" vertex="1" parent="kIdhYQG7fLx8eibKCi9p-72">
          <mxGeometry width="30" height="30" as="geometry">
            <mxRectangle width="30" height="30" as="alternateBounds" />
          </mxGeometry>
        </mxCell>
        <mxCell id="kIdhYQG7fLx8eibKCi9p-74" value="id_agendamento" style="shape=partialRectangle;connectable=0;fillColor=none;top=0;left=0;bottom=0;right=0;align=left;spacingLeft=6;fontStyle=5;overflow=hidden;whiteSpace=wrap;html=1;" vertex="1" parent="kIdhYQG7fLx8eibKCi9p-72">
          <mxGeometry x="30" width="156" height="30" as="geometry">
            <mxRectangle width="156" height="30" as="alternateBounds" />
          </mxGeometry>
        </mxCell>
        <mxCell id="kIdhYQG7fLx8eibKCi9p-214" value="" style="shape=tableRow;horizontal=0;startSize=0;swimlaneHead=0;swimlaneBody=0;fillColor=none;collapsible=0;dropTarget=0;points=[[0,0.5],[1,0.5]];portConstraint=eastwest;top=0;left=0;right=0;bottom=0;" vertex="1" parent="kIdhYQG7fLx8eibKCi9p-71">
          <mxGeometry y="60" width="186" height="30" as="geometry" />
        </mxCell>
        <mxCell id="kIdhYQG7fLx8eibKCi9p-215" value="FK" style="shape=partialRectangle;connectable=0;fillColor=none;top=0;left=0;bottom=0;right=0;fontStyle=0;overflow=hidden;whiteSpace=wrap;html=1;" vertex="1" parent="kIdhYQG7fLx8eibKCi9p-214">
          <mxGeometry width="30" height="30" as="geometry">
            <mxRectangle width="30" height="30" as="alternateBounds" />
          </mxGeometry>
        </mxCell>
        <mxCell id="kIdhYQG7fLx8eibKCi9p-216" value="id_servico" style="shape=partialRectangle;connectable=0;fillColor=none;top=0;left=0;bottom=0;right=0;align=left;spacingLeft=6;fontStyle=0;overflow=hidden;whiteSpace=wrap;html=1;" vertex="1" parent="kIdhYQG7fLx8eibKCi9p-214">
          <mxGeometry x="30" width="156" height="30" as="geometry">
            <mxRectangle width="156" height="30" as="alternateBounds" />
          </mxGeometry>
        </mxCell>
        <mxCell id="kIdhYQG7fLx8eibKCi9p-75" value="" style="shape=tableRow;horizontal=0;startSize=0;swimlaneHead=0;swimlaneBody=0;fillColor=none;collapsible=0;dropTarget=0;points=[[0,0.5],[1,0.5]];portConstraint=eastwest;top=0;left=0;right=0;bottom=0;" vertex="1" parent="kIdhYQG7fLx8eibKCi9p-71">
          <mxGeometry y="90" width="186" height="20" as="geometry" />
        </mxCell>
        <mxCell id="kIdhYQG7fLx8eibKCi9p-76" value="" style="shape=partialRectangle;connectable=0;fillColor=none;top=0;left=0;bottom=0;right=0;editable=1;overflow=hidden;whiteSpace=wrap;html=1;" vertex="1" parent="kIdhYQG7fLx8eibKCi9p-75">
          <mxGeometry width="30" height="20" as="geometry">
            <mxRectangle width="30" height="20" as="alternateBounds" />
          </mxGeometry>
        </mxCell>
        <mxCell id="kIdhYQG7fLx8eibKCi9p-77" value="Nome" style="shape=partialRectangle;connectable=0;fillColor=none;top=0;left=0;bottom=0;right=0;align=left;spacingLeft=6;overflow=hidden;whiteSpace=wrap;html=1;" vertex="1" parent="kIdhYQG7fLx8eibKCi9p-75">
          <mxGeometry x="30" width="156" height="20" as="geometry">
            <mxRectangle width="156" height="20" as="alternateBounds" />
          </mxGeometry>
        </mxCell>
        <mxCell id="kIdhYQG7fLx8eibKCi9p-78" value="" style="shape=tableRow;horizontal=0;startSize=0;swimlaneHead=0;swimlaneBody=0;fillColor=none;collapsible=0;dropTarget=0;points=[[0,0.5],[1,0.5]];portConstraint=eastwest;top=0;left=0;right=0;bottom=0;" vertex="1" parent="kIdhYQG7fLx8eibKCi9p-71">
          <mxGeometry y="110" width="186" height="30" as="geometry" />
        </mxCell>
        <mxCell id="kIdhYQG7fLx8eibKCi9p-79" value="" style="shape=partialRectangle;connectable=0;fillColor=none;top=0;left=0;bottom=0;right=0;editable=1;overflow=hidden;whiteSpace=wrap;html=1;" vertex="1" parent="kIdhYQG7fLx8eibKCi9p-78">
          <mxGeometry width="30" height="30" as="geometry">
            <mxRectangle width="30" height="30" as="alternateBounds" />
          </mxGeometry>
        </mxCell>
        <mxCell id="kIdhYQG7fLx8eibKCi9p-80" value="Marca" style="shape=partialRectangle;connectable=0;fillColor=none;top=0;left=0;bottom=0;right=0;align=left;spacingLeft=6;overflow=hidden;whiteSpace=wrap;html=1;" vertex="1" parent="kIdhYQG7fLx8eibKCi9p-78">
          <mxGeometry x="30" width="156" height="30" as="geometry">
            <mxRectangle width="156" height="30" as="alternateBounds" />
          </mxGeometry>
        </mxCell>
        <mxCell id="kIdhYQG7fLx8eibKCi9p-81" value="" style="shape=tableRow;horizontal=0;startSize=0;swimlaneHead=0;swimlaneBody=0;fillColor=none;collapsible=0;dropTarget=0;points=[[0,0.5],[1,0.5]];portConstraint=eastwest;top=0;left=0;right=0;bottom=0;" vertex="1" parent="kIdhYQG7fLx8eibKCi9p-71">
          <mxGeometry y="140" width="186" height="30" as="geometry" />
        </mxCell>
        <mxCell id="kIdhYQG7fLx8eibKCi9p-82" value="" style="shape=partialRectangle;connectable=0;fillColor=none;top=0;left=0;bottom=0;right=0;editable=1;overflow=hidden;whiteSpace=wrap;html=1;" vertex="1" parent="kIdhYQG7fLx8eibKCi9p-81">
          <mxGeometry width="30" height="30" as="geometry">
            <mxRectangle width="30" height="30" as="alternateBounds" />
          </mxGeometry>
        </mxCell>
        <mxCell id="kIdhYQG7fLx8eibKCi9p-83" value="Quantidade" style="shape=partialRectangle;connectable=0;fillColor=none;top=0;left=0;bottom=0;right=0;align=left;spacingLeft=6;overflow=hidden;whiteSpace=wrap;html=1;" vertex="1" parent="kIdhYQG7fLx8eibKCi9p-81">
          <mxGeometry x="30" width="156" height="30" as="geometry">
            <mxRectangle width="156" height="30" as="alternateBounds" />
          </mxGeometry>
        </mxCell>
        <mxCell id="kIdhYQG7fLx8eibKCi9p-84" style="shape=tableRow;horizontal=0;startSize=0;swimlaneHead=0;swimlaneBody=0;fillColor=none;collapsible=0;dropTarget=0;points=[[0,0.5],[1,0.5]];portConstraint=eastwest;top=0;left=0;right=0;bottom=0;" vertex="1" parent="kIdhYQG7fLx8eibKCi9p-71">
          <mxGeometry y="170" width="186" height="30" as="geometry" />
        </mxCell>
        <mxCell id="kIdhYQG7fLx8eibKCi9p-85" style="shape=partialRectangle;connectable=0;fillColor=none;top=0;left=0;bottom=0;right=0;editable=1;overflow=hidden;whiteSpace=wrap;html=1;" vertex="1" parent="kIdhYQG7fLx8eibKCi9p-84">
          <mxGeometry width="30" height="30" as="geometry">
            <mxRectangle width="30" height="30" as="alternateBounds" />
          </mxGeometry>
        </mxCell>
        <mxCell id="kIdhYQG7fLx8eibKCi9p-86" value="Valor" style="shape=partialRectangle;connectable=0;fillColor=none;top=0;left=0;bottom=0;right=0;align=left;spacingLeft=6;overflow=hidden;whiteSpace=wrap;html=1;" vertex="1" parent="kIdhYQG7fLx8eibKCi9p-84">
          <mxGeometry x="30" width="156" height="30" as="geometry">
            <mxRectangle width="156" height="30" as="alternateBounds" />
          </mxGeometry>
        </mxCell>
        <mxCell id="kIdhYQG7fLx8eibKCi9p-87" style="shape=tableRow;horizontal=0;startSize=0;swimlaneHead=0;swimlaneBody=0;fillColor=none;collapsible=0;dropTarget=0;points=[[0,0.5],[1,0.5]];portConstraint=eastwest;top=0;left=0;right=0;bottom=0;" vertex="1" parent="kIdhYQG7fLx8eibKCi9p-71">
          <mxGeometry y="200" width="186" height="30" as="geometry" />
        </mxCell>
        <mxCell id="kIdhYQG7fLx8eibKCi9p-88" style="shape=partialRectangle;connectable=0;fillColor=none;top=0;left=0;bottom=0;right=0;editable=1;overflow=hidden;whiteSpace=wrap;html=1;" vertex="1" parent="kIdhYQG7fLx8eibKCi9p-87">
          <mxGeometry width="30" height="30" as="geometry">
            <mxRectangle width="30" height="30" as="alternateBounds" />
          </mxGeometry>
        </mxCell>
        <mxCell id="kIdhYQG7fLx8eibKCi9p-89" value="Descrição" style="shape=partialRectangle;connectable=0;fillColor=none;top=0;left=0;bottom=0;right=0;align=left;spacingLeft=6;overflow=hidden;whiteSpace=wrap;html=1;" vertex="1" parent="kIdhYQG7fLx8eibKCi9p-87">
          <mxGeometry x="30" width="156" height="30" as="geometry">
            <mxRectangle width="156" height="30" as="alternateBounds" />
          </mxGeometry>
        </mxCell>
        <mxCell id="kIdhYQG7fLx8eibKCi9p-91" value="&lt;font style=&quot;font-size: 10px;&quot;&gt;Nome&lt;/font&gt;" style="text;html=1;align=center;verticalAlign=middle;resizable=0;points=[];autosize=1;strokeColor=none;fillColor=none;" vertex="1" parent="1">
          <mxGeometry x="126" y="1230" width="50" height="30" as="geometry" />
        </mxCell>
        <mxCell id="kIdhYQG7fLx8eibKCi9p-92" style="edgeStyle=orthogonalEdgeStyle;rounded=0;orthogonalLoop=1;jettySize=auto;html=1;endArrow=oval;endFill=0;" edge="1" parent="1" source="kIdhYQG7fLx8eibKCi9p-93">
          <mxGeometry relative="1" as="geometry">
            <mxPoint x="149.5" y="950" as="targetPoint" />
          </mxGeometry>
        </mxCell>
        <mxCell id="kIdhYQG7fLx8eibKCi9p-93" value="&lt;div&gt;Loja&lt;/div&gt;" style="html=1;dashed=0;whiteSpace=wrap;" vertex="1" parent="1">
          <mxGeometry x="99.5" y="971" width="100" height="50" as="geometry" />
        </mxCell>
        <mxCell id="kIdhYQG7fLx8eibKCi9p-94" value="" style="edgeStyle=orthogonalEdgeStyle;rounded=0;orthogonalLoop=1;jettySize=auto;html=1;endArrow=oval;endFill=1;exitX=0.25;exitY=0;exitDx=0;exitDy=0;" edge="1" parent="1" source="kIdhYQG7fLx8eibKCi9p-93">
          <mxGeometry relative="1" as="geometry">
            <mxPoint x="109.5" y="931" as="sourcePoint" />
            <mxPoint x="124.5" y="931" as="targetPoint" />
          </mxGeometry>
        </mxCell>
        <mxCell id="kIdhYQG7fLx8eibKCi9p-95" value="id_loja" style="text;html=1;align=center;verticalAlign=middle;resizable=0;points=[];autosize=1;strokeColor=none;fillColor=none;fontSize=10;" vertex="1" parent="1">
          <mxGeometry x="121.5" y="915" width="50" height="30" as="geometry" />
        </mxCell>
        <mxCell id="kIdhYQG7fLx8eibKCi9p-96" value="&lt;font style=&quot;font-size: 10px;&quot;&gt;Nome&lt;/font&gt;" style="text;html=1;align=center;verticalAlign=middle;resizable=0;points=[];autosize=1;strokeColor=none;fillColor=none;" vertex="1" parent="1">
          <mxGeometry x="143" y="934" width="50" height="30" as="geometry" />
        </mxCell>
        <mxCell id="kIdhYQG7fLx8eibKCi9p-184" value="" style="edgeStyle=orthogonalEdgeStyle;rounded=0;orthogonalLoop=1;jettySize=auto;html=1;endArrow=none;endFill=0;" edge="1" parent="1" source="kIdhYQG7fLx8eibKCi9p-97" target="kIdhYQG7fLx8eibKCi9p-183">
          <mxGeometry relative="1" as="geometry" />
        </mxCell>
        <mxCell id="kIdhYQG7fLx8eibKCi9p-97" value="&lt;div&gt;Cliente&lt;/div&gt;" style="html=1;dashed=0;whiteSpace=wrap;" vertex="1" parent="1">
          <mxGeometry x="470.25" y="1600" width="100" height="50" as="geometry" />
        </mxCell>
        <mxCell id="kIdhYQG7fLx8eibKCi9p-98" value="" style="edgeStyle=orthogonalEdgeStyle;rounded=0;orthogonalLoop=1;jettySize=auto;html=1;endArrow=oval;endFill=1;exitX=0.068;exitY=0.003;exitDx=0;exitDy=0;exitPerimeter=0;" edge="1" parent="1" source="kIdhYQG7fLx8eibKCi9p-97">
          <mxGeometry relative="1" as="geometry">
            <mxPoint x="470.25" y="1574.76" as="sourcePoint" />
            <mxPoint x="477.25" y="1530" as="targetPoint" />
          </mxGeometry>
        </mxCell>
        <mxCell id="kIdhYQG7fLx8eibKCi9p-99" value="id_cliente" style="text;html=1;align=center;verticalAlign=middle;resizable=0;points=[];autosize=1;strokeColor=none;fillColor=none;fontSize=10;" vertex="1" parent="1">
          <mxGeometry x="469.25" y="1514" width="70" height="30" as="geometry" />
        </mxCell>
        <mxCell id="kIdhYQG7fLx8eibKCi9p-100" value="" style="edgeStyle=orthogonalEdgeStyle;rounded=0;orthogonalLoop=1;jettySize=auto;html=1;endArrow=oval;endFill=0;exitX=0.25;exitY=0;exitDx=0;exitDy=0;" edge="1" parent="1" source="kIdhYQG7fLx8eibKCi9p-97">
          <mxGeometry relative="1" as="geometry">
            <mxPoint x="510.25" y="1580" as="sourcePoint" />
            <mxPoint x="495.25" y="1550" as="targetPoint" />
          </mxGeometry>
        </mxCell>
        <mxCell id="kIdhYQG7fLx8eibKCi9p-101" value="&lt;font style=&quot;font-size: 10px;&quot;&gt;Nome&lt;/font&gt;" style="text;html=1;align=center;verticalAlign=middle;resizable=0;points=[];autosize=1;strokeColor=none;fillColor=none;" vertex="1" parent="1">
          <mxGeometry x="489.25" y="1533" width="50" height="30" as="geometry" />
        </mxCell>
        <mxCell id="kIdhYQG7fLx8eibKCi9p-102" value="" style="edgeStyle=orthogonalEdgeStyle;rounded=0;orthogonalLoop=1;jettySize=auto;html=1;endArrow=oval;endFill=0;exitX=0.401;exitY=0.01;exitDx=0;exitDy=0;exitPerimeter=0;" edge="1" parent="1" source="kIdhYQG7fLx8eibKCi9p-97">
          <mxGeometry relative="1" as="geometry">
            <mxPoint x="600.25" y="1570" as="sourcePoint" />
            <mxPoint x="510.25" y="1570" as="targetPoint" />
          </mxGeometry>
        </mxCell>
        <mxCell id="kIdhYQG7fLx8eibKCi9p-103" value="&lt;font style=&quot;font-size: 10px;&quot;&gt;Telefone&lt;/font&gt;" style="text;html=1;align=center;verticalAlign=middle;resizable=0;points=[];autosize=1;strokeColor=none;fillColor=none;" vertex="1" parent="1">
          <mxGeometry x="501.25" y="1553" width="70" height="30" as="geometry" />
        </mxCell>
        <mxCell id="kIdhYQG7fLx8eibKCi9p-104" value="" style="edgeStyle=orthogonalEdgeStyle;rounded=0;orthogonalLoop=1;jettySize=auto;html=1;endArrow=oval;endFill=0;exitX=0.529;exitY=-0.009;exitDx=0;exitDy=0;exitPerimeter=0;" edge="1" parent="1" source="kIdhYQG7fLx8eibKCi9p-97">
          <mxGeometry relative="1" as="geometry">
            <mxPoint x="520.25" y="1590" as="sourcePoint" />
            <mxPoint x="523.25" y="1590" as="targetPoint" />
          </mxGeometry>
        </mxCell>
        <mxCell id="kIdhYQG7fLx8eibKCi9p-105" value="&lt;font style=&quot;font-size: 10px;&quot;&gt;Email&lt;/font&gt;" style="text;html=1;align=center;verticalAlign=middle;resizable=0;points=[];autosize=1;strokeColor=none;fillColor=none;" vertex="1" parent="1">
          <mxGeometry x="517.25" y="1573" width="50" height="30" as="geometry" />
        </mxCell>
        <mxCell id="kIdhYQG7fLx8eibKCi9p-168" value="" style="edgeStyle=orthogonalEdgeStyle;rounded=0;orthogonalLoop=1;jettySize=auto;html=1;endArrow=none;endFill=0;" edge="1" parent="1" source="kIdhYQG7fLx8eibKCi9p-106" target="kIdhYQG7fLx8eibKCi9p-167">
          <mxGeometry relative="1" as="geometry" />
        </mxCell>
        <mxCell id="kIdhYQG7fLx8eibKCi9p-106" value="&lt;div&gt;Fornecedor&lt;/div&gt;" style="html=1;dashed=0;whiteSpace=wrap;" vertex="1" parent="1">
          <mxGeometry x="388.25" y="1267" width="100" height="50" as="geometry" />
        </mxCell>
        <mxCell id="kIdhYQG7fLx8eibKCi9p-107" value="" style="edgeStyle=orthogonalEdgeStyle;rounded=0;orthogonalLoop=1;jettySize=auto;html=1;endArrow=oval;endFill=1;fontSize=10;" edge="1" parent="1">
          <mxGeometry relative="1" as="geometry">
            <mxPoint x="398.25" y="1267" as="sourcePoint" />
            <mxPoint x="398.25" y="1187" as="targetPoint" />
          </mxGeometry>
        </mxCell>
        <mxCell id="kIdhYQG7fLx8eibKCi9p-108" value="" style="edgeStyle=orthogonalEdgeStyle;rounded=0;orthogonalLoop=1;jettySize=auto;html=1;endArrow=oval;endFill=0;exitX=0.5;exitY=0;exitDx=0;exitDy=0;fontSize=10;" edge="1" parent="1" source="kIdhYQG7fLx8eibKCi9p-106">
          <mxGeometry relative="1" as="geometry">
            <mxPoint x="428.25" y="1217" as="sourcePoint" />
            <mxPoint x="438.25" y="1227" as="targetPoint" />
          </mxGeometry>
        </mxCell>
        <mxCell id="kIdhYQG7fLx8eibKCi9p-109" value="" style="edgeStyle=orthogonalEdgeStyle;rounded=0;orthogonalLoop=1;jettySize=auto;html=1;endArrow=oval;endFill=0;exitX=0.302;exitY=0.012;exitDx=0;exitDy=0;exitPerimeter=0;fontSize=10;" edge="1" parent="1" source="kIdhYQG7fLx8eibKCi9p-106">
          <mxGeometry relative="1" as="geometry">
            <mxPoint x="418.25" y="1267" as="sourcePoint" />
            <mxPoint x="418.25" y="1207" as="targetPoint" />
          </mxGeometry>
        </mxCell>
        <mxCell id="kIdhYQG7fLx8eibKCi9p-110" value="" style="edgeStyle=orthogonalEdgeStyle;rounded=0;orthogonalLoop=1;jettySize=auto;html=1;endArrow=oval;endFill=0;exitX=0.702;exitY=0.012;exitDx=0;exitDy=0;exitPerimeter=0;fontSize=10;" edge="1" parent="1" source="kIdhYQG7fLx8eibKCi9p-106">
          <mxGeometry relative="1" as="geometry">
            <mxPoint x="458.25" y="1267" as="sourcePoint" />
            <mxPoint x="458.25" y="1247" as="targetPoint" />
          </mxGeometry>
        </mxCell>
        <mxCell id="kIdhYQG7fLx8eibKCi9p-111" value="" style="edgeStyle=orthogonalEdgeStyle;rounded=0;orthogonalLoop=1;jettySize=auto;html=1;endArrow=oval;endFill=0;exitX=0.899;exitY=0.012;exitDx=0;exitDy=0;exitPerimeter=0;fontSize=10;" edge="1" parent="1" source="kIdhYQG7fLx8eibKCi9p-106">
          <mxGeometry relative="1" as="geometry">
            <mxPoint x="478.25" y="1267" as="sourcePoint" />
            <mxPoint x="478.25" y="1257" as="targetPoint" />
          </mxGeometry>
        </mxCell>
        <mxCell id="kIdhYQG7fLx8eibKCi9p-112" value="&lt;font style=&quot;font-size: 10px;&quot;&gt;id_fornecedor&lt;/font&gt;" style="text;html=1;align=center;verticalAlign=middle;resizable=0;points=[];autosize=1;strokeColor=none;fillColor=none;fontSize=10;" vertex="1" parent="1">
          <mxGeometry x="391.25" y="1169" width="90" height="30" as="geometry" />
        </mxCell>
        <mxCell id="kIdhYQG7fLx8eibKCi9p-113" value="&lt;font style=&quot;font-size: 10px;&quot;&gt;Nome&lt;/font&gt;" style="text;html=1;align=center;verticalAlign=middle;resizable=0;points=[];autosize=1;strokeColor=none;fillColor=none;fontSize=10;" vertex="1" parent="1">
          <mxGeometry x="412.25" y="1190" width="50" height="30" as="geometry" />
        </mxCell>
        <mxCell id="kIdhYQG7fLx8eibKCi9p-114" value="&lt;font style=&quot;font-size: 10px;&quot;&gt;Telefone&lt;/font&gt;" style="text;html=1;align=center;verticalAlign=middle;resizable=0;points=[];autosize=1;strokeColor=none;fillColor=none;fontSize=10;" vertex="1" parent="1">
          <mxGeometry x="428.25" y="1210" width="70" height="30" as="geometry" />
        </mxCell>
        <mxCell id="kIdhYQG7fLx8eibKCi9p-115" value="&lt;font style=&quot;font-size: 10px;&quot;&gt;Email&lt;/font&gt;" style="text;html=1;align=center;verticalAlign=middle;resizable=0;points=[];autosize=1;strokeColor=none;fillColor=none;fontSize=10;" vertex="1" parent="1">
          <mxGeometry x="452.25" y="1230" width="50" height="30" as="geometry" />
        </mxCell>
        <mxCell id="kIdhYQG7fLx8eibKCi9p-116" value="&lt;font style=&quot;font-size: 10px;&quot;&gt;Endereço&lt;/font&gt;" style="text;html=1;align=center;verticalAlign=middle;resizable=0;points=[];autosize=1;strokeColor=none;fillColor=none;fontSize=10;" vertex="1" parent="1">
          <mxGeometry x="469.25" y="1241" width="70" height="30" as="geometry" />
        </mxCell>
        <mxCell id="kIdhYQG7fLx8eibKCi9p-117" value="Peça" style="html=1;dashed=0;whiteSpace=wrap;" vertex="1" parent="1">
          <mxGeometry x="588.25" y="1374" width="100" height="50" as="geometry" />
        </mxCell>
        <mxCell id="kIdhYQG7fLx8eibKCi9p-118" value="" style="edgeStyle=orthogonalEdgeStyle;rounded=0;orthogonalLoop=1;jettySize=auto;html=1;endArrow=oval;endFill=1;exitX=0.153;exitY=-0.025;exitDx=0;exitDy=0;exitPerimeter=0;" edge="1" parent="1" source="kIdhYQG7fLx8eibKCi9p-117">
          <mxGeometry relative="1" as="geometry">
            <mxPoint x="628.25" y="1314" as="sourcePoint" />
            <mxPoint x="603.25" y="1264" as="targetPoint" />
          </mxGeometry>
        </mxCell>
        <mxCell id="kIdhYQG7fLx8eibKCi9p-119" value="&lt;div style=&quot;font-size: 10px;&quot;&gt;id_pecas&lt;/div&gt;" style="text;html=1;align=center;verticalAlign=middle;resizable=0;points=[];autosize=1;strokeColor=none;fillColor=none;fontSize=10;" vertex="1" parent="1">
          <mxGeometry x="594.25" y="1248" width="70" height="30" as="geometry" />
        </mxCell>
        <mxCell id="kIdhYQG7fLx8eibKCi9p-120" value="Nome" style="text;html=1;align=center;verticalAlign=middle;resizable=0;points=[];autosize=1;strokeColor=none;fillColor=none;fontSize=10;" vertex="1" parent="1">
          <mxGeometry x="615.25" y="1269" width="50" height="30" as="geometry" />
        </mxCell>
        <mxCell id="kIdhYQG7fLx8eibKCi9p-121" value="Quantidade" style="text;html=1;align=center;verticalAlign=middle;resizable=0;points=[];autosize=1;strokeColor=none;fillColor=none;fontSize=10;" vertex="1" parent="1">
          <mxGeometry x="642.25" y="1309" width="80" height="30" as="geometry" />
        </mxCell>
        <mxCell id="kIdhYQG7fLx8eibKCi9p-122" value="Valor" style="text;html=1;align=center;verticalAlign=middle;resizable=0;points=[];autosize=1;strokeColor=none;fillColor=none;fontSize=10;" vertex="1" parent="1">
          <mxGeometry x="652.25" y="1330" width="50" height="30" as="geometry" />
        </mxCell>
        <mxCell id="kIdhYQG7fLx8eibKCi9p-123" value="Marca" style="text;html=1;align=center;verticalAlign=middle;resizable=0;points=[];autosize=1;strokeColor=none;fillColor=none;fontSize=10;" vertex="1" parent="1">
          <mxGeometry x="628.25" y="1289" width="50" height="30" as="geometry" />
        </mxCell>
        <mxCell id="kIdhYQG7fLx8eibKCi9p-124" value="&lt;div style=&quot;font-size: 10px;&quot;&gt;Descrição&lt;/div&gt;" style="text;html=1;align=center;verticalAlign=middle;resizable=0;points=[];autosize=1;strokeColor=none;fillColor=none;fontSize=10;" vertex="1" parent="1">
          <mxGeometry x="665.25" y="1349" width="70" height="30" as="geometry" />
        </mxCell>
        <mxCell id="kIdhYQG7fLx8eibKCi9p-125" value="" style="edgeStyle=orthogonalEdgeStyle;rounded=0;orthogonalLoop=1;jettySize=auto;html=1;endArrow=oval;endFill=0;exitX=0.315;exitY=0.019;exitDx=0;exitDy=0;exitPerimeter=0;" edge="1" parent="1" source="kIdhYQG7fLx8eibKCi9p-117">
          <mxGeometry relative="1" as="geometry">
            <mxPoint x="628.25" y="1334" as="sourcePoint" />
            <mxPoint x="620.25" y="1284" as="targetPoint" />
          </mxGeometry>
        </mxCell>
        <mxCell id="kIdhYQG7fLx8eibKCi9p-126" value="" style="edgeStyle=orthogonalEdgeStyle;rounded=0;orthogonalLoop=1;jettySize=auto;html=1;endArrow=oval;endFill=0;exitX=0.45;exitY=0.019;exitDx=0;exitDy=0;exitPerimeter=0;" edge="1" parent="1" source="kIdhYQG7fLx8eibKCi9p-117">
          <mxGeometry relative="1" as="geometry">
            <mxPoint x="648.25" y="1324" as="sourcePoint" />
            <mxPoint x="633.25" y="1304" as="targetPoint" />
          </mxGeometry>
        </mxCell>
        <mxCell id="kIdhYQG7fLx8eibKCi9p-127" value="" style="edgeStyle=orthogonalEdgeStyle;rounded=0;orthogonalLoop=1;jettySize=auto;html=1;endArrow=oval;endFill=0;" edge="1" parent="1">
          <mxGeometry relative="1" as="geometry">
            <mxPoint x="648.25" y="1374" as="sourcePoint" />
            <mxPoint x="648.25" y="1324" as="targetPoint" />
          </mxGeometry>
        </mxCell>
        <mxCell id="kIdhYQG7fLx8eibKCi9p-128" value="" style="edgeStyle=orthogonalEdgeStyle;rounded=0;orthogonalLoop=1;jettySize=auto;html=1;endArrow=oval;endFill=0;exitX=0.724;exitY=-0.009;exitDx=0;exitDy=0;exitPerimeter=0;" edge="1" parent="1" source="kIdhYQG7fLx8eibKCi9p-117">
          <mxGeometry relative="1" as="geometry">
            <mxPoint x="658.25" y="1344" as="sourcePoint" />
            <mxPoint x="660.25" y="1344" as="targetPoint" />
          </mxGeometry>
        </mxCell>
        <mxCell id="kIdhYQG7fLx8eibKCi9p-129" value="" style="edgeStyle=orthogonalEdgeStyle;rounded=0;orthogonalLoop=1;jettySize=auto;html=1;endArrow=oval;endFill=0;exitX=0.845;exitY=0.01;exitDx=0;exitDy=0;exitPerimeter=0;" edge="1" parent="1" source="kIdhYQG7fLx8eibKCi9p-117">
          <mxGeometry relative="1" as="geometry">
            <mxPoint x="678.25" y="1354" as="sourcePoint" />
            <mxPoint x="672.25" y="1364" as="targetPoint" />
          </mxGeometry>
        </mxCell>
        <mxCell id="kIdhYQG7fLx8eibKCi9p-179" value="" style="edgeStyle=orthogonalEdgeStyle;rounded=0;orthogonalLoop=1;jettySize=auto;html=1;endArrow=none;endFill=0;" edge="1" parent="1" source="kIdhYQG7fLx8eibKCi9p-130" target="kIdhYQG7fLx8eibKCi9p-178">
          <mxGeometry relative="1" as="geometry" />
        </mxCell>
        <mxCell id="kIdhYQG7fLx8eibKCi9p-130" value="&lt;div&gt;Bicicleta&lt;/div&gt;" style="html=1;dashed=0;whiteSpace=wrap;" vertex="1" parent="1">
          <mxGeometry x="182.5" y="1600" width="100" height="50" as="geometry" />
        </mxCell>
        <mxCell id="kIdhYQG7fLx8eibKCi9p-131" value="" style="edgeStyle=orthogonalEdgeStyle;rounded=0;orthogonalLoop=1;jettySize=auto;html=1;endArrow=oval;endFill=1;exitX=0.052;exitY=0.008;exitDx=0;exitDy=0;exitPerimeter=0;entryX=0.073;entryY=0.5;entryDx=0;entryDy=0;entryPerimeter=0;" edge="1" parent="1" source="kIdhYQG7fLx8eibKCi9p-130" target="kIdhYQG7fLx8eibKCi9p-139">
          <mxGeometry relative="1" as="geometry">
            <mxPoint x="187.35000000000002" y="1600.4499999999998" as="sourcePoint" />
            <mxPoint x="187.5" y="1436" as="targetPoint" />
            <Array as="points">
              <mxPoint x="187.5" y="1516" />
              <mxPoint x="186.5" y="1516" />
            </Array>
          </mxGeometry>
        </mxCell>
        <mxCell id="kIdhYQG7fLx8eibKCi9p-132" value="" style="edgeStyle=orthogonalEdgeStyle;rounded=0;orthogonalLoop=1;jettySize=auto;html=1;endArrow=oval;endFill=0;exitX=0.144;exitY=0;exitDx=0;exitDy=0;exitPerimeter=0;entryX=0.085;entryY=0.56;entryDx=0;entryDy=0;entryPerimeter=0;" edge="1" parent="1" source="kIdhYQG7fLx8eibKCi9p-130" target="kIdhYQG7fLx8eibKCi9p-140">
          <mxGeometry relative="1" as="geometry">
            <mxPoint x="197.45000000000005" y="1600.75" as="sourcePoint" />
            <mxPoint x="197.5" y="1456" as="targetPoint" />
            <Array as="points">
              <mxPoint x="196.5" y="1601" />
              <mxPoint x="196.5" y="1601" />
              <mxPoint x="196.5" y="1526" />
              <mxPoint x="196.5" y="1526" />
            </Array>
          </mxGeometry>
        </mxCell>
        <mxCell id="kIdhYQG7fLx8eibKCi9p-133" value="" style="edgeStyle=orthogonalEdgeStyle;rounded=0;orthogonalLoop=1;jettySize=auto;html=1;endArrow=oval;endFill=0;exitX=0.299;exitY=0.002;exitDx=0;exitDy=0;exitPerimeter=0;entryX=0.2;entryY=0.4;entryDx=0;entryDy=0;entryPerimeter=0;" edge="1" parent="1" target="kIdhYQG7fLx8eibKCi9p-141">
          <mxGeometry relative="1" as="geometry">
            <mxPoint x="207.25" y="1600.1" as="sourcePoint" />
            <mxPoint x="207.5" y="1466" as="targetPoint" />
          </mxGeometry>
        </mxCell>
        <mxCell id="kIdhYQG7fLx8eibKCi9p-134" value="" style="edgeStyle=orthogonalEdgeStyle;rounded=0;orthogonalLoop=1;jettySize=auto;html=1;endArrow=oval;endFill=0;exitX=0.398;exitY=0.006;exitDx=0;exitDy=0;exitPerimeter=0;" edge="1" parent="1">
          <mxGeometry relative="1" as="geometry">
            <mxPoint x="217.14999999999998" y="1600.3000000000002" as="sourcePoint" />
            <mxPoint x="217.5" y="1476" as="targetPoint" />
          </mxGeometry>
        </mxCell>
        <mxCell id="kIdhYQG7fLx8eibKCi9p-135" value="" style="edgeStyle=orthogonalEdgeStyle;rounded=0;orthogonalLoop=1;jettySize=auto;html=1;endArrow=oval;endFill=0;exitX=0.5;exitY=0;exitDx=0;exitDy=0;" edge="1" parent="1">
          <mxGeometry relative="1" as="geometry">
            <mxPoint x="227.35000000000002" y="1600" as="sourcePoint" />
            <mxPoint x="227.5" y="1496" as="targetPoint" />
          </mxGeometry>
        </mxCell>
        <mxCell id="kIdhYQG7fLx8eibKCi9p-136" value="" style="edgeStyle=orthogonalEdgeStyle;rounded=0;orthogonalLoop=1;jettySize=auto;html=1;endArrow=oval;endFill=0;exitX=0.6;exitY=0.004;exitDx=0;exitDy=0;exitPerimeter=0;" edge="1" parent="1">
          <mxGeometry relative="1" as="geometry">
            <mxPoint x="237.35000000000002" y="1600.1999999999998" as="sourcePoint" />
            <mxPoint x="237.5" y="1516" as="targetPoint" />
            <Array as="points" />
          </mxGeometry>
        </mxCell>
        <mxCell id="kIdhYQG7fLx8eibKCi9p-137" value="" style="edgeStyle=orthogonalEdgeStyle;rounded=0;orthogonalLoop=1;jettySize=auto;html=1;endArrow=oval;endFill=0;exitX=0.704;exitY=0.01;exitDx=0;exitDy=0;exitPerimeter=0;" edge="1" parent="1">
          <mxGeometry relative="1" as="geometry">
            <mxPoint x="247.75" y="1600.5" as="sourcePoint" />
            <mxPoint x="247.5" y="1536" as="targetPoint" />
          </mxGeometry>
        </mxCell>
        <mxCell id="kIdhYQG7fLx8eibKCi9p-138" value="" style="edgeStyle=orthogonalEdgeStyle;rounded=0;orthogonalLoop=1;jettySize=auto;html=1;endArrow=oval;endFill=0;exitX=0.804;exitY=0.004;exitDx=0;exitDy=0;exitPerimeter=0;fontSize=8;" edge="1" parent="1">
          <mxGeometry relative="1" as="geometry">
            <mxPoint x="257.75" y="1600.1999999999998" as="sourcePoint" />
            <mxPoint x="257.5" y="1556" as="targetPoint" />
            <Array as="points">
              <mxPoint x="257.35" y="1586" />
            </Array>
          </mxGeometry>
        </mxCell>
        <mxCell id="kIdhYQG7fLx8eibKCi9p-139" value="&lt;font style=&quot;font-size: 8px;&quot;&gt;id_bicicleta&lt;/font&gt;" style="text;html=1;align=center;verticalAlign=middle;resizable=0;points=[];autosize=1;strokeColor=none;fillColor=none;fontSize=8;" vertex="1" parent="1">
          <mxGeometry x="182.5" y="1412" width="60" height="20" as="geometry" />
        </mxCell>
        <mxCell id="kIdhYQG7fLx8eibKCi9p-140" value="&lt;font style=&quot;font-size: 8px;&quot;&gt;Nome&lt;/font&gt;" style="text;html=1;align=center;verticalAlign=middle;resizable=0;points=[];autosize=1;strokeColor=none;fillColor=none;fontSize=8;" vertex="1" parent="1">
          <mxGeometry x="193.5" y="1432" width="40" height="20" as="geometry" />
        </mxCell>
        <mxCell id="kIdhYQG7fLx8eibKCi9p-141" value="&lt;div style=&quot;font-size: 8px;&quot;&gt;&lt;font style=&quot;font-size: 8px;&quot;&gt;Marca&lt;/font&gt;&lt;/div&gt;" style="text;html=1;align=center;verticalAlign=middle;resizable=0;points=[];autosize=1;strokeColor=none;fillColor=none;fontSize=8;" vertex="1" parent="1">
          <mxGeometry x="197.5" y="1448" width="50" height="20" as="geometry" />
        </mxCell>
        <mxCell id="kIdhYQG7fLx8eibKCi9p-142" value="&lt;font style=&quot;font-size: 8px;&quot;&gt;Aro&lt;/font&gt;" style="text;html=1;align=center;verticalAlign=middle;resizable=0;points=[];autosize=1;strokeColor=none;fillColor=none;fontSize=8;" vertex="1" parent="1">
          <mxGeometry x="219.5" y="1486" width="40" height="20" as="geometry" />
        </mxCell>
        <mxCell id="kIdhYQG7fLx8eibKCi9p-143" value="&lt;font style=&quot;font-size: 8px;&quot;&gt;Cor&lt;/font&gt;" style="text;html=1;align=center;verticalAlign=middle;resizable=0;points=[];autosize=1;strokeColor=none;fillColor=none;fontSize=8;" vertex="1" parent="1">
          <mxGeometry x="209.5" y="1466" width="40" height="20" as="geometry" />
        </mxCell>
        <mxCell id="kIdhYQG7fLx8eibKCi9p-144" value="&lt;font style=&quot;font-size: 8px;&quot;&gt;Peso&lt;/font&gt;" style="text;html=1;align=center;verticalAlign=middle;resizable=0;points=[];autosize=1;strokeColor=none;fillColor=none;fontSize=8;" vertex="1" parent="1">
          <mxGeometry x="241.5" y="1526" width="40" height="20" as="geometry" />
        </mxCell>
        <mxCell id="kIdhYQG7fLx8eibKCi9p-145" value="&lt;font style=&quot;font-size: 8px;&quot;&gt;Altura&lt;/font&gt;" style="text;html=1;align=center;verticalAlign=middle;resizable=0;points=[];autosize=1;strokeColor=none;fillColor=none;fontSize=8;" vertex="1" parent="1">
          <mxGeometry x="252.5" y="1546" width="40" height="20" as="geometry" />
        </mxCell>
        <mxCell id="kIdhYQG7fLx8eibKCi9p-146" value="&lt;font style=&quot;font-size: 8px;&quot;&gt;Valor&lt;/font&gt;" style="text;html=1;align=center;verticalAlign=middle;resizable=0;points=[];autosize=1;strokeColor=none;fillColor=none;fontSize=8;" vertex="1" parent="1">
          <mxGeometry x="259.5" y="1566" width="40" height="20" as="geometry" />
        </mxCell>
        <mxCell id="kIdhYQG7fLx8eibKCi9p-147" value="&lt;font style=&quot;font-size: 8px;&quot;&gt;Categoria (adulto ou infantil)&lt;/font&gt;" style="text;html=1;align=center;verticalAlign=middle;resizable=0;points=[];autosize=1;strokeColor=none;fillColor=none;fontSize=8;" vertex="1" parent="1">
          <mxGeometry x="231.5" y="1506" width="120" height="20" as="geometry" />
        </mxCell>
        <mxCell id="kIdhYQG7fLx8eibKCi9p-148" value="" style="edgeStyle=orthogonalEdgeStyle;rounded=0;orthogonalLoop=1;jettySize=auto;html=1;endArrow=oval;endFill=0;exitX=0.902;exitY=0.004;exitDx=0;exitDy=0;exitPerimeter=0;fontSize=8;" edge="1" parent="1">
          <mxGeometry relative="1" as="geometry">
            <mxPoint x="267.55000000000007" y="1600.1999999999998" as="sourcePoint" />
            <mxPoint x="267.5" y="1576" as="targetPoint" />
          </mxGeometry>
        </mxCell>
        <mxCell id="kIdhYQG7fLx8eibKCi9p-188" value="" style="edgeStyle=orthogonalEdgeStyle;rounded=0;orthogonalLoop=1;jettySize=auto;html=1;endArrow=none;endFill=0;" edge="1" parent="1" source="kIdhYQG7fLx8eibKCi9p-149" target="kIdhYQG7fLx8eibKCi9p-187">
          <mxGeometry relative="1" as="geometry" />
        </mxCell>
        <mxCell id="kIdhYQG7fLx8eibKCi9p-149" value="agendamento" style="rounded=0;whiteSpace=wrap;html=1;" vertex="1" parent="1">
          <mxGeometry x="758.25" y="1600" width="90" height="50" as="geometry" />
        </mxCell>
        <mxCell id="kIdhYQG7fLx8eibKCi9p-151" value="" style="edgeStyle=orthogonalEdgeStyle;rounded=0;orthogonalLoop=1;jettySize=auto;html=1;endArrow=oval;endFill=1;exitX=0;exitY=0;exitDx=0;exitDy=0;" edge="1" parent="1" source="kIdhYQG7fLx8eibKCi9p-149">
          <mxGeometry relative="1" as="geometry">
            <mxPoint x="783.25" y="1558" as="sourcePoint" />
            <mxPoint x="773.25" y="1498" as="targetPoint" />
          </mxGeometry>
        </mxCell>
        <mxCell id="kIdhYQG7fLx8eibKCi9p-152" value="&lt;font style=&quot;font-size: 10px;&quot;&gt;id_agendamento&lt;/font&gt;" style="text;html=1;align=center;verticalAlign=middle;resizable=0;points=[];autosize=1;strokeColor=none;fillColor=none;" vertex="1" parent="1">
          <mxGeometry x="768.25" y="1481" width="100" height="30" as="geometry" />
        </mxCell>
        <mxCell id="kIdhYQG7fLx8eibKCi9p-153" value="" style="edgeStyle=orthogonalEdgeStyle;rounded=0;orthogonalLoop=1;jettySize=auto;html=1;endArrow=oval;endFill=0;exitX=0.14;exitY=0.002;exitDx=0;exitDy=0;exitPerimeter=0;" edge="1" parent="1" source="kIdhYQG7fLx8eibKCi9p-149">
          <mxGeometry relative="1" as="geometry">
            <mxPoint x="783.25" y="1558" as="sourcePoint" />
            <mxPoint x="783.25" y="1518" as="targetPoint" />
          </mxGeometry>
        </mxCell>
        <mxCell id="kIdhYQG7fLx8eibKCi9p-154" value="" style="edgeStyle=orthogonalEdgeStyle;rounded=0;orthogonalLoop=1;jettySize=auto;html=1;endArrow=oval;endFill=0;exitX=0.284;exitY=0.002;exitDx=0;exitDy=0;exitPerimeter=0;" edge="1" parent="1" source="kIdhYQG7fLx8eibKCi9p-149">
          <mxGeometry relative="1" as="geometry">
            <mxPoint x="793.25" y="1593" as="sourcePoint" />
            <mxPoint x="793.25" y="1538" as="targetPoint" />
          </mxGeometry>
        </mxCell>
        <mxCell id="kIdhYQG7fLx8eibKCi9p-155" value="" style="edgeStyle=orthogonalEdgeStyle;rounded=0;orthogonalLoop=1;jettySize=auto;html=1;endArrow=oval;endFill=0;exitX=0.426;exitY=0.006;exitDx=0;exitDy=0;exitPerimeter=0;" edge="1" parent="1" source="kIdhYQG7fLx8eibKCi9p-149">
          <mxGeometry relative="1" as="geometry">
            <mxPoint x="803.25" y="1578" as="sourcePoint" />
            <mxPoint x="803.25" y="1558" as="targetPoint" />
          </mxGeometry>
        </mxCell>
        <mxCell id="kIdhYQG7fLx8eibKCi9p-156" value="" style="edgeStyle=orthogonalEdgeStyle;rounded=0;orthogonalLoop=1;jettySize=auto;html=1;endArrow=oval;endFill=0;" edge="1" parent="1">
          <mxGeometry relative="1" as="geometry">
            <mxPoint x="813.25" y="1600" as="sourcePoint" />
            <mxPoint x="813.25" y="1578" as="targetPoint" />
          </mxGeometry>
        </mxCell>
        <mxCell id="kIdhYQG7fLx8eibKCi9p-157" value="&lt;font style=&quot;font-size: 10px;&quot;&gt;Data&lt;/font&gt;" style="text;html=1;align=center;verticalAlign=middle;resizable=0;points=[];autosize=1;strokeColor=none;fillColor=none;fontSize=10;" vertex="1" parent="1">
          <mxGeometry x="774.25" y="1502" width="50" height="30" as="geometry" />
        </mxCell>
        <mxCell id="kIdhYQG7fLx8eibKCi9p-158" value="&lt;font style=&quot;font-size: 10px;&quot;&gt;Horário&lt;/font&gt;" style="text;html=1;align=center;verticalAlign=middle;resizable=0;points=[];autosize=1;strokeColor=none;fillColor=none;fontSize=10;" vertex="1" parent="1">
          <mxGeometry x="784.25" y="1522" width="60" height="30" as="geometry" />
        </mxCell>
        <mxCell id="kIdhYQG7fLx8eibKCi9p-159" value="&lt;font style=&quot;font-size: 10px;&quot;&gt;Tipo de agendamento&lt;/font&gt;" style="text;html=1;align=center;verticalAlign=middle;resizable=0;points=[];autosize=1;strokeColor=none;fillColor=none;fontSize=10;" vertex="1" parent="1">
          <mxGeometry x="794.25" y="1541" width="130" height="30" as="geometry" />
        </mxCell>
        <mxCell id="kIdhYQG7fLx8eibKCi9p-160" value="" style="edgeStyle=orthogonalEdgeStyle;rounded=0;orthogonalLoop=1;jettySize=auto;html=1;endArrow=oval;endFill=0;exitX=0.731;exitY=0.012;exitDx=0;exitDy=0;exitPerimeter=0;entryX=0.32;entryY=1.037;entryDx=0;entryDy=0;entryPerimeter=0;" edge="1" parent="1" source="kIdhYQG7fLx8eibKCi9p-149" target="kIdhYQG7fLx8eibKCi9p-161">
          <mxGeometry relative="1" as="geometry">
            <mxPoint x="824.25" y="1598" as="sourcePoint" />
            <mxPoint x="824.25" y="1588" as="targetPoint" />
          </mxGeometry>
        </mxCell>
        <mxCell id="kIdhYQG7fLx8eibKCi9p-161" value="&lt;font style=&quot;font-size: 10px;&quot;&gt;Cliente&lt;/font&gt;" style="text;html=1;align=center;verticalAlign=middle;resizable=0;points=[];autosize=1;strokeColor=none;fillColor=none;fontSize=10;" vertex="1" parent="1">
          <mxGeometry x="805.25" y="1562" width="60" height="30" as="geometry" />
        </mxCell>
        <mxCell id="kIdhYQG7fLx8eibKCi9p-162" value="&lt;font style=&quot;font-size: 10px;&quot;&gt;Valor&lt;/font&gt;" style="text;html=1;align=center;verticalAlign=middle;resizable=0;points=[];autosize=1;strokeColor=none;fillColor=none;" vertex="1" parent="1">
          <mxGeometry x="815.25" y="1576" width="50" height="30" as="geometry" />
        </mxCell>
        <mxCell id="kIdhYQG7fLx8eibKCi9p-166" style="edgeStyle=orthogonalEdgeStyle;rounded=0;orthogonalLoop=1;jettySize=auto;html=1;endArrow=none;endFill=0;" edge="1" parent="1" source="kIdhYQG7fLx8eibKCi9p-164" target="kIdhYQG7fLx8eibKCi9p-106">
          <mxGeometry relative="1" as="geometry" />
        </mxCell>
        <mxCell id="kIdhYQG7fLx8eibKCi9p-164" value="contacta" style="rhombus;whiteSpace=wrap;html=1;dashed=0;" vertex="1" parent="1">
          <mxGeometry x="251" y="1268" width="75.75" height="48" as="geometry" />
        </mxCell>
        <mxCell id="kIdhYQG7fLx8eibKCi9p-171" style="edgeStyle=orthogonalEdgeStyle;rounded=0;orthogonalLoop=1;jettySize=auto;html=1;entryX=0;entryY=0.5;entryDx=0;entryDy=0;endArrow=none;endFill=0;" edge="1" parent="1" source="kIdhYQG7fLx8eibKCi9p-167" target="kIdhYQG7fLx8eibKCi9p-117">
          <mxGeometry relative="1" as="geometry" />
        </mxCell>
        <mxCell id="kIdhYQG7fLx8eibKCi9p-167" value="fornece" style="rhombus;whiteSpace=wrap;html=1;dashed=0;" vertex="1" parent="1">
          <mxGeometry x="403.25" y="1380" width="70" height="38" as="geometry" />
        </mxCell>
        <mxCell id="kIdhYQG7fLx8eibKCi9p-176" style="edgeStyle=orthogonalEdgeStyle;rounded=0;orthogonalLoop=1;jettySize=auto;html=1;entryX=0;entryY=0.5;entryDx=0;entryDy=0;exitX=0.5;exitY=1;exitDx=0;exitDy=0;endArrow=none;endFill=0;" edge="1" parent="1" source="kIdhYQG7fLx8eibKCi9p-174" target="kIdhYQG7fLx8eibKCi9p-130">
          <mxGeometry relative="1" as="geometry" />
        </mxCell>
        <mxCell id="kIdhYQG7fLx8eibKCi9p-174" value="monta" style="rhombus;whiteSpace=wrap;html=1;dashed=0;" vertex="1" parent="1">
          <mxGeometry x="99.63" y="1374" width="65.75" height="38" as="geometry" />
        </mxCell>
        <mxCell id="kIdhYQG7fLx8eibKCi9p-181" style="edgeStyle=orthogonalEdgeStyle;rounded=0;orthogonalLoop=1;jettySize=auto;html=1;entryX=0;entryY=0.5;entryDx=0;entryDy=0;endArrow=none;endFill=0;" edge="1" parent="1" source="kIdhYQG7fLx8eibKCi9p-178" target="kIdhYQG7fLx8eibKCi9p-97">
          <mxGeometry relative="1" as="geometry" />
        </mxCell>
        <mxCell id="kIdhYQG7fLx8eibKCi9p-178" value="compra" style="rhombus;whiteSpace=wrap;html=1;dashed=0;" vertex="1" parent="1">
          <mxGeometry x="344.88" y="1602.5" width="75.75" height="45" as="geometry" />
        </mxCell>
        <mxCell id="kIdhYQG7fLx8eibKCi9p-186" style="edgeStyle=orthogonalEdgeStyle;rounded=0;orthogonalLoop=1;jettySize=auto;html=1;entryX=0;entryY=0.5;entryDx=0;entryDy=0;endArrow=none;endFill=0;" edge="1" parent="1" source="kIdhYQG7fLx8eibKCi9p-183" target="kIdhYQG7fLx8eibKCi9p-149">
          <mxGeometry relative="1" as="geometry" />
        </mxCell>
        <mxCell id="kIdhYQG7fLx8eibKCi9p-183" value="realiza" style="rhombus;whiteSpace=wrap;html=1;dashed=0;" vertex="1" parent="1">
          <mxGeometry x="638.25" y="1602.5" width="58" height="45" as="geometry" />
        </mxCell>
        <mxCell id="kIdhYQG7fLx8eibKCi9p-191" value="" style="edgeStyle=orthogonalEdgeStyle;rounded=0;orthogonalLoop=1;jettySize=auto;html=1;endArrow=none;endFill=0;" edge="1" parent="1" source="kIdhYQG7fLx8eibKCi9p-187" target="kIdhYQG7fLx8eibKCi9p-190">
          <mxGeometry relative="1" as="geometry" />
        </mxCell>
        <mxCell id="kIdhYQG7fLx8eibKCi9p-193" value="" style="edgeStyle=orthogonalEdgeStyle;rounded=0;orthogonalLoop=1;jettySize=auto;html=1;endArrow=none;endFill=0;" edge="1" parent="1" source="kIdhYQG7fLx8eibKCi9p-187" target="kIdhYQG7fLx8eibKCi9p-192">
          <mxGeometry relative="1" as="geometry" />
        </mxCell>
        <mxCell id="kIdhYQG7fLx8eibKCi9p-187" value="escolhe" style="rhombus;whiteSpace=wrap;html=1;rounded=0;" vertex="1" parent="1">
          <mxGeometry x="755.75" y="1709" width="95" height="45" as="geometry" />
        </mxCell>
        <mxCell id="kIdhYQG7fLx8eibKCi9p-190" value="Conserto" style="whiteSpace=wrap;html=1;rounded=0;" vertex="1" parent="1">
          <mxGeometry x="628.25" y="1804" width="120" height="60" as="geometry" />
        </mxCell>
        <mxCell id="kIdhYQG7fLx8eibKCi9p-192" value="Montagem" style="whiteSpace=wrap;html=1;rounded=0;" vertex="1" parent="1">
          <mxGeometry x="858.25" y="1804" width="120" height="60" as="geometry" />
        </mxCell>
        <mxCell id="kIdhYQG7fLx8eibKCi9p-196" value="( 1 , 1 )" style="text;html=1;align=center;verticalAlign=middle;resizable=0;points=[];autosize=1;strokeColor=none;fillColor=none;" vertex="1" parent="1">
          <mxGeometry x="176" y="1267" width="60" height="30" as="geometry" />
        </mxCell>
        <mxCell id="kIdhYQG7fLx8eibKCi9p-197" value="( N , N )" style="text;html=1;align=center;verticalAlign=middle;resizable=0;points=[];autosize=1;strokeColor=none;fillColor=none;" vertex="1" parent="1">
          <mxGeometry x="329" y="1268" width="70" height="30" as="geometry" />
        </mxCell>
        <mxCell id="kIdhYQG7fLx8eibKCi9p-199" value="( 1 , N )" style="text;html=1;align=center;verticalAlign=middle;resizable=0;points=[];autosize=1;strokeColor=none;fillColor=none;" vertex="1" parent="1">
          <mxGeometry x="432" y="1312" width="60" height="30" as="geometry" />
        </mxCell>
        <mxCell id="kIdhYQG7fLx8eibKCi9p-200" value="( N , N )" style="text;html=1;align=center;verticalAlign=middle;resizable=0;points=[];autosize=1;strokeColor=none;fillColor=none;" vertex="1" parent="1">
          <mxGeometry x="528" y="1374" width="70" height="30" as="geometry" />
        </mxCell>
        <mxCell id="kIdhYQG7fLx8eibKCi9p-201" value="( 1 , 1 )" style="text;html=1;align=center;verticalAlign=middle;resizable=0;points=[];autosize=1;strokeColor=none;fillColor=none;" vertex="1" parent="1">
          <mxGeometry x="127" y="1314" width="60" height="30" as="geometry" />
        </mxCell>
        <mxCell id="kIdhYQG7fLx8eibKCi9p-202" value="( 0 , N )" style="text;html=1;align=center;verticalAlign=middle;resizable=0;points=[];autosize=1;strokeColor=none;fillColor=none;" vertex="1" parent="1">
          <mxGeometry x="130" y="1598" width="60" height="30" as="geometry" />
        </mxCell>
        <mxCell id="kIdhYQG7fLx8eibKCi9p-203" value="( 0 , N )" style="text;html=1;align=center;verticalAlign=middle;resizable=0;points=[];autosize=1;strokeColor=none;fillColor=none;" vertex="1" parent="1">
          <mxGeometry x="277" y="1601" width="60" height="30" as="geometry" />
        </mxCell>
        <mxCell id="kIdhYQG7fLx8eibKCi9p-204" value="( 1 , 1 )" style="text;html=1;align=center;verticalAlign=middle;resizable=0;points=[];autosize=1;strokeColor=none;fillColor=none;" vertex="1" parent="1">
          <mxGeometry x="417" y="1602" width="60" height="30" as="geometry" />
        </mxCell>
        <mxCell id="kIdhYQG7fLx8eibKCi9p-205" value="( 1 , N )" style="text;html=1;align=center;verticalAlign=middle;resizable=0;points=[];autosize=1;strokeColor=none;fillColor=none;" vertex="1" parent="1">
          <mxGeometry x="563" y="1601" width="60" height="30" as="geometry" />
        </mxCell>
        <mxCell id="kIdhYQG7fLx8eibKCi9p-206" value="( 0 , N )" style="text;html=1;align=center;verticalAlign=middle;resizable=0;points=[];autosize=1;strokeColor=none;fillColor=none;" vertex="1" parent="1">
          <mxGeometry x="704" y="1600" width="60" height="30" as="geometry" />
        </mxCell>
        <mxCell id="kIdhYQG7fLx8eibKCi9p-207" value="( 0 , N )" style="text;html=1;align=center;verticalAlign=middle;resizable=0;points=[];autosize=1;strokeColor=none;fillColor=none;" vertex="1" parent="1">
          <mxGeometry x="798" y="1645" width="60" height="30" as="geometry" />
        </mxCell>
        <mxCell id="kIdhYQG7fLx8eibKCi9p-208" value="( 1 , N )" style="text;html=1;align=center;verticalAlign=middle;resizable=0;points=[];autosize=1;strokeColor=none;fillColor=none;" vertex="1" parent="1">
          <mxGeometry x="681" y="1779" width="60" height="30" as="geometry" />
        </mxCell>
        <mxCell id="kIdhYQG7fLx8eibKCi9p-209" value="( 1 , N )" style="text;html=1;align=center;verticalAlign=middle;resizable=0;points=[];autosize=1;strokeColor=none;fillColor=none;" vertex="1" parent="1">
          <mxGeometry x="864" y="1779" width="60" height="30" as="geometry" />
        </mxCell>
        <mxCell id="kIdhYQG7fLx8eibKCi9p-217" value="Bicicleta" style="shape=table;startSize=30;container=1;collapsible=1;childLayout=tableLayout;fixedRows=1;rowLines=0;fontStyle=1;align=center;resizeLast=1;html=1;" vertex="1" parent="1">
          <mxGeometry x="39.5" y="2200" width="186" height="290" as="geometry" />
        </mxCell>
        <mxCell id="kIdhYQG7fLx8eibKCi9p-218" value="" style="shape=tableRow;horizontal=0;startSize=0;swimlaneHead=0;swimlaneBody=0;fillColor=none;collapsible=0;dropTarget=0;points=[[0,0.5],[1,0.5]];portConstraint=eastwest;top=0;left=0;right=0;bottom=1;" vertex="1" parent="kIdhYQG7fLx8eibKCi9p-217">
          <mxGeometry y="30" width="186" height="30" as="geometry" />
        </mxCell>
        <mxCell id="kIdhYQG7fLx8eibKCi9p-219" value="PK" style="shape=partialRectangle;connectable=0;fillColor=none;top=0;left=0;bottom=0;right=0;fontStyle=1;overflow=hidden;whiteSpace=wrap;html=1;" vertex="1" parent="kIdhYQG7fLx8eibKCi9p-218">
          <mxGeometry width="30" height="30" as="geometry">
            <mxRectangle width="30" height="30" as="alternateBounds" />
          </mxGeometry>
        </mxCell>
        <mxCell id="kIdhYQG7fLx8eibKCi9p-220" value="id_bicicleta" style="shape=partialRectangle;connectable=0;fillColor=none;top=0;left=0;bottom=0;right=0;align=left;spacingLeft=6;fontStyle=5;overflow=hidden;whiteSpace=wrap;html=1;" vertex="1" parent="kIdhYQG7fLx8eibKCi9p-218">
          <mxGeometry x="30" width="156" height="30" as="geometry">
            <mxRectangle width="156" height="30" as="alternateBounds" />
          </mxGeometry>
        </mxCell>
        <mxCell id="kIdhYQG7fLx8eibKCi9p-221" value="" style="shape=tableRow;horizontal=0;startSize=0;swimlaneHead=0;swimlaneBody=0;fillColor=none;collapsible=0;dropTarget=0;points=[[0,0.5],[1,0.5]];portConstraint=eastwest;top=0;left=0;right=0;bottom=0;" vertex="1" parent="kIdhYQG7fLx8eibKCi9p-217">
          <mxGeometry y="60" width="186" height="20" as="geometry" />
        </mxCell>
        <mxCell id="kIdhYQG7fLx8eibKCi9p-222" value="" style="shape=partialRectangle;connectable=0;fillColor=none;top=0;left=0;bottom=0;right=0;editable=1;overflow=hidden;whiteSpace=wrap;html=1;" vertex="1" parent="kIdhYQG7fLx8eibKCi9p-221">
          <mxGeometry width="30" height="20" as="geometry">
            <mxRectangle width="30" height="20" as="alternateBounds" />
          </mxGeometry>
        </mxCell>
        <mxCell id="kIdhYQG7fLx8eibKCi9p-223" value="Nome" style="shape=partialRectangle;connectable=0;fillColor=none;top=0;left=0;bottom=0;right=0;align=left;spacingLeft=6;overflow=hidden;whiteSpace=wrap;html=1;" vertex="1" parent="kIdhYQG7fLx8eibKCi9p-221">
          <mxGeometry x="30" width="156" height="20" as="geometry">
            <mxRectangle width="156" height="20" as="alternateBounds" />
          </mxGeometry>
        </mxCell>
        <mxCell id="kIdhYQG7fLx8eibKCi9p-224" value="" style="shape=tableRow;horizontal=0;startSize=0;swimlaneHead=0;swimlaneBody=0;fillColor=none;collapsible=0;dropTarget=0;points=[[0,0.5],[1,0.5]];portConstraint=eastwest;top=0;left=0;right=0;bottom=0;" vertex="1" parent="kIdhYQG7fLx8eibKCi9p-217">
          <mxGeometry y="80" width="186" height="30" as="geometry" />
        </mxCell>
        <mxCell id="kIdhYQG7fLx8eibKCi9p-225" value="" style="shape=partialRectangle;connectable=0;fillColor=none;top=0;left=0;bottom=0;right=0;editable=1;overflow=hidden;whiteSpace=wrap;html=1;" vertex="1" parent="kIdhYQG7fLx8eibKCi9p-224">
          <mxGeometry width="30" height="30" as="geometry">
            <mxRectangle width="30" height="30" as="alternateBounds" />
          </mxGeometry>
        </mxCell>
        <mxCell id="kIdhYQG7fLx8eibKCi9p-226" value="Marca" style="shape=partialRectangle;connectable=0;fillColor=none;top=0;left=0;bottom=0;right=0;align=left;spacingLeft=6;overflow=hidden;whiteSpace=wrap;html=1;" vertex="1" parent="kIdhYQG7fLx8eibKCi9p-224">
          <mxGeometry x="30" width="156" height="30" as="geometry">
            <mxRectangle width="156" height="30" as="alternateBounds" />
          </mxGeometry>
        </mxCell>
        <mxCell id="kIdhYQG7fLx8eibKCi9p-227" value="" style="shape=tableRow;horizontal=0;startSize=0;swimlaneHead=0;swimlaneBody=0;fillColor=none;collapsible=0;dropTarget=0;points=[[0,0.5],[1,0.5]];portConstraint=eastwest;top=0;left=0;right=0;bottom=0;" vertex="1" parent="kIdhYQG7fLx8eibKCi9p-217">
          <mxGeometry y="110" width="186" height="30" as="geometry" />
        </mxCell>
        <mxCell id="kIdhYQG7fLx8eibKCi9p-228" value="" style="shape=partialRectangle;connectable=0;fillColor=none;top=0;left=0;bottom=0;right=0;editable=1;overflow=hidden;whiteSpace=wrap;html=1;" vertex="1" parent="kIdhYQG7fLx8eibKCi9p-227">
          <mxGeometry width="30" height="30" as="geometry">
            <mxRectangle width="30" height="30" as="alternateBounds" />
          </mxGeometry>
        </mxCell>
        <mxCell id="kIdhYQG7fLx8eibKCi9p-229" value="Cor" style="shape=partialRectangle;connectable=0;fillColor=none;top=0;left=0;bottom=0;right=0;align=left;spacingLeft=6;overflow=hidden;whiteSpace=wrap;html=1;" vertex="1" parent="kIdhYQG7fLx8eibKCi9p-227">
          <mxGeometry x="30" width="156" height="30" as="geometry">
            <mxRectangle width="156" height="30" as="alternateBounds" />
          </mxGeometry>
        </mxCell>
        <mxCell id="kIdhYQG7fLx8eibKCi9p-230" style="shape=tableRow;horizontal=0;startSize=0;swimlaneHead=0;swimlaneBody=0;fillColor=none;collapsible=0;dropTarget=0;points=[[0,0.5],[1,0.5]];portConstraint=eastwest;top=0;left=0;right=0;bottom=0;" vertex="1" parent="kIdhYQG7fLx8eibKCi9p-217">
          <mxGeometry y="140" width="186" height="30" as="geometry" />
        </mxCell>
        <mxCell id="kIdhYQG7fLx8eibKCi9p-231" style="shape=partialRectangle;connectable=0;fillColor=none;top=0;left=0;bottom=0;right=0;editable=1;overflow=hidden;whiteSpace=wrap;html=1;" vertex="1" parent="kIdhYQG7fLx8eibKCi9p-230">
          <mxGeometry width="30" height="30" as="geometry">
            <mxRectangle width="30" height="30" as="alternateBounds" />
          </mxGeometry>
        </mxCell>
        <mxCell id="kIdhYQG7fLx8eibKCi9p-232" value="Aro" style="shape=partialRectangle;connectable=0;fillColor=none;top=0;left=0;bottom=0;right=0;align=left;spacingLeft=6;overflow=hidden;whiteSpace=wrap;html=1;" vertex="1" parent="kIdhYQG7fLx8eibKCi9p-230">
          <mxGeometry x="30" width="156" height="30" as="geometry">
            <mxRectangle width="156" height="30" as="alternateBounds" />
          </mxGeometry>
        </mxCell>
        <mxCell id="kIdhYQG7fLx8eibKCi9p-233" style="shape=tableRow;horizontal=0;startSize=0;swimlaneHead=0;swimlaneBody=0;fillColor=none;collapsible=0;dropTarget=0;points=[[0,0.5],[1,0.5]];portConstraint=eastwest;top=0;left=0;right=0;bottom=0;" vertex="1" parent="kIdhYQG7fLx8eibKCi9p-217">
          <mxGeometry y="170" width="186" height="30" as="geometry" />
        </mxCell>
        <mxCell id="kIdhYQG7fLx8eibKCi9p-234" style="shape=partialRectangle;connectable=0;fillColor=none;top=0;left=0;bottom=0;right=0;editable=1;overflow=hidden;whiteSpace=wrap;html=1;" vertex="1" parent="kIdhYQG7fLx8eibKCi9p-233">
          <mxGeometry width="30" height="30" as="geometry">
            <mxRectangle width="30" height="30" as="alternateBounds" />
          </mxGeometry>
        </mxCell>
        <mxCell id="kIdhYQG7fLx8eibKCi9p-235" value="Categoria" style="shape=partialRectangle;connectable=0;fillColor=none;top=0;left=0;bottom=0;right=0;align=left;spacingLeft=6;overflow=hidden;whiteSpace=wrap;html=1;" vertex="1" parent="kIdhYQG7fLx8eibKCi9p-233">
          <mxGeometry x="30" width="156" height="30" as="geometry">
            <mxRectangle width="156" height="30" as="alternateBounds" />
          </mxGeometry>
        </mxCell>
        <mxCell id="kIdhYQG7fLx8eibKCi9p-236" style="shape=tableRow;horizontal=0;startSize=0;swimlaneHead=0;swimlaneBody=0;fillColor=none;collapsible=0;dropTarget=0;points=[[0,0.5],[1,0.5]];portConstraint=eastwest;top=0;left=0;right=0;bottom=0;" vertex="1" parent="kIdhYQG7fLx8eibKCi9p-217">
          <mxGeometry y="200" width="186" height="30" as="geometry" />
        </mxCell>
        <mxCell id="kIdhYQG7fLx8eibKCi9p-237" style="shape=partialRectangle;connectable=0;fillColor=none;top=0;left=0;bottom=0;right=0;editable=1;overflow=hidden;whiteSpace=wrap;html=1;" vertex="1" parent="kIdhYQG7fLx8eibKCi9p-236">
          <mxGeometry width="30" height="30" as="geometry">
            <mxRectangle width="30" height="30" as="alternateBounds" />
          </mxGeometry>
        </mxCell>
        <mxCell id="kIdhYQG7fLx8eibKCi9p-238" value="Peso" style="shape=partialRectangle;connectable=0;fillColor=none;top=0;left=0;bottom=0;right=0;align=left;spacingLeft=6;overflow=hidden;whiteSpace=wrap;html=1;" vertex="1" parent="kIdhYQG7fLx8eibKCi9p-236">
          <mxGeometry x="30" width="156" height="30" as="geometry">
            <mxRectangle width="156" height="30" as="alternateBounds" />
          </mxGeometry>
        </mxCell>
        <mxCell id="kIdhYQG7fLx8eibKCi9p-239" style="shape=tableRow;horizontal=0;startSize=0;swimlaneHead=0;swimlaneBody=0;fillColor=none;collapsible=0;dropTarget=0;points=[[0,0.5],[1,0.5]];portConstraint=eastwest;top=0;left=0;right=0;bottom=0;" vertex="1" parent="kIdhYQG7fLx8eibKCi9p-217">
          <mxGeometry y="230" width="186" height="30" as="geometry" />
        </mxCell>
        <mxCell id="kIdhYQG7fLx8eibKCi9p-240" style="shape=partialRectangle;connectable=0;fillColor=none;top=0;left=0;bottom=0;right=0;editable=1;overflow=hidden;whiteSpace=wrap;html=1;" vertex="1" parent="kIdhYQG7fLx8eibKCi9p-239">
          <mxGeometry width="30" height="30" as="geometry">
            <mxRectangle width="30" height="30" as="alternateBounds" />
          </mxGeometry>
        </mxCell>
        <mxCell id="kIdhYQG7fLx8eibKCi9p-241" value="Altura" style="shape=partialRectangle;connectable=0;fillColor=none;top=0;left=0;bottom=0;right=0;align=left;spacingLeft=6;overflow=hidden;whiteSpace=wrap;html=1;" vertex="1" parent="kIdhYQG7fLx8eibKCi9p-239">
          <mxGeometry x="30" width="156" height="30" as="geometry">
            <mxRectangle width="156" height="30" as="alternateBounds" />
          </mxGeometry>
        </mxCell>
        <mxCell id="kIdhYQG7fLx8eibKCi9p-242" style="shape=tableRow;horizontal=0;startSize=0;swimlaneHead=0;swimlaneBody=0;fillColor=none;collapsible=0;dropTarget=0;points=[[0,0.5],[1,0.5]];portConstraint=eastwest;top=0;left=0;right=0;bottom=0;" vertex="1" parent="kIdhYQG7fLx8eibKCi9p-217">
          <mxGeometry y="260" width="186" height="30" as="geometry" />
        </mxCell>
        <mxCell id="kIdhYQG7fLx8eibKCi9p-243" style="shape=partialRectangle;connectable=0;fillColor=none;top=0;left=0;bottom=0;right=0;editable=1;overflow=hidden;whiteSpace=wrap;html=1;" vertex="1" parent="kIdhYQG7fLx8eibKCi9p-242">
          <mxGeometry width="30" height="30" as="geometry">
            <mxRectangle width="30" height="30" as="alternateBounds" />
          </mxGeometry>
        </mxCell>
        <mxCell id="kIdhYQG7fLx8eibKCi9p-244" value="Valor" style="shape=partialRectangle;connectable=0;fillColor=none;top=0;left=0;bottom=0;right=0;align=left;spacingLeft=6;overflow=hidden;whiteSpace=wrap;html=1;" vertex="1" parent="kIdhYQG7fLx8eibKCi9p-242">
          <mxGeometry x="30" width="156" height="30" as="geometry">
            <mxRectangle width="156" height="30" as="alternateBounds" />
          </mxGeometry>
        </mxCell>
        <mxCell id="kIdhYQG7fLx8eibKCi9p-245" value="Loja" style="shape=table;startSize=30;container=1;collapsible=1;childLayout=tableLayout;fixedRows=1;rowLines=0;fontStyle=1;align=center;resizeLast=1;html=1;" vertex="1" parent="1">
          <mxGeometry x="270" y="2310" width="180" height="120" as="geometry" />
        </mxCell>
        <mxCell id="kIdhYQG7fLx8eibKCi9p-246" value="" style="shape=tableRow;horizontal=0;startSize=0;swimlaneHead=0;swimlaneBody=0;fillColor=none;collapsible=0;dropTarget=0;points=[[0,0.5],[1,0.5]];portConstraint=eastwest;top=0;left=0;right=0;bottom=1;" vertex="1" parent="kIdhYQG7fLx8eibKCi9p-245">
          <mxGeometry y="30" width="180" height="30" as="geometry" />
        </mxCell>
        <mxCell id="kIdhYQG7fLx8eibKCi9p-247" value="PK" style="shape=partialRectangle;connectable=0;fillColor=none;top=0;left=0;bottom=0;right=0;fontStyle=1;overflow=hidden;whiteSpace=wrap;html=1;" vertex="1" parent="kIdhYQG7fLx8eibKCi9p-246">
          <mxGeometry width="30" height="30" as="geometry">
            <mxRectangle width="30" height="30" as="alternateBounds" />
          </mxGeometry>
        </mxCell>
        <mxCell id="kIdhYQG7fLx8eibKCi9p-248" value="&lt;div&gt;id_loja&lt;/div&gt;" style="shape=partialRectangle;connectable=0;fillColor=none;top=0;left=0;bottom=0;right=0;align=left;spacingLeft=6;fontStyle=5;overflow=hidden;whiteSpace=wrap;html=1;" vertex="1" parent="kIdhYQG7fLx8eibKCi9p-246">
          <mxGeometry x="30" width="150" height="30" as="geometry">
            <mxRectangle width="150" height="30" as="alternateBounds" />
          </mxGeometry>
        </mxCell>
        <mxCell id="kIdhYQG7fLx8eibKCi9p-249" value="" style="shape=tableRow;horizontal=0;startSize=0;swimlaneHead=0;swimlaneBody=0;fillColor=none;collapsible=0;dropTarget=0;points=[[0,0.5],[1,0.5]];portConstraint=eastwest;top=0;left=0;right=0;bottom=0;" vertex="1" parent="kIdhYQG7fLx8eibKCi9p-245">
          <mxGeometry y="60" width="180" height="30" as="geometry" />
        </mxCell>
        <mxCell id="kIdhYQG7fLx8eibKCi9p-250" value="*" style="shape=partialRectangle;connectable=0;fillColor=none;top=0;left=0;bottom=0;right=0;editable=1;overflow=hidden;whiteSpace=wrap;html=1;" vertex="1" parent="kIdhYQG7fLx8eibKCi9p-249">
          <mxGeometry width="30" height="30" as="geometry">
            <mxRectangle width="30" height="30" as="alternateBounds" />
          </mxGeometry>
        </mxCell>
        <mxCell id="kIdhYQG7fLx8eibKCi9p-251" value="Nome" style="shape=partialRectangle;connectable=0;fillColor=none;top=0;left=0;bottom=0;right=0;align=left;spacingLeft=6;overflow=hidden;whiteSpace=wrap;html=1;" vertex="1" parent="kIdhYQG7fLx8eibKCi9p-249">
          <mxGeometry x="30" width="150" height="30" as="geometry">
            <mxRectangle width="150" height="30" as="alternateBounds" />
          </mxGeometry>
        </mxCell>
        <mxCell id="kIdhYQG7fLx8eibKCi9p-252" value="" style="shape=tableRow;horizontal=0;startSize=0;swimlaneHead=0;swimlaneBody=0;fillColor=none;collapsible=0;dropTarget=0;points=[[0,0.5],[1,0.5]];portConstraint=eastwest;top=0;left=0;right=0;bottom=0;" vertex="1" parent="kIdhYQG7fLx8eibKCi9p-245">
          <mxGeometry y="90" width="180" height="30" as="geometry" />
        </mxCell>
        <mxCell id="kIdhYQG7fLx8eibKCi9p-253" value="*" style="shape=partialRectangle;connectable=0;fillColor=none;top=0;left=0;bottom=0;right=0;editable=1;overflow=hidden;whiteSpace=wrap;html=1;" vertex="1" parent="kIdhYQG7fLx8eibKCi9p-252">
          <mxGeometry width="30" height="30" as="geometry">
            <mxRectangle width="30" height="30" as="alternateBounds" />
          </mxGeometry>
        </mxCell>
        <mxCell id="kIdhYQG7fLx8eibKCi9p-254" value="Senha" style="shape=partialRectangle;connectable=0;fillColor=none;top=0;left=0;bottom=0;right=0;align=left;spacingLeft=6;overflow=hidden;whiteSpace=wrap;html=1;" vertex="1" parent="kIdhYQG7fLx8eibKCi9p-252">
          <mxGeometry x="30" width="150" height="30" as="geometry">
            <mxRectangle width="150" height="30" as="alternateBounds" />
          </mxGeometry>
        </mxCell>
        <mxCell id="kIdhYQG7fLx8eibKCi9p-258" value="Conserto" style="shape=table;startSize=30;container=1;collapsible=1;childLayout=tableLayout;fixedRows=1;rowLines=0;fontStyle=1;align=center;resizeLast=1;html=1;" vertex="1" parent="1">
          <mxGeometry x="1013" y="1960" width="180" height="150" as="geometry" />
        </mxCell>
        <mxCell id="kIdhYQG7fLx8eibKCi9p-259" value="" style="shape=tableRow;horizontal=0;startSize=0;swimlaneHead=0;swimlaneBody=0;fillColor=none;collapsible=0;dropTarget=0;points=[[0,0.5],[1,0.5]];portConstraint=eastwest;top=0;left=0;right=0;bottom=1;" vertex="1" parent="kIdhYQG7fLx8eibKCi9p-258">
          <mxGeometry y="30" width="180" height="30" as="geometry" />
        </mxCell>
        <mxCell id="kIdhYQG7fLx8eibKCi9p-260" value="PK" style="shape=partialRectangle;connectable=0;fillColor=none;top=0;left=0;bottom=0;right=0;fontStyle=1;overflow=hidden;whiteSpace=wrap;html=1;" vertex="1" parent="kIdhYQG7fLx8eibKCi9p-259">
          <mxGeometry width="30" height="30" as="geometry">
            <mxRectangle width="30" height="30" as="alternateBounds" />
          </mxGeometry>
        </mxCell>
        <mxCell id="kIdhYQG7fLx8eibKCi9p-261" value="id_tipo_servico" style="shape=partialRectangle;connectable=0;fillColor=none;top=0;left=0;bottom=0;right=0;align=left;spacingLeft=6;fontStyle=5;overflow=hidden;whiteSpace=wrap;html=1;" vertex="1" parent="kIdhYQG7fLx8eibKCi9p-259">
          <mxGeometry x="30" width="150" height="30" as="geometry">
            <mxRectangle width="150" height="30" as="alternateBounds" />
          </mxGeometry>
        </mxCell>
        <mxCell id="kIdhYQG7fLx8eibKCi9p-287" style="shape=tableRow;horizontal=0;startSize=0;swimlaneHead=0;swimlaneBody=0;fillColor=none;collapsible=0;dropTarget=0;points=[[0,0.5],[1,0.5]];portConstraint=eastwest;top=0;left=0;right=0;bottom=1;" vertex="1" parent="kIdhYQG7fLx8eibKCi9p-258">
          <mxGeometry y="60" width="180" height="30" as="geometry" />
        </mxCell>
        <mxCell id="kIdhYQG7fLx8eibKCi9p-288" style="shape=partialRectangle;connectable=0;fillColor=none;top=0;left=0;bottom=0;right=0;fontStyle=1;overflow=hidden;whiteSpace=wrap;html=1;" vertex="1" parent="kIdhYQG7fLx8eibKCi9p-287">
          <mxGeometry width="30" height="30" as="geometry">
            <mxRectangle width="30" height="30" as="alternateBounds" />
          </mxGeometry>
        </mxCell>
        <mxCell id="kIdhYQG7fLx8eibKCi9p-289" value="&lt;span style=&quot;font-weight: normal;&quot;&gt;Nome_servico&lt;/span&gt;" style="shape=partialRectangle;connectable=0;fillColor=none;top=0;left=0;bottom=0;right=0;align=left;spacingLeft=6;fontStyle=5;overflow=hidden;whiteSpace=wrap;html=1;" vertex="1" parent="kIdhYQG7fLx8eibKCi9p-287">
          <mxGeometry x="30" width="150" height="30" as="geometry">
            <mxRectangle width="150" height="30" as="alternateBounds" />
          </mxGeometry>
        </mxCell>
        <mxCell id="kIdhYQG7fLx8eibKCi9p-262" value="" style="shape=tableRow;horizontal=0;startSize=0;swimlaneHead=0;swimlaneBody=0;fillColor=none;collapsible=0;dropTarget=0;points=[[0,0.5],[1,0.5]];portConstraint=eastwest;top=0;left=0;right=0;bottom=0;" vertex="1" parent="kIdhYQG7fLx8eibKCi9p-258">
          <mxGeometry y="90" width="180" height="30" as="geometry" />
        </mxCell>
        <mxCell id="kIdhYQG7fLx8eibKCi9p-263" value="" style="shape=partialRectangle;connectable=0;fillColor=none;top=0;left=0;bottom=0;right=0;editable=1;overflow=hidden;whiteSpace=wrap;html=1;" vertex="1" parent="kIdhYQG7fLx8eibKCi9p-262">
          <mxGeometry width="30" height="30" as="geometry">
            <mxRectangle width="30" height="30" as="alternateBounds" />
          </mxGeometry>
        </mxCell>
        <mxCell id="kIdhYQG7fLx8eibKCi9p-264" value="pecas_usadas" style="shape=partialRectangle;connectable=0;fillColor=none;top=0;left=0;bottom=0;right=0;align=left;spacingLeft=6;overflow=hidden;whiteSpace=wrap;html=1;" vertex="1" parent="kIdhYQG7fLx8eibKCi9p-262">
          <mxGeometry x="30" width="150" height="30" as="geometry">
            <mxRectangle width="150" height="30" as="alternateBounds" />
          </mxGeometry>
        </mxCell>
        <mxCell id="kIdhYQG7fLx8eibKCi9p-265" value="" style="shape=tableRow;horizontal=0;startSize=0;swimlaneHead=0;swimlaneBody=0;fillColor=none;collapsible=0;dropTarget=0;points=[[0,0.5],[1,0.5]];portConstraint=eastwest;top=0;left=0;right=0;bottom=0;" vertex="1" parent="kIdhYQG7fLx8eibKCi9p-258">
          <mxGeometry y="120" width="180" height="30" as="geometry" />
        </mxCell>
        <mxCell id="kIdhYQG7fLx8eibKCi9p-266" value="0/1" style="shape=partialRectangle;connectable=0;fillColor=none;top=0;left=0;bottom=0;right=0;editable=1;overflow=hidden;whiteSpace=wrap;html=1;" vertex="1" parent="kIdhYQG7fLx8eibKCi9p-265">
          <mxGeometry width="30" height="30" as="geometry">
            <mxRectangle width="30" height="30" as="alternateBounds" />
          </mxGeometry>
        </mxCell>
        <mxCell id="kIdhYQG7fLx8eibKCi9p-267" value="completo?" style="shape=partialRectangle;connectable=0;fillColor=none;top=0;left=0;bottom=0;right=0;align=left;spacingLeft=6;overflow=hidden;whiteSpace=wrap;html=1;" vertex="1" parent="kIdhYQG7fLx8eibKCi9p-265">
          <mxGeometry x="30" width="150" height="30" as="geometry">
            <mxRectangle width="150" height="30" as="alternateBounds" />
          </mxGeometry>
        </mxCell>
        <mxCell id="kIdhYQG7fLx8eibKCi9p-271" value="Montagem" style="shape=table;startSize=30;container=1;collapsible=1;childLayout=tableLayout;fixedRows=1;rowLines=0;fontStyle=1;align=center;resizeLast=1;html=1;" vertex="1" parent="1">
          <mxGeometry x="1210" y="1960" width="180" height="150" as="geometry" />
        </mxCell>
        <mxCell id="kIdhYQG7fLx8eibKCi9p-272" value="" style="shape=tableRow;horizontal=0;startSize=0;swimlaneHead=0;swimlaneBody=0;fillColor=none;collapsible=0;dropTarget=0;points=[[0,0.5],[1,0.5]];portConstraint=eastwest;top=0;left=0;right=0;bottom=1;" vertex="1" parent="kIdhYQG7fLx8eibKCi9p-271">
          <mxGeometry y="30" width="180" height="30" as="geometry" />
        </mxCell>
        <mxCell id="kIdhYQG7fLx8eibKCi9p-273" value="PK" style="shape=partialRectangle;connectable=0;fillColor=none;top=0;left=0;bottom=0;right=0;fontStyle=1;overflow=hidden;whiteSpace=wrap;html=1;" vertex="1" parent="kIdhYQG7fLx8eibKCi9p-272">
          <mxGeometry width="30" height="30" as="geometry">
            <mxRectangle width="30" height="30" as="alternateBounds" />
          </mxGeometry>
        </mxCell>
        <mxCell id="kIdhYQG7fLx8eibKCi9p-274" value="id_tipo_servico" style="shape=partialRectangle;connectable=0;fillColor=none;top=0;left=0;bottom=0;right=0;align=left;spacingLeft=6;fontStyle=5;overflow=hidden;whiteSpace=wrap;html=1;" vertex="1" parent="kIdhYQG7fLx8eibKCi9p-272">
          <mxGeometry x="30" width="150" height="30" as="geometry">
            <mxRectangle width="150" height="30" as="alternateBounds" />
          </mxGeometry>
        </mxCell>
        <mxCell id="kIdhYQG7fLx8eibKCi9p-290" style="shape=tableRow;horizontal=0;startSize=0;swimlaneHead=0;swimlaneBody=0;fillColor=none;collapsible=0;dropTarget=0;points=[[0,0.5],[1,0.5]];portConstraint=eastwest;top=0;left=0;right=0;bottom=1;" vertex="1" parent="kIdhYQG7fLx8eibKCi9p-271">
          <mxGeometry y="60" width="180" height="30" as="geometry" />
        </mxCell>
        <mxCell id="kIdhYQG7fLx8eibKCi9p-291" style="shape=partialRectangle;connectable=0;fillColor=none;top=0;left=0;bottom=0;right=0;fontStyle=1;overflow=hidden;whiteSpace=wrap;html=1;" vertex="1" parent="kIdhYQG7fLx8eibKCi9p-290">
          <mxGeometry width="30" height="30" as="geometry">
            <mxRectangle width="30" height="30" as="alternateBounds" />
          </mxGeometry>
        </mxCell>
        <mxCell id="kIdhYQG7fLx8eibKCi9p-292" value="&lt;span style=&quot;font-weight: normal;&quot;&gt;Nome_servico&lt;/span&gt;" style="shape=partialRectangle;connectable=0;fillColor=none;top=0;left=0;bottom=0;right=0;align=left;spacingLeft=6;fontStyle=5;overflow=hidden;whiteSpace=wrap;html=1;" vertex="1" parent="kIdhYQG7fLx8eibKCi9p-290">
          <mxGeometry x="30" width="150" height="30" as="geometry">
            <mxRectangle width="150" height="30" as="alternateBounds" />
          </mxGeometry>
        </mxCell>
        <mxCell id="kIdhYQG7fLx8eibKCi9p-275" value="" style="shape=tableRow;horizontal=0;startSize=0;swimlaneHead=0;swimlaneBody=0;fillColor=none;collapsible=0;dropTarget=0;points=[[0,0.5],[1,0.5]];portConstraint=eastwest;top=0;left=0;right=0;bottom=0;" vertex="1" parent="kIdhYQG7fLx8eibKCi9p-271">
          <mxGeometry y="90" width="180" height="30" as="geometry" />
        </mxCell>
        <mxCell id="kIdhYQG7fLx8eibKCi9p-276" value="" style="shape=partialRectangle;connectable=0;fillColor=none;top=0;left=0;bottom=0;right=0;editable=1;overflow=hidden;whiteSpace=wrap;html=1;" vertex="1" parent="kIdhYQG7fLx8eibKCi9p-275">
          <mxGeometry width="30" height="30" as="geometry">
            <mxRectangle width="30" height="30" as="alternateBounds" />
          </mxGeometry>
        </mxCell>
        <mxCell id="kIdhYQG7fLx8eibKCi9p-277" value="pecas_usadas" style="shape=partialRectangle;connectable=0;fillColor=none;top=0;left=0;bottom=0;right=0;align=left;spacingLeft=6;overflow=hidden;whiteSpace=wrap;html=1;" vertex="1" parent="kIdhYQG7fLx8eibKCi9p-275">
          <mxGeometry x="30" width="150" height="30" as="geometry">
            <mxRectangle width="150" height="30" as="alternateBounds" />
          </mxGeometry>
        </mxCell>
        <mxCell id="kIdhYQG7fLx8eibKCi9p-278" value="" style="shape=tableRow;horizontal=0;startSize=0;swimlaneHead=0;swimlaneBody=0;fillColor=none;collapsible=0;dropTarget=0;points=[[0,0.5],[1,0.5]];portConstraint=eastwest;top=0;left=0;right=0;bottom=0;" vertex="1" parent="kIdhYQG7fLx8eibKCi9p-271">
          <mxGeometry y="120" width="180" height="30" as="geometry" />
        </mxCell>
        <mxCell id="kIdhYQG7fLx8eibKCi9p-279" value="0/1" style="shape=partialRectangle;connectable=0;fillColor=none;top=0;left=0;bottom=0;right=0;editable=1;overflow=hidden;whiteSpace=wrap;html=1;" vertex="1" parent="kIdhYQG7fLx8eibKCi9p-278">
          <mxGeometry width="30" height="30" as="geometry">
            <mxRectangle width="30" height="30" as="alternateBounds" />
          </mxGeometry>
        </mxCell>
        <mxCell id="kIdhYQG7fLx8eibKCi9p-280" value="completo?" style="shape=partialRectangle;connectable=0;fillColor=none;top=0;left=0;bottom=0;right=0;align=left;spacingLeft=6;overflow=hidden;whiteSpace=wrap;html=1;" vertex="1" parent="kIdhYQG7fLx8eibKCi9p-278">
          <mxGeometry x="30" width="150" height="30" as="geometry">
            <mxRectangle width="150" height="30" as="alternateBounds" />
          </mxGeometry>
        </mxCell>
      </root>
    </mxGraphModel>
  </diagram>
</mxfile>
